M48
; DRILL file {KiCad 9.0.3} date 2025-08-04T05:36:24+0200
; FORMAT={-:-/ absolute / inch / decimal}
; #@! TF.CreationDate,2025-08-04T05:36:24+02:00
; #@! TF.GenerationSoftware,Kicad,Pcbnew,9.0.3
; #@! TF.FileFunction,Plated,1,2,PTH
FMAT,2
INCH
; #@! TA.AperFunction,Plated,PTH,ViaDrill
T1C0.0118
; #@! TA.AperFunction,Plated,PTH,ComponentDrill
T2C0.0276
; #@! TA.AperFunction,Plated,PTH,ComponentDrill
T3C0.0295
; #@! TA.AperFunction,Plated,PTH,ComponentDrill
T4C0.0315
; #@! TA.AperFunction,Plated,PTH,ComponentDrill
T5C0.0354
; #@! TA.AperFunction,Plated,PTH,ComponentDrill
T6C0.0374
; #@! TA.AperFunction,Plated,PTH,ComponentDrill
T7C0.0394
; #@! TA.AperFunction,Plated,PTH,ComponentDrill
T8C0.0402
; #@! TA.AperFunction,Plated,PTH,ComponentDrill
T9C0.0433
; #@! TA.AperFunction,Plated,PTH,ComponentDrill
T10C0.0472
%
G90
G05
T1
X1.7815Y-1.6437
X1.7815Y-1.7421
X1.7815Y-1.8602
X1.7815Y-1.9783
X1.7815Y-2.0866
X1.7815Y-2.1752
X1.7815Y-2.2441
X1.7815Y-2.3425
X1.7815Y-2.5689
X1.7815Y-2.7264
X1.7815Y-2.8543
X1.7815Y-2.9626
X1.7815Y-3.061
X1.7815Y-3.1988
X1.7815Y-3.3169
X1.7815Y-3.435
X1.7815Y-3.5531
X1.7815Y-3.6713
X1.7815Y-3.8091
X1.7815Y-3.9272
X1.7815Y-4.0551
X1.7815Y-4.2028
X1.7815Y-4.3602
X1.7815Y-4.5374
X1.7815Y-4.7047
X1.7815Y-4.8917
X1.7815Y-5.0492
X1.7815Y-5.2461
X1.7815Y-5.3937
X1.7815Y-5.5807
X1.7815Y-5.7283
X1.7815Y-5.9154
X1.7815Y-6.1024
X1.8012Y-6.2205
X1.811Y-1.5354
X1.8307Y-2.5295
X1.8504Y-2.628
X1.8701Y-1.4764
X1.8898Y-1.9685
X1.8898Y-2.7067
X1.8898Y-3.4449
X1.8898Y-5.748
X1.8996Y-2.4114
X1.8996Y-3.9272
X1.8996Y-6.2894
X1.9094Y-2.6083
X1.9094Y-2.9035
X1.9193Y-2.3031
X1.9193Y-4.9705
X1.9291Y-3.002
X1.939Y-1.8996
X1.939Y-3.1102
X1.9488Y-3.563
X1.9587Y-4.2323
X1.9685Y-1.4764
X1.9685Y-5.0
X1.9783Y-1.7323
X1.9783Y-2.2343
X1.9783Y-4.1043
X1.9783Y-5.5906
X1.9882Y-5.9449
X2.0079Y-1.9587
X2.0177Y-1.8307
X2.0177Y-3.9862
X2.0177Y-5.7874
X2.0276Y-3.5827
X2.0374Y-2.4803
X2.0374Y-6.0728
X2.0472Y-3.7008
X2.0472Y-6.2697
X2.0669Y-1.4764
X2.0768Y-6.1516
X2.0866Y-1.5748
X2.0965Y-5.0886
X2.1063Y-3.8189
X2.1161Y-5.0
X2.1161Y-5.7087
X2.1358Y-5.9055
X2.1457Y-1.4764
X2.1457Y-1.6929
X2.1457Y-4.9409
X2.1555Y-5.2264
X2.1654Y-2.2343
X2.1752Y-4.2126
X2.185Y-1.7618
X2.185Y-3.6811
X2.185Y-3.7598
X2.185Y-6.2795
X2.2244Y-1.4764
X2.2244Y-5.9744
X2.2343Y-1.8504
X2.2343Y-1.9882
X2.2343Y-3.9173
X2.2441Y-4.0059
X2.2539Y-6.2008
X2.2736Y-5.8366
X2.2835Y-1.5945
X2.2992Y-1.7421
X2.3031Y-1.4764
X2.3031Y-1.9587
X2.3031Y-5.4823
X2.3031Y-5.7283
X2.3031Y-6.0925
X2.313Y-4.0256
X2.3327Y-3.937
X2.3327Y-4.1142
X2.3425Y-3.7598
X2.3524Y-2.0866
X2.372Y-4.0157
X2.3819Y-1.4764
X2.3819Y-3.6811
X2.3972Y-1.5855
X2.4016Y-4.1339
X2.4016Y-6.0039
X2.4213Y-6.2795
X2.4409Y-3.8189
X2.4409Y-5.4724
X2.4508Y-4.0256
X2.4508Y-6.1614
X2.4606Y-1.4764
X2.4606Y-4.2421
X2.4803Y-3.9272
X2.4803Y-5.2362
X2.4903Y-1.8293
X2.4925Y-1.7165
X2.5Y-3.6516
X2.5Y-5.1181
X2.5098Y-1.6339
X2.5197Y-4.124
X2.5394Y-1.4764
X2.5394Y-3.7402
X2.5492Y-1.9783
X2.5527Y-2.2545
X2.5591Y-4.0354
X2.5689Y-5.0492
X2.5833Y-1.6309
X2.5856Y-2.2413
X2.5915Y-2.1939
X2.5984Y-4.9803
X2.6083Y-4.2323
X2.6181Y-1.4764
X2.6181Y-5.7382
X2.6417Y-1.7835
X2.6575Y-1.6929
X2.6575Y-6.2795
X2.6673Y-5.8957
X2.6772Y-3.7992
X2.6772Y-4.124
X2.6811Y-2.3209
X2.687Y-3.8976
X2.687Y-4.2224
X2.6969Y-1.4764
X2.6969Y-3.6614
X2.7264Y-5.2165
X2.7264Y-5.7382
X2.7362Y-5.1083
X2.7756Y-1.4764
X2.7854Y-5.7382
X2.815Y-2.0276
X2.8183Y-4.1683
X2.8207Y-4.0685
X2.8232Y-3.9691
X2.8233Y-3.8683
X2.8346Y-1.7717
X2.8346Y-1.9193
X2.8346Y-3.7598
X2.8543Y-1.4764
X2.8543Y-6.2795
X2.8642Y-5.2362
X2.874Y-3.6811
X2.874Y-4.9803
X2.8839Y-3.7894
X2.8839Y-5.1181
X2.9035Y-4.1142
X2.9134Y-3.9173
X2.9232Y-4.0059
X2.9301Y-2.2964
X2.9331Y-1.4764
X2.9331Y-1.6634
X2.9331Y-1.7421
X2.9331Y-1.8799
X2.9331Y-2.0276
X2.9331Y-3.8189
X2.9429Y-3.7205
X2.9429Y-5.876
X2.9528Y-3.6811
X2.9972Y-2.2615
X3.002Y-5.1378
X3.002Y-5.2165
X3.002Y-5.4724
X3.0118Y-1.4764
X3.0118Y-3.0709
X3.0118Y-3.1693
X3.0118Y-3.2677
X3.0118Y-3.3661
X3.0118Y-3.4646
X3.0217Y-3.9272
X3.0217Y-4.0256
X3.0217Y-5.8169
X3.0315Y-1.6339
X3.0315Y-1.7224
X3.0315Y-1.9291
X3.0315Y-2.0364
X3.0315Y-2.2933
X3.0315Y-3.5433
X3.0315Y-3.8386
X3.0413Y-1.811
X3.0413Y-4.1142
X3.0413Y-4.2126
X3.0512Y-4.9803
X3.0512Y-6.2795
X3.061Y-3.6024
X3.0709Y-3.3661
X3.0817Y-2.1654
X3.0906Y-1.4764
X3.0906Y-5.1673
X3.1102Y-3.6024
X3.1102Y-3.8189
X3.1102Y-5.6496
X3.1201Y-4.2323
X3.1299Y-1.6634
X3.1299Y-1.8209
X3.1299Y-3.5039
X3.1398Y-1.939
X3.1398Y-6.2894
X3.1496Y-1.998
X3.1496Y-2.9331
X3.1496Y-3.7205
X3.1594Y-3.9075
X3.1594Y-4.0256
X3.1594Y-5.0591
X3.1594Y-5.2953
X3.1693Y-1.4764
X3.1693Y-3.1693
X3.1693Y-3.2677
X3.1693Y-4.1339
X3.185Y-2.2717
X3.189Y-5.2067
X3.2067Y-3.061
X3.2185Y-1.8307
X3.2185Y-5.935
X3.2283Y-1.6831
X3.2283Y-2.9724
X3.2283Y-3.3661
X3.2382Y-1.9291
X3.2382Y-5.8661
X3.248Y-1.4764
X3.248Y-2.6575
X3.248Y-3.0709
X3.248Y-3.189
X3.248Y-3.4646
X3.248Y-3.5827
X3.248Y-5.2559
X3.2579Y-5.0098
X3.2579Y-5.4035
X3.2638Y-2.5315
X3.2677Y-3.2677
X3.2677Y-3.3858
X3.2874Y-6.2795
X3.2953Y-2.3031
X3.3071Y-3.6811
X3.3071Y-3.9272
X3.3169Y-1.8012
X3.3169Y-4.0059
X3.3268Y-1.4764
X3.3268Y-1.9488
X3.3268Y-2.7362
X3.3268Y-4.1339
X3.3268Y-5.4724
X3.3465Y-3.8189
X3.3465Y-5.2067
X3.3465Y-6.0827
X3.3563Y-3.5433
X3.3563Y-4.1831
X3.3563Y-5.6496
X3.3661Y-1.8799
X3.3661Y-3.7205
X3.376Y-3.9173
X3.3858Y-1.7126
X3.3858Y-1.7815
X3.3858Y-2.9724
X3.3858Y-3.0906
X3.3858Y-3.1693
X3.3858Y-5.8366
X3.3957Y-5.0689
X3.4055Y-1.4764
X3.4055Y-1.9882
X3.4055Y-2.8346
X3.4055Y-2.8937
X3.4055Y-3.0315
X3.4055Y-3.2677
X3.4055Y-3.3661
X3.4055Y-3.4646
X3.4055Y-3.5433
X3.4055Y-4.0748
X3.4154Y-3.8976
X3.4252Y-3.6614
X3.4252Y-3.7205
X3.4252Y-3.7992
X3.4252Y-5.9449
X3.4449Y-3.577
X3.4646Y-3.1693
X3.4646Y-3.4646
X3.4744Y-5.935
X3.4843Y-1.4764
X3.4843Y-3.0709
X3.4843Y-3.5433
X3.5039Y-2.9724
X3.5138Y-3.6122
X3.5236Y-3.2677
X3.5236Y-3.563
X3.5236Y-6.2795
X3.5433Y-3.1693
X3.5433Y-3.3661
X3.5433Y-3.4646
X3.5531Y-3.9272
X3.5531Y-4.065
X3.5531Y-4.3209
X3.5556Y-4.5552
X3.563Y-1.4764
X3.563Y-1.8701
X3.5709Y-2.2874
X3.5827Y-3.1201
X3.5827Y-3.6024
X3.5925Y-4.7441
X3.6024Y-1.7224
X3.6024Y-1.9587
X3.6024Y-2.5315
X3.6024Y-2.6181
X3.6179Y-4.7384
X3.622Y-3.0512
X3.622Y-3.218
X3.622Y-3.563
X3.622Y-5.4724
X3.6319Y-1.5453
X3.6339Y-2.8937
X3.6417Y-1.4764
X3.6417Y-2.8346
X3.6417Y-2.9724
X3.6417Y-3.1693
X3.6614Y-3.3169
X3.6614Y-3.5236
X3.6614Y-5.6201
X3.677Y-4.7975
X3.6811Y-1.8701
X3.6811Y-1.9882
X3.7008Y-3.418
X3.7008Y-3.5236
X3.7106Y-1.7815
X3.7205Y-1.4764
X3.7303Y-6.0599
X3.7303Y-4.0453
X3.7303Y-4.1929
X3.7402Y-3.1299
X3.7402Y-3.7303
X3.7402Y-3.8189
X3.7409Y-4.8614
X3.7598Y-2.7362
X3.7598Y-5.8858
X3.7795Y-2.8937
X3.7835Y-2.5315
X3.7894Y-1.939
X3.7992Y-1.4764
X3.7992Y-2.6181
X3.7992Y-6.2795
X3.8049Y-4.9254
X3.8071Y-2.2953
X3.8091Y-5.4626
X3.8189Y-3.622
X3.8189Y-3.75
X3.8386Y-1.7618
X3.8386Y-2.8346
X3.8386Y-4.0945
X3.8386Y-4.3209
X3.8541Y-4.9746
X3.8583Y-3.0315
X3.8583Y-3.9567
X3.878Y-1.4764
X3.8886Y-5.0091
X3.8937Y-4.2717
X3.9173Y-5.8465
X3.923Y-5.0435
X3.937Y-5.6594
X3.9567Y-1.4764
X3.9646Y-4.1929
X3.9665Y-3.9764
X3.9665Y-4.439
X3.9862Y-1.8307
X3.9961Y-3.8583
X3.9961Y-5.1083
X3.9961Y-6.2795
X4.014Y-4.1437
X4.0157Y-3.7205
X4.0354Y-1.4764
X4.0354Y-2.9331
X4.0354Y-3.0118
X4.0354Y-3.1299
X4.0354Y-3.248
X4.0354Y-3.6319
X4.0354Y-5.9252
X4.0551Y-5.0591
X4.0748Y-5.6496
X4.0846Y-3.9961
X4.1142Y-1.4764
X4.1142Y-1.7913
X4.1535Y-5.8071
X4.1634Y-3.878
X4.1732Y-3.4547
X4.1732Y-3.5039
X4.1732Y-3.5728
X4.1831Y-4.2913
X4.1929Y-1.4764
X4.1929Y-1.5551
X4.1929Y-1.6339
X4.1929Y-1.7126
X4.1929Y-1.7913
X4.1929Y-1.8701
X4.1929Y-1.9094
X4.1929Y-1.9488
X4.1929Y-1.9882
X4.1929Y-2.6181
X4.1929Y-2.6969
X4.1929Y-2.7756
X4.1929Y-2.8543
X4.1929Y-2.9331
X4.1929Y-3.0512
X4.1929Y-3.248
X4.1929Y-6.2795
X4.2028Y-3.6713
X4.2323Y-3.1693
X4.2323Y-4.2126
X4.2362Y-2.3537
X4.2421Y-3.8287
X4.2717Y-3.1299
X4.311Y-3.0512
X4.311Y-5.4626
X4.311Y-5.9646
X4.3307Y-4.5374
X4.3406Y-4.0846
X4.3504Y-4.3898
X4.3602Y-3.3563
X4.3799Y-3.5728
X4.3799Y-3.75
X4.3799Y-4.1929
X4.3898Y-5.6496
X4.3898Y-6.122
X4.3996Y-4.8524
X4.4291Y-3.2874
X4.4291Y-3.4055
X4.4291Y-6.2795
X4.439Y-3.4843
X4.4488Y-3.2185
X4.4488Y-3.9272
X4.4488Y-4.1929
X4.4685Y-3.1299
X4.4685Y-3.6417
X4.4882Y-4.5079
X4.5079Y-4.9508
X4.5472Y-5.9646
X4.5669Y-4.8228
X4.5768Y-5.4921
X4.5866Y-6.122
X4.5965Y-3.7106
X4.5965Y-3.8484
X4.598Y-3.535
X4.6161Y-3.4547
X4.6181Y-4.0591
X4.626Y-3.1791
X4.626Y-6.2795
X4.6287Y-4.2689
X4.6654Y-5.0591
X4.6654Y-5.6496
X4.685Y-3.1988
X4.685Y-3.6713
X4.6949Y-5.3445
X4.7047Y-2.9291
X4.7047Y-3.9173
X4.7047Y-5.8465
X4.7222Y-4.3624
X4.7244Y-4.8524
X4.7441Y-4.1693
X4.7441Y-5.4035
X4.7539Y-3.3661
X4.7638Y-3.2283
X4.7638Y-3.7697
X4.7835Y-5.689
X4.7913Y-4.2402
X4.8031Y-2.8315
X4.8122Y-4.0854
X4.813Y-3.9665
X4.8228Y-5.6102
X4.8291Y-2.8803
X4.8417Y-3.1281
X4.8524Y-3.2087
X4.86Y-4.5002
X4.8622Y-6.2795
X4.8937Y-4.3425
X4.8962Y-4.5364
X4.9016Y-3.5236
X4.9016Y-5.2165
X4.9114Y-3.8878
X4.9114Y-3.9764
X4.9409Y-4.9409
X4.9409Y-5.0984
X4.9606Y-4.124
X4.9606Y-4.8228
X4.9776Y-4.7244
X4.9803Y-1.5551
X4.9803Y-1.6732
X4.9803Y-1.8307
X4.9803Y-1.9882
X4.9803Y-2.1457
X4.9803Y-2.3425
X4.9803Y-2.4606
X4.9803Y-3.4055
X4.9803Y-5.4921
X4.9803Y-5.9252
X5.0Y-3.8484
X5.0Y-4.1831
X5.0037Y-4.3733
X5.0071Y-4.3012
X5.0071Y-4.439
X5.0071Y-4.626
X5.0118Y-2.7323
X5.0197Y-1.4764
X5.0197Y-2.5787
X5.0197Y-5.1378
X5.0197Y-5.2559
X5.0197Y-5.6102
X5.0197Y-5.8858
X5.0394Y-4.3898
X5.0591Y-4.626
X5.0591Y-4.7835
X5.0591Y-5.4528
X5.0984Y-4.5866
X5.0984Y-4.9409
X5.0984Y-6.2795
X5.1378Y-1.8307
X5.1378Y-4.8622
X5.1378Y-5.0984
X5.1772Y-1.4764
X5.1772Y-3.248
X5.1772Y-3.3268
X5.1772Y-3.4449
X5.1772Y-3.5236
X5.1772Y-5.2165
X5.2165Y-1.6732
X5.2165Y-4.5079
X5.2165Y-5.3346
X5.2165Y-5.8465
X5.2559Y-1.5945
X5.2559Y-1.8307
X5.2559Y-4.7441
X5.2559Y-5.6102
X5.2953Y-5.4921
X5.3346Y-2.6575
X5.3346Y-3.6417
X5.3346Y-4.5079
X5.3346Y-4.626
X5.3346Y-5.1772
X5.3346Y-5.4528
X5.3346Y-5.6102
X5.3346Y-6.2795
X5.374Y-1.4764
X5.374Y-2.0276
X5.374Y-2.7756
X5.374Y-2.8937
X5.374Y-3.0906
X5.374Y-3.1693
X5.374Y-5.2953
X5.4134Y-1.8307
X5.4134Y-3.7598
X5.4134Y-6.0039
X5.4134Y-6.122
X5.4528Y-4.3898
X5.4528Y-5.689
X5.4921Y-3.2087
X5.4921Y-4.5866
X5.4921Y-6.2795
X5.5098Y-2.7894
X5.5315Y-4.4291
X5.5315Y-4.9409
X5.5315Y-6.0433
X5.5709Y-1.9488
X5.5709Y-2.185
X5.5709Y-2.3425
X5.5709Y-5.1772
X5.5709Y-5.8858
X5.5984Y-2.7795
X5.6102Y-1.4764
X5.6102Y-1.7126
X5.6102Y-2.1063
X5.6102Y-2.5
X5.6102Y-2.5
X5.6102Y-3.0906
X5.6102Y-3.9961
X5.6102Y-4.2717
X5.6102Y-5.9252
X5.6417Y-2.3583
X5.6496Y-2.6969
X5.6496Y-2.9724
X5.6496Y-4.1142
X5.6496Y-4.3504
X5.6496Y-4.5866
X5.6496Y-6.122
X5.689Y-1.6339
X5.689Y-3.0906
X5.689Y-3.4055
X5.689Y-3.8386
X5.689Y-5.8071
X5.689Y-6.2795
X5.7283Y-2.6281
X5.7283Y-3.2874
X5.7283Y-3.7992
X5.7283Y-4.0354
X5.7283Y-4.1929
X5.7283Y-4.6654
X5.7283Y-5.6102
X5.7677Y-1.8307
X5.7677Y-2.1063
X5.7677Y-2.185
X5.7677Y-2.3425
X5.7677Y-2.3819
X5.7677Y-2.5787
X5.7677Y-3.0906
X5.7677Y-3.6417
X5.7677Y-3.9567
X5.7677Y-4.5866
X5.7677Y-4.9016
X5.7677Y-5.0197
X5.7677Y-5.4528
X5.8071Y-1.4764
X5.8071Y-2.4606
X5.8071Y-2.8543
X5.8071Y-3.2874
X5.8071Y-5.2165
X5.8465Y-1.5157
X5.8465Y-2.7756
X5.8465Y-2.9331
X5.8465Y-4.2323
X5.8465Y-5.1378
X5.8465Y-5.689
X5.8858Y-1.9488
X5.8858Y-3.563
X5.8858Y-4.2717
X5.8858Y-6.2795
X5.9252Y-3.8386
X5.9252Y-3.9567
X5.9252Y-4.0748
X5.9252Y-4.1929
X5.9252Y-5.8465
X6.0039Y-3.4843
X6.0039Y-4.0354
X6.0039Y-4.4291
X6.0039Y-4.9409
X6.0039Y-5.2165
X6.0039Y-5.4528
X6.0433Y-1.4764
X6.0433Y-1.8701
X6.0433Y-2.9724
X6.0827Y-1.752
X6.0827Y-2.1457
X6.0827Y-2.7756
X6.0827Y-3.4449
X6.0827Y-4.2323
X6.122Y-1.6732
X6.122Y-2.0669
X6.122Y-3.6024
X6.122Y-4.0354
X6.122Y-4.311
X6.122Y-4.4685
X6.122Y-5.689
X6.1614Y-1.7126
X6.1614Y-2.6969
X6.1614Y-3.248
X6.1614Y-3.6811
X6.1614Y-5.3346
X6.1614Y-5.6102
X6.1614Y-6.2795
X6.2008Y-4.5079
X6.2008Y-4.7835
X6.2008Y-5.4134
X6.2008Y-5.6102
X6.2008Y-5.8071
X6.2008Y-5.8858
X6.2402Y-1.9094
X6.2402Y-4.626
X6.2402Y-5.689
X6.2402Y-6.2402
X6.2795Y-2.9724
X6.2795Y-5.1772
X6.2795Y-6.1614
X6.3189Y-4.0748
X6.3189Y-4.2323
X6.3189Y-5.8858
X6.3189Y-6.0039
X6.3583Y-1.4764
X6.3583Y-1.8307
X6.3583Y-3.563
X6.3976Y-3.6417
X6.3976Y-6.0433
X6.3976Y-6.2795
X6.437Y-1.9094
X6.437Y-2.6575
X6.437Y-2.7756
X6.437Y-2.8543
X6.437Y-2.9724
X6.437Y-4.9016
X6.437Y-5.9252
X6.4764Y-1.8307
X6.4764Y-3.2087
X6.4764Y-4.0748
X6.4764Y-5.4528
X6.5157Y-1.4764
X6.5157Y-5.689
X6.5157Y-5.8465
X6.5551Y-3.6024
X6.5551Y-4.3504
X6.5551Y-4.5472
X6.5551Y-5.1772
X6.5945Y-1.4764
X6.5945Y-1.5945
X6.5945Y-1.752
X6.5945Y-3.7205
X6.6339Y-3.878
X6.6339Y-4.7835
X6.6339Y-5.0984
X6.6339Y-5.2165
X6.6339Y-6.1614
X6.6732Y-3.1299
X6.6732Y-3.4055
X6.6732Y-4.5079
X6.6732Y-5.9252
X6.6732Y-6.2795
X6.7126Y-1.7126
X6.7126Y-1.9094
X6.7126Y-4.1142
X6.752Y-1.7913
X6.752Y-2.5787
X6.752Y-3.7205
X6.752Y-4.311
X6.7913Y-1.4764
X6.7913Y-3.6417
X6.7913Y-5.4921
X6.7913Y-5.689
X6.8307Y-1.5945
X6.8307Y-4.7835
X6.8307Y-4.8622
X6.8701Y-3.1693
X6.8701Y-3.2874
X6.8701Y-3.9961
X6.8701Y-5.8858
X6.9094Y-2.6969
X6.9094Y-3.6811
X6.9094Y-4.3504
X6.9094Y-4.4291
X6.9488Y-1.9488
X6.9488Y-3.0906
X6.9488Y-4.7441
X6.9488Y-4.8622
X6.9488Y-6.2795
X6.9882Y-2.6575
X6.9882Y-3.8386
X6.9882Y-4.0354
X6.9882Y-4.5472
X6.9882Y-6.1614
X7.0276Y-1.7913
X7.0276Y-3.4843
X7.0276Y-4.4685
X7.0276Y-5.689
X7.0669Y-1.4764
X7.0669Y-2.185
X7.0669Y-2.3819
X7.0669Y-2.7756
X7.0669Y-2.8937
X7.0669Y-5.9646
X7.1063Y-1.752
X7.1063Y-1.9488
X7.1063Y-3.1693
X7.1063Y-4.9016
X7.1457Y-2.5394
X7.1457Y-2.7756
X7.1457Y-5.4921
X7.1457Y-5.5709
X7.1457Y-5.8465
X7.185Y-1.5945
X7.185Y-2.0276
X7.185Y-3.248
X7.185Y-3.6024
X7.185Y-3.7598
X7.185Y-4.7835
X7.2244Y-2.3425
X7.2244Y-3.9567
X7.2244Y-5.3346
X7.2244Y-5.8071
X7.2244Y-6.0827
X7.2244Y-6.2795
X7.2638Y-1.752
X7.2638Y-2.3031
X7.2638Y-2.5394
X7.2638Y-3.0118
X7.2638Y-5.2165
X7.2638Y-5.6496
X7.2638Y-6.0039
X7.3031Y-1.4764
X7.3031Y-2.1063
X7.3031Y-2.6181
X7.3031Y-4.9409
X7.3425Y-3.5236
X7.3425Y-5.8465
X7.3819Y-1.7913
X7.3819Y-3.2874
X7.3819Y-3.7598
X7.3819Y-3.878
X7.3819Y-3.9961
X7.3819Y-5.0984
X7.3819Y-5.7283
X7.4213Y-2.0669
X7.4213Y-2.7756
X7.4213Y-3.563
X7.4213Y-4.3898
X7.4213Y-5.5315
X7.4213Y-5.8465
X7.4606Y-1.4764
X7.4606Y-1.9094
X7.4606Y-2.2638
X7.4606Y-3.248
X7.4606Y-4.0354
X7.4606Y-6.2795
X7.5Y-2.4606
X7.5Y-2.6181
X7.5Y-3.3268
X7.5Y-3.7992
X7.5Y-4.1929
X7.5Y-5.2953
X7.5Y-5.4134
X7.5Y-5.7677
X7.5394Y-3.9173
X7.5394Y-4.5866
X7.5394Y-5.6102
X7.5394Y-5.9646
X7.5787Y-1.5157
X7.5787Y-2.3031
X7.5787Y-3.563
X7.5787Y-4.9016
X7.5787Y-5.0591
X7.5787Y-6.2402
X7.6181Y-1.5945
X7.6181Y-1.752
X7.6181Y-1.9094
X7.6181Y-2.0669
X7.6181Y-2.185
X7.6181Y-2.4213
X7.6181Y-2.5
X7.6181Y-2.7756
X7.6181Y-2.9724
X7.6181Y-3.1693
X7.6181Y-3.3661
X7.6181Y-3.7205
X7.6181Y-3.8386
X7.6181Y-3.9961
X7.6181Y-4.0748
X7.6181Y-4.3504
X7.6181Y-4.5079
X7.6181Y-4.7047
X7.6181Y-4.8622
X7.6181Y-5.0197
X7.6181Y-5.1772
X7.6181Y-5.2953
X7.6181Y-5.4134
X7.6181Y-5.5315
X7.6181Y-5.6102
X7.6181Y-5.8071
X7.6181Y-5.9252
X7.6181Y-6.0433
X7.6181Y-6.1614
T2
X2.3449Y-1.5945
X2.4236Y-2.2756
X2.4236Y-2.3756
X2.4236Y-2.5969
X2.4236Y-2.6969
X2.4236Y-2.7969
X2.4236Y-2.8969
X2.4236Y-3.118
X2.4236Y-3.218
X2.4236Y-3.318
X2.4236Y-3.418
X2.5449Y-1.5945
X2.6236Y-2.2756
X2.6236Y-2.3756
X2.6236Y-2.5969
X2.6236Y-2.6969
X2.6236Y-2.7969
X2.6236Y-2.8969
X2.6236Y-3.118
X2.6236Y-3.218
X2.6236Y-3.318
X2.6236Y-3.418
X5.1Y-3.9551
X5.1Y-4.1551
X5.1Y-4.2323
X5.1Y-4.4323
X5.4055Y-4.4984
X5.4055Y-4.6984
X5.4315Y-3.8884
X5.4315Y-4.2126
X5.4921Y-4.4984
X5.4921Y-4.6984
X5.6315Y-3.8884
X5.6315Y-4.2126
X5.8583Y-4.4961
X5.8583Y-4.6961
X5.9449Y-4.4961
X5.9449Y-4.6961
X6.311Y-4.5063
X6.311Y-4.7063
X6.3976Y-4.5063
X6.3976Y-4.7063
T3
X5.4Y-4.8406
X5.4Y-5.0315
X5.45Y-4.8406
X5.45Y-5.0315
X5.5Y-4.8406
X5.5Y-5.0315
X5.8523Y-4.8362
X5.8523Y-5.0315
X5.9023Y-4.8362
X5.9023Y-5.0315
X5.9523Y-4.8362
X5.9523Y-5.0315
X6.3046Y-4.8374
X6.3046Y-5.0315
X6.3546Y-4.8374
X6.3546Y-5.0315
X6.4046Y-4.8374
X6.4046Y-5.0315
T4
X2.8102Y-2.5969
X2.8102Y-2.6969
X2.8102Y-2.7969
X2.8102Y-2.8969
X2.8102Y-3.118
X2.8102Y-3.218
X2.8102Y-3.318
X2.8102Y-3.418
X2.811Y-2.2756
X2.811Y-2.3756
X3.1102Y-2.5969
X3.1102Y-2.6969
X3.1102Y-2.7969
X3.1102Y-2.8969
X3.1102Y-3.118
X3.1102Y-3.218
X3.1102Y-3.318
X3.1102Y-3.418
X3.111Y-2.2756
X3.111Y-2.3756
X5.9606Y-2.8268
X5.9606Y-2.9252
X5.9646Y-2.087
X5.9646Y-2.1854
X5.9646Y-2.315
X5.9646Y-2.4134
X6.189Y-2.8268
X6.189Y-2.9252
X6.299Y-3.3169
X6.299Y-3.4153
X6.6343Y-5.4094
X6.6693Y-5.5866
X6.6693Y-5.685
X6.7327Y-5.4094
X6.8386Y-4.6063
X6.8386Y-4.7047
X6.8543Y-5.1339
X6.8543Y-5.2323
X6.8579Y-5.4094
X6.9154Y-5.5866
X6.9154Y-5.685
X6.9563Y-5.4094
X7.0748Y-4.6063
X7.0748Y-4.7047
T5
X5.2756Y-3.9852
X5.2756Y-4.0852
X5.2756Y-4.2415
X5.2756Y-4.3415
T6
X2.2756Y-5.0384
X2.374Y-5.0384
X2.4724Y-5.0384
X2.8268Y-5.0384
X2.9252Y-5.0384
X3.0236Y-5.0384
X3.5276Y-5.0286
X3.626Y-5.0286
X3.7244Y-5.0286
X3.8228Y-5.0286
X4.2067Y-5.0286
X4.3051Y-5.0286
X4.4035Y-5.0286
X4.502Y-5.0286
X4.8799Y-5.0286
X4.9783Y-5.0286
X5.0768Y-5.0286
X5.1752Y-5.0286
T7
X1.9055Y-4.4244
X1.9055Y-4.5244
X1.9055Y-4.6244
X1.9055Y-4.7244
X1.9055Y-4.8244
X2.0063Y-2.5528
X2.0063Y-2.6528
X2.0063Y-2.7528
X2.0063Y-2.8528
X2.0063Y-2.9528
X2.0063Y-3.0528
X2.0063Y-3.1528
X2.0063Y-3.2528
X2.0472Y-4.4244
X2.0472Y-4.5244
X2.0472Y-4.6244
X2.0472Y-4.7244
X2.0472Y-4.8244
X2.1063Y-2.5528
X2.1063Y-2.6528
X2.1063Y-2.7528
X2.1063Y-2.8528
X2.1063Y-2.9528
X2.1063Y-3.0528
X2.1063Y-3.1528
X2.1063Y-3.2528
X2.189Y-4.4244
X2.189Y-4.5244
X2.189Y-4.6244
X2.189Y-4.7244
X2.189Y-4.8244
X2.4606Y-4.4238
X2.4606Y-4.5238
X2.4606Y-4.6238
X2.4606Y-4.7238
X2.4606Y-4.8238
X2.6024Y-4.4238
X2.6024Y-4.5238
X2.6024Y-4.6238
X2.6024Y-4.7238
X2.6024Y-4.8238
X2.7441Y-4.4238
X2.7441Y-4.5238
X2.7441Y-4.6238
X2.7441Y-4.7238
X2.7441Y-4.8238
X2.7805Y-1.5935
X2.8805Y-1.5935
X2.9094Y-4.426
X2.9094Y-4.526
X2.9094Y-4.626
X2.9094Y-4.726
X2.9094Y-4.826
X2.9805Y-1.5935
X3.0512Y-4.426
X3.0512Y-4.526
X3.0512Y-4.626
X3.0512Y-4.726
X3.0512Y-4.826
X3.0805Y-1.5935
X3.1805Y-1.5935
X3.1929Y-4.426
X3.1929Y-4.526
X3.1929Y-4.626
X3.1929Y-4.726
X3.1929Y-4.826
X3.2293Y-3.6683
X3.2293Y-3.7683
X3.2293Y-3.8683
X3.2293Y-3.9683
X3.2293Y-4.0683
X3.2293Y-4.1683
X3.2805Y-1.5935
X3.3805Y-1.5935
X3.4449Y-2.2795
X3.4764Y-2.5394
X3.4764Y-2.6496
X3.4805Y-1.5935
X3.563Y-2.8583
X3.563Y-3.0118
X3.8937Y-4.3496
X3.8937Y-4.4496
X3.8937Y-4.5496
X3.8937Y-4.6496
X3.8937Y-4.7496
X3.9134Y-1.9803
X3.9134Y-2.0803
X3.9134Y-2.1803
X3.9134Y-2.2803
X3.9134Y-2.3803
X3.9134Y-2.4803
X3.9134Y-2.5803
X3.9134Y-2.6803
X3.9134Y-2.7803
X3.9134Y-2.8803
X3.9134Y-2.9803
X3.9134Y-3.0803
X3.9134Y-3.1803
X3.9134Y-3.2803
X3.9134Y-3.3803
X3.9134Y-3.4803
X3.9134Y-3.5803
X3.9134Y-3.6803
X3.9134Y-3.7803
X4.0744Y-4.3496
X4.0744Y-4.4496
X4.0744Y-4.5496
X4.0744Y-4.6496
X4.0744Y-4.7496
X4.2551Y-4.3496
X4.2551Y-4.4496
X4.2551Y-4.5496
X4.2551Y-4.6496
X4.2551Y-4.7496
X4.4358Y-4.3496
X4.4358Y-4.4496
X4.4358Y-4.5496
X4.4358Y-4.6496
X4.4358Y-4.7496
X4.6165Y-4.3496
X4.6165Y-4.4496
X4.6165Y-4.5496
X4.6165Y-4.6496
X4.6165Y-4.7496
X4.7972Y-4.3496
X4.7972Y-4.4496
X4.7972Y-4.5496
X4.7972Y-4.6496
X4.7972Y-4.7496
X5.2795Y-1.9803
X5.2795Y-2.0803
X5.2795Y-2.1803
X5.2795Y-2.2803
X5.2795Y-2.3803
X5.2795Y-2.4803
X5.2795Y-2.5803
X5.2795Y-2.6803
X5.2795Y-2.7803
X5.2795Y-2.8803
X5.2795Y-2.9803
X5.2795Y-3.0803
X5.2795Y-3.1803
X5.2795Y-3.2803
X5.2795Y-3.3803
X5.2795Y-3.4803
X5.2795Y-3.5803
X5.2795Y-3.6803
X5.2795Y-3.7803
X5.6181Y-3.2717
X5.6732Y-2.1612
X5.6732Y-2.4134
X5.6732Y-2.5551
X5.8622Y-3.2795
X6.2264Y-2.0902
X6.2264Y-2.1902
X6.2264Y-2.2902
X6.2264Y-2.3902
X6.2264Y-2.4902
X6.3264Y-2.0902
X6.3264Y-2.1902
X6.3264Y-2.2902
X6.3264Y-2.3902
X6.3264Y-2.4902
X6.4843Y-2.0902
X6.4843Y-2.1902
X6.4843Y-2.2902
X6.4843Y-2.3902
X6.4843Y-2.4902
X6.5549Y-3.3236
X6.5549Y-3.4236
X6.5549Y-3.5236
X6.5587Y-2.7252
X6.5587Y-2.8252
X6.5587Y-2.9252
X6.5587Y-3.0252
X6.5843Y-2.0902
X6.5843Y-2.1902
X6.5843Y-2.2902
X6.5843Y-2.3902
X6.5843Y-2.4902
X6.8118Y-5.0039
X6.9118Y-5.0039
X7.0118Y-5.0039
X7.2638Y-4.4638
X7.2638Y-4.5638
X7.2638Y-4.6638
X7.2638Y-4.7638
T8
X4.1062Y-1.9803
X4.1062Y-2.0803
X4.1062Y-2.1803
X4.1062Y-2.2803
X4.1062Y-2.3803
X4.1062Y-2.4803
X4.1062Y-2.5803
X4.1062Y-2.6803
X4.1062Y-2.7803
X4.1062Y-2.8803
X4.1062Y-2.9803
X4.1062Y-3.0803
X4.1062Y-3.1803
X4.1062Y-3.2803
X4.1062Y-3.3803
X4.1062Y-3.4803
X4.1062Y-3.5803
X4.1062Y-3.6803
X4.1062Y-3.7803
X5.1062Y-1.9803
X5.1062Y-2.0803
X5.1062Y-2.1803
X5.1062Y-2.2803
X5.1062Y-2.3803
X5.1062Y-2.4803
X5.1062Y-2.5803
X5.1062Y-2.6803
X5.1062Y-2.7803
X5.1062Y-2.8803
X5.1062Y-2.9803
X5.1062Y-3.0803
X5.1062Y-3.1803
X5.1062Y-3.2803
X5.1062Y-3.3803
X5.1062Y-3.4803
X5.1062Y-3.5803
X5.1062Y-3.6803
X5.1062Y-3.7803
T9
X5.6378Y-4.8315
X5.6378Y-4.9315
X5.6378Y-5.0315
X5.7382Y-4.124
X5.7382Y-4.3012
X5.7421Y-3.7106
X5.7421Y-3.8878
X5.9941Y-4.124
X5.9941Y-4.3012
X5.998Y-3.7106
X5.998Y-3.8878
X6.0906Y-4.8315
X6.0906Y-4.9315
X6.0906Y-5.0315
X6.5433Y-4.8323
X6.5433Y-4.9323
X6.5433Y-5.0323
T10
X2.2402Y-5.3543
X2.378Y-5.3543
X2.5157Y-5.3543
X2.7874Y-5.3543
X2.9252Y-5.3543
X3.063Y-5.3543
X3.4764Y-5.3543
X3.6142Y-5.3543
X3.752Y-5.3543
X3.8898Y-5.3543
X4.1437Y-5.3543
X4.2815Y-5.3543
X4.4193Y-5.3543
X4.5571Y-5.3543
X4.9587Y-5.3543
X5.0965Y-5.3543
X5.5059Y-5.3532
X5.6437Y-5.3532
X5.9173Y-5.3532
X6.0551Y-5.3532
X6.2205Y-3.75
X6.2205Y-3.8878
X6.2205Y-4.1732
X6.2205Y-4.311
X6.3287Y-5.3532
X6.4665Y-5.3532
X7.126Y-4.1142
X7.126Y-4.252
T4
G00X7.0965Y-5.3583
M15
G01X7.0965Y-5.2559
M16
G05
G00X7.2579Y-5.1181
M15
G01X7.1713Y-5.1181
M16
G05
G00X7.3248Y-5.3504
M15
G01X7.3248Y-5.2638
M16
G05
M30
