%TF.GenerationSoftware,KiCad,Pcbnew,9.0.4*%
%TF.CreationDate,2025-08-27T10:43:00+02:00*%
%TF.ProjectId,ICU_festiwal,4943555f-6665-4737-9469-77616c2e6b69,V1.0*%
%TF.SameCoordinates,Original*%
%TF.FileFunction,Soldermask,Bot*%
%TF.FilePolarity,Negative*%
%FSLAX46Y46*%
G04 Gerber Fmt 4.6, Leading zero omitted, Abs format (unit mm)*
G04 Created by KiCad (PCBNEW 9.0.4) date 2025-08-27 10:43:00*
%MOMM*%
%LPD*%
G01*
G04 APERTURE LIST*
G04 Aperture macros list*
%AMRoundRect*
0 Rectangle with rounded corners*
0 $1 Rounding radius*
0 $2 $3 $4 $5 $6 $7 $8 $9 X,Y pos of 4 corners*
0 Add a 4 corners polygon primitive as box body*
4,1,4,$2,$3,$4,$5,$6,$7,$8,$9,$2,$3,0*
0 Add four circle primitives for the rounded corners*
1,1,$1+$1,$2,$3*
1,1,$1+$1,$4,$5*
1,1,$1+$1,$6,$7*
1,1,$1+$1,$8,$9*
0 Add four rect primitives between the rounded corners*
20,1,$1+$1,$2,$3,$4,$5,0*
20,1,$1+$1,$4,$5,$6,$7,0*
20,1,$1+$1,$6,$7,$8,$9,0*
20,1,$1+$1,$8,$9,$2,$3,0*%
G04 Aperture macros list end*
%ADD10C,0.100000*%
%ADD11C,0.150000*%
%ADD12C,0.300000*%
%ADD13C,0.400000*%
%ADD14C,1.400000*%
%ADD15R,1.700000X1.700000*%
%ADD16C,1.700000*%
%ADD17RoundRect,0.250001X0.949999X-0.949999X0.949999X0.949999X-0.949999X0.949999X-0.949999X-0.949999X0*%
%ADD18C,2.400000*%
%ADD19RoundRect,0.102000X-0.765000X-0.765000X0.765000X-0.765000X0.765000X0.765000X-0.765000X0.765000X0*%
%ADD20C,1.734000*%
%ADD21RoundRect,0.250000X-0.600000X-0.725000X0.600000X-0.725000X0.600000X0.725000X-0.600000X0.725000X0*%
%ADD22O,1.700000X1.950000*%
%ADD23RoundRect,0.250000X0.550000X-0.550000X0.550000X0.550000X-0.550000X0.550000X-0.550000X-0.550000X0*%
%ADD24C,1.600000*%
%ADD25R,1.050000X1.500000*%
%ADD26O,1.050000X1.500000*%
%ADD27C,3.200000*%
%ADD28RoundRect,0.250000X-0.550000X-0.550000X0.550000X-0.550000X0.550000X0.550000X-0.550000X0.550000X0*%
%ADD29RoundRect,0.250001X-0.949999X-0.949999X0.949999X-0.949999X0.949999X0.949999X-0.949999X0.949999X0*%
%ADD30R,2.000000X1.905000*%
%ADD31O,2.000000X1.905000*%
%ADD32R,1.800000X4.400000*%
%ADD33O,1.800000X4.000000*%
%ADD34O,4.000000X1.800000*%
%ADD35RoundRect,0.250000X-0.550000X0.550000X-0.550000X-0.550000X0.550000X-0.550000X0.550000X0.550000X0*%
%ADD36RoundRect,0.250000X-0.600000X-0.600000X0.600000X-0.600000X0.600000X0.600000X-0.600000X0.600000X0*%
%ADD37R,1.800000X1.800000*%
%ADD38C,1.800000*%
%ADD39C,2.000000*%
%ADD40RoundRect,0.250000X0.550000X0.550000X-0.550000X0.550000X-0.550000X-0.550000X0.550000X-0.550000X0*%
%TA.AperFunction,Profile*%
%ADD41C,0.050000*%
%TD*%
G04 APERTURE END LIST*
D10*
D11*
X177002200Y-166007200D02*
X285002200Y-166007200D01*
X285002200Y-198007200D01*
X177002200Y-198007200D01*
X177002200Y-166007200D01*
D10*
D11*
X10000000Y-10000000D02*
X287002200Y-10000000D01*
X287002200Y-200007200D01*
X10000000Y-200007200D01*
X10000000Y-10000000D01*
D10*
D11*
X12000000Y-12000000D02*
X285002200Y-12000000D01*
X285002200Y-198007200D01*
X12000000Y-198007200D01*
X12000000Y-12000000D01*
D10*
D11*
X60000000Y-12000000D02*
X60000000Y-10000000D01*
D10*
D11*
X110000000Y-12000000D02*
X110000000Y-10000000D01*
D10*
D11*
X160000000Y-12000000D02*
X160000000Y-10000000D01*
D10*
D11*
X210000000Y-12000000D02*
X210000000Y-10000000D01*
D10*
D11*
X260000000Y-12000000D02*
X260000000Y-10000000D01*
D10*
D11*
X36089160Y-11593604D02*
X35346303Y-11593604D01*
X35717731Y-11593604D02*
X35717731Y-10293604D01*
X35717731Y-10293604D02*
X35593922Y-10479319D01*
X35593922Y-10479319D02*
X35470112Y-10603128D01*
X35470112Y-10603128D02*
X35346303Y-10665033D01*
D10*
D11*
X85346303Y-10417414D02*
X85408207Y-10355509D01*
X85408207Y-10355509D02*
X85532017Y-10293604D01*
X85532017Y-10293604D02*
X85841541Y-10293604D01*
X85841541Y-10293604D02*
X85965350Y-10355509D01*
X85965350Y-10355509D02*
X86027255Y-10417414D01*
X86027255Y-10417414D02*
X86089160Y-10541223D01*
X86089160Y-10541223D02*
X86089160Y-10665033D01*
X86089160Y-10665033D02*
X86027255Y-10850747D01*
X86027255Y-10850747D02*
X85284398Y-11593604D01*
X85284398Y-11593604D02*
X86089160Y-11593604D01*
D10*
D11*
X135284398Y-10293604D02*
X136089160Y-10293604D01*
X136089160Y-10293604D02*
X135655826Y-10788842D01*
X135655826Y-10788842D02*
X135841541Y-10788842D01*
X135841541Y-10788842D02*
X135965350Y-10850747D01*
X135965350Y-10850747D02*
X136027255Y-10912652D01*
X136027255Y-10912652D02*
X136089160Y-11036461D01*
X136089160Y-11036461D02*
X136089160Y-11345985D01*
X136089160Y-11345985D02*
X136027255Y-11469795D01*
X136027255Y-11469795D02*
X135965350Y-11531700D01*
X135965350Y-11531700D02*
X135841541Y-11593604D01*
X135841541Y-11593604D02*
X135470112Y-11593604D01*
X135470112Y-11593604D02*
X135346303Y-11531700D01*
X135346303Y-11531700D02*
X135284398Y-11469795D01*
D10*
D11*
X185965350Y-10726938D02*
X185965350Y-11593604D01*
X185655826Y-10231700D02*
X185346303Y-11160271D01*
X185346303Y-11160271D02*
X186151064Y-11160271D01*
D10*
D11*
X236027255Y-10293604D02*
X235408207Y-10293604D01*
X235408207Y-10293604D02*
X235346303Y-10912652D01*
X235346303Y-10912652D02*
X235408207Y-10850747D01*
X235408207Y-10850747D02*
X235532017Y-10788842D01*
X235532017Y-10788842D02*
X235841541Y-10788842D01*
X235841541Y-10788842D02*
X235965350Y-10850747D01*
X235965350Y-10850747D02*
X236027255Y-10912652D01*
X236027255Y-10912652D02*
X236089160Y-11036461D01*
X236089160Y-11036461D02*
X236089160Y-11345985D01*
X236089160Y-11345985D02*
X236027255Y-11469795D01*
X236027255Y-11469795D02*
X235965350Y-11531700D01*
X235965350Y-11531700D02*
X235841541Y-11593604D01*
X235841541Y-11593604D02*
X235532017Y-11593604D01*
X235532017Y-11593604D02*
X235408207Y-11531700D01*
X235408207Y-11531700D02*
X235346303Y-11469795D01*
D10*
D11*
X285965350Y-10293604D02*
X285717731Y-10293604D01*
X285717731Y-10293604D02*
X285593922Y-10355509D01*
X285593922Y-10355509D02*
X285532017Y-10417414D01*
X285532017Y-10417414D02*
X285408207Y-10603128D01*
X285408207Y-10603128D02*
X285346303Y-10850747D01*
X285346303Y-10850747D02*
X285346303Y-11345985D01*
X285346303Y-11345985D02*
X285408207Y-11469795D01*
X285408207Y-11469795D02*
X285470112Y-11531700D01*
X285470112Y-11531700D02*
X285593922Y-11593604D01*
X285593922Y-11593604D02*
X285841541Y-11593604D01*
X285841541Y-11593604D02*
X285965350Y-11531700D01*
X285965350Y-11531700D02*
X286027255Y-11469795D01*
X286027255Y-11469795D02*
X286089160Y-11345985D01*
X286089160Y-11345985D02*
X286089160Y-11036461D01*
X286089160Y-11036461D02*
X286027255Y-10912652D01*
X286027255Y-10912652D02*
X285965350Y-10850747D01*
X285965350Y-10850747D02*
X285841541Y-10788842D01*
X285841541Y-10788842D02*
X285593922Y-10788842D01*
X285593922Y-10788842D02*
X285470112Y-10850747D01*
X285470112Y-10850747D02*
X285408207Y-10912652D01*
X285408207Y-10912652D02*
X285346303Y-11036461D01*
D10*
D11*
X60000000Y-198007200D02*
X60000000Y-200007200D01*
D10*
D11*
X110000000Y-198007200D02*
X110000000Y-200007200D01*
D10*
D11*
X160000000Y-198007200D02*
X160000000Y-200007200D01*
D10*
D11*
X210000000Y-198007200D02*
X210000000Y-200007200D01*
D10*
D11*
X260000000Y-198007200D02*
X260000000Y-200007200D01*
D10*
D11*
X36089160Y-199600804D02*
X35346303Y-199600804D01*
X35717731Y-199600804D02*
X35717731Y-198300804D01*
X35717731Y-198300804D02*
X35593922Y-198486519D01*
X35593922Y-198486519D02*
X35470112Y-198610328D01*
X35470112Y-198610328D02*
X35346303Y-198672233D01*
D10*
D11*
X85346303Y-198424614D02*
X85408207Y-198362709D01*
X85408207Y-198362709D02*
X85532017Y-198300804D01*
X85532017Y-198300804D02*
X85841541Y-198300804D01*
X85841541Y-198300804D02*
X85965350Y-198362709D01*
X85965350Y-198362709D02*
X86027255Y-198424614D01*
X86027255Y-198424614D02*
X86089160Y-198548423D01*
X86089160Y-198548423D02*
X86089160Y-198672233D01*
X86089160Y-198672233D02*
X86027255Y-198857947D01*
X86027255Y-198857947D02*
X85284398Y-199600804D01*
X85284398Y-199600804D02*
X86089160Y-199600804D01*
D10*
D11*
X135284398Y-198300804D02*
X136089160Y-198300804D01*
X136089160Y-198300804D02*
X135655826Y-198796042D01*
X135655826Y-198796042D02*
X135841541Y-198796042D01*
X135841541Y-198796042D02*
X135965350Y-198857947D01*
X135965350Y-198857947D02*
X136027255Y-198919852D01*
X136027255Y-198919852D02*
X136089160Y-199043661D01*
X136089160Y-199043661D02*
X136089160Y-199353185D01*
X136089160Y-199353185D02*
X136027255Y-199476995D01*
X136027255Y-199476995D02*
X135965350Y-199538900D01*
X135965350Y-199538900D02*
X135841541Y-199600804D01*
X135841541Y-199600804D02*
X135470112Y-199600804D01*
X135470112Y-199600804D02*
X135346303Y-199538900D01*
X135346303Y-199538900D02*
X135284398Y-199476995D01*
D10*
D11*
X185965350Y-198734138D02*
X185965350Y-199600804D01*
X185655826Y-198238900D02*
X185346303Y-199167471D01*
X185346303Y-199167471D02*
X186151064Y-199167471D01*
D10*
D11*
X236027255Y-198300804D02*
X235408207Y-198300804D01*
X235408207Y-198300804D02*
X235346303Y-198919852D01*
X235346303Y-198919852D02*
X235408207Y-198857947D01*
X235408207Y-198857947D02*
X235532017Y-198796042D01*
X235532017Y-198796042D02*
X235841541Y-198796042D01*
X235841541Y-198796042D02*
X235965350Y-198857947D01*
X235965350Y-198857947D02*
X236027255Y-198919852D01*
X236027255Y-198919852D02*
X236089160Y-199043661D01*
X236089160Y-199043661D02*
X236089160Y-199353185D01*
X236089160Y-199353185D02*
X236027255Y-199476995D01*
X236027255Y-199476995D02*
X235965350Y-199538900D01*
X235965350Y-199538900D02*
X235841541Y-199600804D01*
X235841541Y-199600804D02*
X235532017Y-199600804D01*
X235532017Y-199600804D02*
X235408207Y-199538900D01*
X235408207Y-199538900D02*
X235346303Y-199476995D01*
D10*
D11*
X285965350Y-198300804D02*
X285717731Y-198300804D01*
X285717731Y-198300804D02*
X285593922Y-198362709D01*
X285593922Y-198362709D02*
X285532017Y-198424614D01*
X285532017Y-198424614D02*
X285408207Y-198610328D01*
X285408207Y-198610328D02*
X285346303Y-198857947D01*
X285346303Y-198857947D02*
X285346303Y-199353185D01*
X285346303Y-199353185D02*
X285408207Y-199476995D01*
X285408207Y-199476995D02*
X285470112Y-199538900D01*
X285470112Y-199538900D02*
X285593922Y-199600804D01*
X285593922Y-199600804D02*
X285841541Y-199600804D01*
X285841541Y-199600804D02*
X285965350Y-199538900D01*
X285965350Y-199538900D02*
X286027255Y-199476995D01*
X286027255Y-199476995D02*
X286089160Y-199353185D01*
X286089160Y-199353185D02*
X286089160Y-199043661D01*
X286089160Y-199043661D02*
X286027255Y-198919852D01*
X286027255Y-198919852D02*
X285965350Y-198857947D01*
X285965350Y-198857947D02*
X285841541Y-198796042D01*
X285841541Y-198796042D02*
X285593922Y-198796042D01*
X285593922Y-198796042D02*
X285470112Y-198857947D01*
X285470112Y-198857947D02*
X285408207Y-198919852D01*
X285408207Y-198919852D02*
X285346303Y-199043661D01*
D10*
D11*
X10000000Y-60000000D02*
X12000000Y-60000000D01*
D10*
D11*
X10000000Y-110000000D02*
X12000000Y-110000000D01*
D10*
D11*
X10000000Y-160000000D02*
X12000000Y-160000000D01*
D10*
D11*
X10690476Y-35222176D02*
X11309523Y-35222176D01*
X10566666Y-35593604D02*
X10999999Y-34293604D01*
X10999999Y-34293604D02*
X11433333Y-35593604D01*
D10*
D11*
X11092857Y-84912652D02*
X11278571Y-84974557D01*
X11278571Y-84974557D02*
X11340476Y-85036461D01*
X11340476Y-85036461D02*
X11402380Y-85160271D01*
X11402380Y-85160271D02*
X11402380Y-85345985D01*
X11402380Y-85345985D02*
X11340476Y-85469795D01*
X11340476Y-85469795D02*
X11278571Y-85531700D01*
X11278571Y-85531700D02*
X11154761Y-85593604D01*
X11154761Y-85593604D02*
X10659523Y-85593604D01*
X10659523Y-85593604D02*
X10659523Y-84293604D01*
X10659523Y-84293604D02*
X11092857Y-84293604D01*
X11092857Y-84293604D02*
X11216666Y-84355509D01*
X11216666Y-84355509D02*
X11278571Y-84417414D01*
X11278571Y-84417414D02*
X11340476Y-84541223D01*
X11340476Y-84541223D02*
X11340476Y-84665033D01*
X11340476Y-84665033D02*
X11278571Y-84788842D01*
X11278571Y-84788842D02*
X11216666Y-84850747D01*
X11216666Y-84850747D02*
X11092857Y-84912652D01*
X11092857Y-84912652D02*
X10659523Y-84912652D01*
D10*
D11*
X11402380Y-135469795D02*
X11340476Y-135531700D01*
X11340476Y-135531700D02*
X11154761Y-135593604D01*
X11154761Y-135593604D02*
X11030952Y-135593604D01*
X11030952Y-135593604D02*
X10845238Y-135531700D01*
X10845238Y-135531700D02*
X10721428Y-135407890D01*
X10721428Y-135407890D02*
X10659523Y-135284080D01*
X10659523Y-135284080D02*
X10597619Y-135036461D01*
X10597619Y-135036461D02*
X10597619Y-134850747D01*
X10597619Y-134850747D02*
X10659523Y-134603128D01*
X10659523Y-134603128D02*
X10721428Y-134479319D01*
X10721428Y-134479319D02*
X10845238Y-134355509D01*
X10845238Y-134355509D02*
X11030952Y-134293604D01*
X11030952Y-134293604D02*
X11154761Y-134293604D01*
X11154761Y-134293604D02*
X11340476Y-134355509D01*
X11340476Y-134355509D02*
X11402380Y-134417414D01*
D10*
D11*
X10659523Y-185593604D02*
X10659523Y-184293604D01*
X10659523Y-184293604D02*
X10969047Y-184293604D01*
X10969047Y-184293604D02*
X11154761Y-184355509D01*
X11154761Y-184355509D02*
X11278571Y-184479319D01*
X11278571Y-184479319D02*
X11340476Y-184603128D01*
X11340476Y-184603128D02*
X11402380Y-184850747D01*
X11402380Y-184850747D02*
X11402380Y-185036461D01*
X11402380Y-185036461D02*
X11340476Y-185284080D01*
X11340476Y-185284080D02*
X11278571Y-185407890D01*
X11278571Y-185407890D02*
X11154761Y-185531700D01*
X11154761Y-185531700D02*
X10969047Y-185593604D01*
X10969047Y-185593604D02*
X10659523Y-185593604D01*
D10*
D11*
X287002200Y-60000000D02*
X285002200Y-60000000D01*
D10*
D11*
X287002200Y-110000000D02*
X285002200Y-110000000D01*
D10*
D11*
X287002200Y-160000000D02*
X285002200Y-160000000D01*
D10*
D11*
X285692676Y-35222176D02*
X286311723Y-35222176D01*
X285568866Y-35593604D02*
X286002199Y-34293604D01*
X286002199Y-34293604D02*
X286435533Y-35593604D01*
D10*
D11*
X286095057Y-84912652D02*
X286280771Y-84974557D01*
X286280771Y-84974557D02*
X286342676Y-85036461D01*
X286342676Y-85036461D02*
X286404580Y-85160271D01*
X286404580Y-85160271D02*
X286404580Y-85345985D01*
X286404580Y-85345985D02*
X286342676Y-85469795D01*
X286342676Y-85469795D02*
X286280771Y-85531700D01*
X286280771Y-85531700D02*
X286156961Y-85593604D01*
X286156961Y-85593604D02*
X285661723Y-85593604D01*
X285661723Y-85593604D02*
X285661723Y-84293604D01*
X285661723Y-84293604D02*
X286095057Y-84293604D01*
X286095057Y-84293604D02*
X286218866Y-84355509D01*
X286218866Y-84355509D02*
X286280771Y-84417414D01*
X286280771Y-84417414D02*
X286342676Y-84541223D01*
X286342676Y-84541223D02*
X286342676Y-84665033D01*
X286342676Y-84665033D02*
X286280771Y-84788842D01*
X286280771Y-84788842D02*
X286218866Y-84850747D01*
X286218866Y-84850747D02*
X286095057Y-84912652D01*
X286095057Y-84912652D02*
X285661723Y-84912652D01*
D10*
D11*
X286404580Y-135469795D02*
X286342676Y-135531700D01*
X286342676Y-135531700D02*
X286156961Y-135593604D01*
X286156961Y-135593604D02*
X286033152Y-135593604D01*
X286033152Y-135593604D02*
X285847438Y-135531700D01*
X285847438Y-135531700D02*
X285723628Y-135407890D01*
X285723628Y-135407890D02*
X285661723Y-135284080D01*
X285661723Y-135284080D02*
X285599819Y-135036461D01*
X285599819Y-135036461D02*
X285599819Y-134850747D01*
X285599819Y-134850747D02*
X285661723Y-134603128D01*
X285661723Y-134603128D02*
X285723628Y-134479319D01*
X285723628Y-134479319D02*
X285847438Y-134355509D01*
X285847438Y-134355509D02*
X286033152Y-134293604D01*
X286033152Y-134293604D02*
X286156961Y-134293604D01*
X286156961Y-134293604D02*
X286342676Y-134355509D01*
X286342676Y-134355509D02*
X286404580Y-134417414D01*
D10*
D11*
X285661723Y-185593604D02*
X285661723Y-184293604D01*
X285661723Y-184293604D02*
X285971247Y-184293604D01*
X285971247Y-184293604D02*
X286156961Y-184355509D01*
X286156961Y-184355509D02*
X286280771Y-184479319D01*
X286280771Y-184479319D02*
X286342676Y-184603128D01*
X286342676Y-184603128D02*
X286404580Y-184850747D01*
X286404580Y-184850747D02*
X286404580Y-185036461D01*
X286404580Y-185036461D02*
X286342676Y-185284080D01*
X286342676Y-185284080D02*
X286280771Y-185407890D01*
X286280771Y-185407890D02*
X286156961Y-185531700D01*
X286156961Y-185531700D02*
X285971247Y-185593604D01*
X285971247Y-185593604D02*
X285661723Y-185593604D01*
D10*
D11*
X200458026Y-193793328D02*
X200458026Y-192293328D01*
X200458026Y-192293328D02*
X200815169Y-192293328D01*
X200815169Y-192293328D02*
X201029455Y-192364757D01*
X201029455Y-192364757D02*
X201172312Y-192507614D01*
X201172312Y-192507614D02*
X201243741Y-192650471D01*
X201243741Y-192650471D02*
X201315169Y-192936185D01*
X201315169Y-192936185D02*
X201315169Y-193150471D01*
X201315169Y-193150471D02*
X201243741Y-193436185D01*
X201243741Y-193436185D02*
X201172312Y-193579042D01*
X201172312Y-193579042D02*
X201029455Y-193721900D01*
X201029455Y-193721900D02*
X200815169Y-193793328D01*
X200815169Y-193793328D02*
X200458026Y-193793328D01*
X202600884Y-193793328D02*
X202600884Y-193007614D01*
X202600884Y-193007614D02*
X202529455Y-192864757D01*
X202529455Y-192864757D02*
X202386598Y-192793328D01*
X202386598Y-192793328D02*
X202100884Y-192793328D01*
X202100884Y-192793328D02*
X201958026Y-192864757D01*
X202600884Y-193721900D02*
X202458026Y-193793328D01*
X202458026Y-193793328D02*
X202100884Y-193793328D01*
X202100884Y-193793328D02*
X201958026Y-193721900D01*
X201958026Y-193721900D02*
X201886598Y-193579042D01*
X201886598Y-193579042D02*
X201886598Y-193436185D01*
X201886598Y-193436185D02*
X201958026Y-193293328D01*
X201958026Y-193293328D02*
X202100884Y-193221900D01*
X202100884Y-193221900D02*
X202458026Y-193221900D01*
X202458026Y-193221900D02*
X202600884Y-193150471D01*
X203100884Y-192793328D02*
X203672312Y-192793328D01*
X203315169Y-192293328D02*
X203315169Y-193579042D01*
X203315169Y-193579042D02*
X203386598Y-193721900D01*
X203386598Y-193721900D02*
X203529455Y-193793328D01*
X203529455Y-193793328D02*
X203672312Y-193793328D01*
X204743741Y-193721900D02*
X204600884Y-193793328D01*
X204600884Y-193793328D02*
X204315170Y-193793328D01*
X204315170Y-193793328D02*
X204172312Y-193721900D01*
X204172312Y-193721900D02*
X204100884Y-193579042D01*
X204100884Y-193579042D02*
X204100884Y-193007614D01*
X204100884Y-193007614D02*
X204172312Y-192864757D01*
X204172312Y-192864757D02*
X204315170Y-192793328D01*
X204315170Y-192793328D02*
X204600884Y-192793328D01*
X204600884Y-192793328D02*
X204743741Y-192864757D01*
X204743741Y-192864757D02*
X204815170Y-193007614D01*
X204815170Y-193007614D02*
X204815170Y-193150471D01*
X204815170Y-193150471D02*
X204100884Y-193293328D01*
X205458026Y-193650471D02*
X205529455Y-193721900D01*
X205529455Y-193721900D02*
X205458026Y-193793328D01*
X205458026Y-193793328D02*
X205386598Y-193721900D01*
X205386598Y-193721900D02*
X205458026Y-193650471D01*
X205458026Y-193650471D02*
X205458026Y-193793328D01*
X205458026Y-192864757D02*
X205529455Y-192936185D01*
X205529455Y-192936185D02*
X205458026Y-193007614D01*
X205458026Y-193007614D02*
X205386598Y-192936185D01*
X205386598Y-192936185D02*
X205458026Y-192864757D01*
X205458026Y-192864757D02*
X205458026Y-193007614D01*
X207243741Y-192436185D02*
X207315169Y-192364757D01*
X207315169Y-192364757D02*
X207458027Y-192293328D01*
X207458027Y-192293328D02*
X207815169Y-192293328D01*
X207815169Y-192293328D02*
X207958027Y-192364757D01*
X207958027Y-192364757D02*
X208029455Y-192436185D01*
X208029455Y-192436185D02*
X208100884Y-192579042D01*
X208100884Y-192579042D02*
X208100884Y-192721900D01*
X208100884Y-192721900D02*
X208029455Y-192936185D01*
X208029455Y-192936185D02*
X207172312Y-193793328D01*
X207172312Y-193793328D02*
X208100884Y-193793328D01*
X209029455Y-192293328D02*
X209172312Y-192293328D01*
X209172312Y-192293328D02*
X209315169Y-192364757D01*
X209315169Y-192364757D02*
X209386598Y-192436185D01*
X209386598Y-192436185D02*
X209458026Y-192579042D01*
X209458026Y-192579042D02*
X209529455Y-192864757D01*
X209529455Y-192864757D02*
X209529455Y-193221900D01*
X209529455Y-193221900D02*
X209458026Y-193507614D01*
X209458026Y-193507614D02*
X209386598Y-193650471D01*
X209386598Y-193650471D02*
X209315169Y-193721900D01*
X209315169Y-193721900D02*
X209172312Y-193793328D01*
X209172312Y-193793328D02*
X209029455Y-193793328D01*
X209029455Y-193793328D02*
X208886598Y-193721900D01*
X208886598Y-193721900D02*
X208815169Y-193650471D01*
X208815169Y-193650471D02*
X208743740Y-193507614D01*
X208743740Y-193507614D02*
X208672312Y-193221900D01*
X208672312Y-193221900D02*
X208672312Y-192864757D01*
X208672312Y-192864757D02*
X208743740Y-192579042D01*
X208743740Y-192579042D02*
X208815169Y-192436185D01*
X208815169Y-192436185D02*
X208886598Y-192364757D01*
X208886598Y-192364757D02*
X209029455Y-192293328D01*
X210100883Y-192436185D02*
X210172311Y-192364757D01*
X210172311Y-192364757D02*
X210315169Y-192293328D01*
X210315169Y-192293328D02*
X210672311Y-192293328D01*
X210672311Y-192293328D02*
X210815169Y-192364757D01*
X210815169Y-192364757D02*
X210886597Y-192436185D01*
X210886597Y-192436185D02*
X210958026Y-192579042D01*
X210958026Y-192579042D02*
X210958026Y-192721900D01*
X210958026Y-192721900D02*
X210886597Y-192936185D01*
X210886597Y-192936185D02*
X210029454Y-193793328D01*
X210029454Y-193793328D02*
X210958026Y-193793328D01*
X212315168Y-192293328D02*
X211600882Y-192293328D01*
X211600882Y-192293328D02*
X211529454Y-193007614D01*
X211529454Y-193007614D02*
X211600882Y-192936185D01*
X211600882Y-192936185D02*
X211743740Y-192864757D01*
X211743740Y-192864757D02*
X212100882Y-192864757D01*
X212100882Y-192864757D02*
X212243740Y-192936185D01*
X212243740Y-192936185D02*
X212315168Y-193007614D01*
X212315168Y-193007614D02*
X212386597Y-193150471D01*
X212386597Y-193150471D02*
X212386597Y-193507614D01*
X212386597Y-193507614D02*
X212315168Y-193650471D01*
X212315168Y-193650471D02*
X212243740Y-193721900D01*
X212243740Y-193721900D02*
X212100882Y-193793328D01*
X212100882Y-193793328D02*
X211743740Y-193793328D01*
X211743740Y-193793328D02*
X211600882Y-193721900D01*
X211600882Y-193721900D02*
X211529454Y-193650471D01*
X213029453Y-193221900D02*
X214172311Y-193221900D01*
X215172311Y-192293328D02*
X215315168Y-192293328D01*
X215315168Y-192293328D02*
X215458025Y-192364757D01*
X215458025Y-192364757D02*
X215529454Y-192436185D01*
X215529454Y-192436185D02*
X215600882Y-192579042D01*
X215600882Y-192579042D02*
X215672311Y-192864757D01*
X215672311Y-192864757D02*
X215672311Y-193221900D01*
X215672311Y-193221900D02*
X215600882Y-193507614D01*
X215600882Y-193507614D02*
X215529454Y-193650471D01*
X215529454Y-193650471D02*
X215458025Y-193721900D01*
X215458025Y-193721900D02*
X215315168Y-193793328D01*
X215315168Y-193793328D02*
X215172311Y-193793328D01*
X215172311Y-193793328D02*
X215029454Y-193721900D01*
X215029454Y-193721900D02*
X214958025Y-193650471D01*
X214958025Y-193650471D02*
X214886596Y-193507614D01*
X214886596Y-193507614D02*
X214815168Y-193221900D01*
X214815168Y-193221900D02*
X214815168Y-192864757D01*
X214815168Y-192864757D02*
X214886596Y-192579042D01*
X214886596Y-192579042D02*
X214958025Y-192436185D01*
X214958025Y-192436185D02*
X215029454Y-192364757D01*
X215029454Y-192364757D02*
X215172311Y-192293328D01*
X216529453Y-192936185D02*
X216386596Y-192864757D01*
X216386596Y-192864757D02*
X216315167Y-192793328D01*
X216315167Y-192793328D02*
X216243739Y-192650471D01*
X216243739Y-192650471D02*
X216243739Y-192579042D01*
X216243739Y-192579042D02*
X216315167Y-192436185D01*
X216315167Y-192436185D02*
X216386596Y-192364757D01*
X216386596Y-192364757D02*
X216529453Y-192293328D01*
X216529453Y-192293328D02*
X216815167Y-192293328D01*
X216815167Y-192293328D02*
X216958025Y-192364757D01*
X216958025Y-192364757D02*
X217029453Y-192436185D01*
X217029453Y-192436185D02*
X217100882Y-192579042D01*
X217100882Y-192579042D02*
X217100882Y-192650471D01*
X217100882Y-192650471D02*
X217029453Y-192793328D01*
X217029453Y-192793328D02*
X216958025Y-192864757D01*
X216958025Y-192864757D02*
X216815167Y-192936185D01*
X216815167Y-192936185D02*
X216529453Y-192936185D01*
X216529453Y-192936185D02*
X216386596Y-193007614D01*
X216386596Y-193007614D02*
X216315167Y-193079042D01*
X216315167Y-193079042D02*
X216243739Y-193221900D01*
X216243739Y-193221900D02*
X216243739Y-193507614D01*
X216243739Y-193507614D02*
X216315167Y-193650471D01*
X216315167Y-193650471D02*
X216386596Y-193721900D01*
X216386596Y-193721900D02*
X216529453Y-193793328D01*
X216529453Y-193793328D02*
X216815167Y-193793328D01*
X216815167Y-193793328D02*
X216958025Y-193721900D01*
X216958025Y-193721900D02*
X217029453Y-193650471D01*
X217029453Y-193650471D02*
X217100882Y-193507614D01*
X217100882Y-193507614D02*
X217100882Y-193221900D01*
X217100882Y-193221900D02*
X217029453Y-193079042D01*
X217029453Y-193079042D02*
X216958025Y-193007614D01*
X216958025Y-193007614D02*
X216815167Y-192936185D01*
X217743738Y-193221900D02*
X218886596Y-193221900D01*
X219886596Y-192293328D02*
X220029453Y-192293328D01*
X220029453Y-192293328D02*
X220172310Y-192364757D01*
X220172310Y-192364757D02*
X220243739Y-192436185D01*
X220243739Y-192436185D02*
X220315167Y-192579042D01*
X220315167Y-192579042D02*
X220386596Y-192864757D01*
X220386596Y-192864757D02*
X220386596Y-193221900D01*
X220386596Y-193221900D02*
X220315167Y-193507614D01*
X220315167Y-193507614D02*
X220243739Y-193650471D01*
X220243739Y-193650471D02*
X220172310Y-193721900D01*
X220172310Y-193721900D02*
X220029453Y-193793328D01*
X220029453Y-193793328D02*
X219886596Y-193793328D01*
X219886596Y-193793328D02*
X219743739Y-193721900D01*
X219743739Y-193721900D02*
X219672310Y-193650471D01*
X219672310Y-193650471D02*
X219600881Y-193507614D01*
X219600881Y-193507614D02*
X219529453Y-193221900D01*
X219529453Y-193221900D02*
X219529453Y-192864757D01*
X219529453Y-192864757D02*
X219600881Y-192579042D01*
X219600881Y-192579042D02*
X219672310Y-192436185D01*
X219672310Y-192436185D02*
X219743739Y-192364757D01*
X219743739Y-192364757D02*
X219886596Y-192293328D01*
X221672310Y-192793328D02*
X221672310Y-193793328D01*
X221315167Y-192221900D02*
X220958024Y-193293328D01*
X220958024Y-193293328D02*
X221886595Y-193293328D01*
D10*
D11*
X177002200Y-194507200D02*
X285002200Y-194507200D01*
D10*
D11*
X178458026Y-196593328D02*
X178458026Y-195093328D01*
X179315169Y-196593328D02*
X178672312Y-195736185D01*
X179315169Y-195093328D02*
X178458026Y-195950471D01*
X179958026Y-196593328D02*
X179958026Y-195593328D01*
X179958026Y-195093328D02*
X179886598Y-195164757D01*
X179886598Y-195164757D02*
X179958026Y-195236185D01*
X179958026Y-195236185D02*
X180029455Y-195164757D01*
X180029455Y-195164757D02*
X179958026Y-195093328D01*
X179958026Y-195093328D02*
X179958026Y-195236185D01*
X181529455Y-196450471D02*
X181458027Y-196521900D01*
X181458027Y-196521900D02*
X181243741Y-196593328D01*
X181243741Y-196593328D02*
X181100884Y-196593328D01*
X181100884Y-196593328D02*
X180886598Y-196521900D01*
X180886598Y-196521900D02*
X180743741Y-196379042D01*
X180743741Y-196379042D02*
X180672312Y-196236185D01*
X180672312Y-196236185D02*
X180600884Y-195950471D01*
X180600884Y-195950471D02*
X180600884Y-195736185D01*
X180600884Y-195736185D02*
X180672312Y-195450471D01*
X180672312Y-195450471D02*
X180743741Y-195307614D01*
X180743741Y-195307614D02*
X180886598Y-195164757D01*
X180886598Y-195164757D02*
X181100884Y-195093328D01*
X181100884Y-195093328D02*
X181243741Y-195093328D01*
X181243741Y-195093328D02*
X181458027Y-195164757D01*
X181458027Y-195164757D02*
X181529455Y-195236185D01*
X182815170Y-196593328D02*
X182815170Y-195807614D01*
X182815170Y-195807614D02*
X182743741Y-195664757D01*
X182743741Y-195664757D02*
X182600884Y-195593328D01*
X182600884Y-195593328D02*
X182315170Y-195593328D01*
X182315170Y-195593328D02*
X182172312Y-195664757D01*
X182815170Y-196521900D02*
X182672312Y-196593328D01*
X182672312Y-196593328D02*
X182315170Y-196593328D01*
X182315170Y-196593328D02*
X182172312Y-196521900D01*
X182172312Y-196521900D02*
X182100884Y-196379042D01*
X182100884Y-196379042D02*
X182100884Y-196236185D01*
X182100884Y-196236185D02*
X182172312Y-196093328D01*
X182172312Y-196093328D02*
X182315170Y-196021900D01*
X182315170Y-196021900D02*
X182672312Y-196021900D01*
X182672312Y-196021900D02*
X182815170Y-195950471D01*
X184172313Y-196593328D02*
X184172313Y-195093328D01*
X184172313Y-196521900D02*
X184029455Y-196593328D01*
X184029455Y-196593328D02*
X183743741Y-196593328D01*
X183743741Y-196593328D02*
X183600884Y-196521900D01*
X183600884Y-196521900D02*
X183529455Y-196450471D01*
X183529455Y-196450471D02*
X183458027Y-196307614D01*
X183458027Y-196307614D02*
X183458027Y-195879042D01*
X183458027Y-195879042D02*
X183529455Y-195736185D01*
X183529455Y-195736185D02*
X183600884Y-195664757D01*
X183600884Y-195664757D02*
X183743741Y-195593328D01*
X183743741Y-195593328D02*
X184029455Y-195593328D01*
X184029455Y-195593328D02*
X184172313Y-195664757D01*
X186029455Y-195807614D02*
X186529455Y-195807614D01*
X186743741Y-196593328D02*
X186029455Y-196593328D01*
X186029455Y-196593328D02*
X186029455Y-195093328D01*
X186029455Y-195093328D02*
X186743741Y-195093328D01*
X187386598Y-196450471D02*
X187458027Y-196521900D01*
X187458027Y-196521900D02*
X187386598Y-196593328D01*
X187386598Y-196593328D02*
X187315170Y-196521900D01*
X187315170Y-196521900D02*
X187386598Y-196450471D01*
X187386598Y-196450471D02*
X187386598Y-196593328D01*
X188100884Y-196593328D02*
X188100884Y-195093328D01*
X188100884Y-195093328D02*
X188458027Y-195093328D01*
X188458027Y-195093328D02*
X188672313Y-195164757D01*
X188672313Y-195164757D02*
X188815170Y-195307614D01*
X188815170Y-195307614D02*
X188886599Y-195450471D01*
X188886599Y-195450471D02*
X188958027Y-195736185D01*
X188958027Y-195736185D02*
X188958027Y-195950471D01*
X188958027Y-195950471D02*
X188886599Y-196236185D01*
X188886599Y-196236185D02*
X188815170Y-196379042D01*
X188815170Y-196379042D02*
X188672313Y-196521900D01*
X188672313Y-196521900D02*
X188458027Y-196593328D01*
X188458027Y-196593328D02*
X188100884Y-196593328D01*
X189600884Y-196450471D02*
X189672313Y-196521900D01*
X189672313Y-196521900D02*
X189600884Y-196593328D01*
X189600884Y-196593328D02*
X189529456Y-196521900D01*
X189529456Y-196521900D02*
X189600884Y-196450471D01*
X189600884Y-196450471D02*
X189600884Y-196593328D01*
X190243742Y-196164757D02*
X190958028Y-196164757D01*
X190100885Y-196593328D02*
X190600885Y-195093328D01*
X190600885Y-195093328D02*
X191100885Y-196593328D01*
X191600884Y-196450471D02*
X191672313Y-196521900D01*
X191672313Y-196521900D02*
X191600884Y-196593328D01*
X191600884Y-196593328D02*
X191529456Y-196521900D01*
X191529456Y-196521900D02*
X191600884Y-196450471D01*
X191600884Y-196450471D02*
X191600884Y-196593328D01*
X193529456Y-196593328D02*
X193815170Y-196593328D01*
X193815170Y-196593328D02*
X193958027Y-196521900D01*
X193958027Y-196521900D02*
X194029456Y-196450471D01*
X194029456Y-196450471D02*
X194172313Y-196236185D01*
X194172313Y-196236185D02*
X194243742Y-195950471D01*
X194243742Y-195950471D02*
X194243742Y-195379042D01*
X194243742Y-195379042D02*
X194172313Y-195236185D01*
X194172313Y-195236185D02*
X194100885Y-195164757D01*
X194100885Y-195164757D02*
X193958027Y-195093328D01*
X193958027Y-195093328D02*
X193672313Y-195093328D01*
X193672313Y-195093328D02*
X193529456Y-195164757D01*
X193529456Y-195164757D02*
X193458027Y-195236185D01*
X193458027Y-195236185D02*
X193386599Y-195379042D01*
X193386599Y-195379042D02*
X193386599Y-195736185D01*
X193386599Y-195736185D02*
X193458027Y-195879042D01*
X193458027Y-195879042D02*
X193529456Y-195950471D01*
X193529456Y-195950471D02*
X193672313Y-196021900D01*
X193672313Y-196021900D02*
X193958027Y-196021900D01*
X193958027Y-196021900D02*
X194100885Y-195950471D01*
X194100885Y-195950471D02*
X194172313Y-195879042D01*
X194172313Y-195879042D02*
X194243742Y-195736185D01*
X194886598Y-196450471D02*
X194958027Y-196521900D01*
X194958027Y-196521900D02*
X194886598Y-196593328D01*
X194886598Y-196593328D02*
X194815170Y-196521900D01*
X194815170Y-196521900D02*
X194886598Y-196450471D01*
X194886598Y-196450471D02*
X194886598Y-196593328D01*
X195886599Y-195093328D02*
X196029456Y-195093328D01*
X196029456Y-195093328D02*
X196172313Y-195164757D01*
X196172313Y-195164757D02*
X196243742Y-195236185D01*
X196243742Y-195236185D02*
X196315170Y-195379042D01*
X196315170Y-195379042D02*
X196386599Y-195664757D01*
X196386599Y-195664757D02*
X196386599Y-196021900D01*
X196386599Y-196021900D02*
X196315170Y-196307614D01*
X196315170Y-196307614D02*
X196243742Y-196450471D01*
X196243742Y-196450471D02*
X196172313Y-196521900D01*
X196172313Y-196521900D02*
X196029456Y-196593328D01*
X196029456Y-196593328D02*
X195886599Y-196593328D01*
X195886599Y-196593328D02*
X195743742Y-196521900D01*
X195743742Y-196521900D02*
X195672313Y-196450471D01*
X195672313Y-196450471D02*
X195600884Y-196307614D01*
X195600884Y-196307614D02*
X195529456Y-196021900D01*
X195529456Y-196021900D02*
X195529456Y-195664757D01*
X195529456Y-195664757D02*
X195600884Y-195379042D01*
X195600884Y-195379042D02*
X195672313Y-195236185D01*
X195672313Y-195236185D02*
X195743742Y-195164757D01*
X195743742Y-195164757D02*
X195886599Y-195093328D01*
X197029455Y-196450471D02*
X197100884Y-196521900D01*
X197100884Y-196521900D02*
X197029455Y-196593328D01*
X197029455Y-196593328D02*
X196958027Y-196521900D01*
X196958027Y-196521900D02*
X197029455Y-196450471D01*
X197029455Y-196450471D02*
X197029455Y-196593328D01*
X198386599Y-195593328D02*
X198386599Y-196593328D01*
X198029456Y-195021900D02*
X197672313Y-196093328D01*
X197672313Y-196093328D02*
X198600884Y-196093328D01*
D10*
D11*
X177002200Y-191507200D02*
X285002200Y-191507200D01*
D10*
D12*
X264413853Y-193785528D02*
X263913853Y-193071242D01*
X263556710Y-193785528D02*
X263556710Y-192285528D01*
X263556710Y-192285528D02*
X264128139Y-192285528D01*
X264128139Y-192285528D02*
X264270996Y-192356957D01*
X264270996Y-192356957D02*
X264342425Y-192428385D01*
X264342425Y-192428385D02*
X264413853Y-192571242D01*
X264413853Y-192571242D02*
X264413853Y-192785528D01*
X264413853Y-192785528D02*
X264342425Y-192928385D01*
X264342425Y-192928385D02*
X264270996Y-192999814D01*
X264270996Y-192999814D02*
X264128139Y-193071242D01*
X264128139Y-193071242D02*
X263556710Y-193071242D01*
X265628139Y-193714100D02*
X265485282Y-193785528D01*
X265485282Y-193785528D02*
X265199568Y-193785528D01*
X265199568Y-193785528D02*
X265056710Y-193714100D01*
X265056710Y-193714100D02*
X264985282Y-193571242D01*
X264985282Y-193571242D02*
X264985282Y-192999814D01*
X264985282Y-192999814D02*
X265056710Y-192856957D01*
X265056710Y-192856957D02*
X265199568Y-192785528D01*
X265199568Y-192785528D02*
X265485282Y-192785528D01*
X265485282Y-192785528D02*
X265628139Y-192856957D01*
X265628139Y-192856957D02*
X265699568Y-192999814D01*
X265699568Y-192999814D02*
X265699568Y-193142671D01*
X265699568Y-193142671D02*
X264985282Y-193285528D01*
X266199567Y-192785528D02*
X266556710Y-193785528D01*
X266556710Y-193785528D02*
X266913853Y-192785528D01*
X267485281Y-193642671D02*
X267556710Y-193714100D01*
X267556710Y-193714100D02*
X267485281Y-193785528D01*
X267485281Y-193785528D02*
X267413853Y-193714100D01*
X267413853Y-193714100D02*
X267485281Y-193642671D01*
X267485281Y-193642671D02*
X267485281Y-193785528D01*
X267485281Y-192856957D02*
X267556710Y-192928385D01*
X267556710Y-192928385D02*
X267485281Y-192999814D01*
X267485281Y-192999814D02*
X267413853Y-192928385D01*
X267413853Y-192928385D02*
X267485281Y-192856957D01*
X267485281Y-192856957D02*
X267485281Y-192999814D01*
X269128139Y-192285528D02*
X269628139Y-193785528D01*
X269628139Y-193785528D02*
X270128139Y-192285528D01*
X271413853Y-193785528D02*
X270556710Y-193785528D01*
X270985281Y-193785528D02*
X270985281Y-192285528D01*
X270985281Y-192285528D02*
X270842424Y-192499814D01*
X270842424Y-192499814D02*
X270699567Y-192642671D01*
X270699567Y-192642671D02*
X270556710Y-192714100D01*
X272056709Y-193642671D02*
X272128138Y-193714100D01*
X272128138Y-193714100D02*
X272056709Y-193785528D01*
X272056709Y-193785528D02*
X271985281Y-193714100D01*
X271985281Y-193714100D02*
X272056709Y-193642671D01*
X272056709Y-193642671D02*
X272056709Y-193785528D01*
X273056710Y-192285528D02*
X273199567Y-192285528D01*
X273199567Y-192285528D02*
X273342424Y-192356957D01*
X273342424Y-192356957D02*
X273413853Y-192428385D01*
X273413853Y-192428385D02*
X273485281Y-192571242D01*
X273485281Y-192571242D02*
X273556710Y-192856957D01*
X273556710Y-192856957D02*
X273556710Y-193214100D01*
X273556710Y-193214100D02*
X273485281Y-193499814D01*
X273485281Y-193499814D02*
X273413853Y-193642671D01*
X273413853Y-193642671D02*
X273342424Y-193714100D01*
X273342424Y-193714100D02*
X273199567Y-193785528D01*
X273199567Y-193785528D02*
X273056710Y-193785528D01*
X273056710Y-193785528D02*
X272913853Y-193714100D01*
X272913853Y-193714100D02*
X272842424Y-193642671D01*
X272842424Y-193642671D02*
X272770995Y-193499814D01*
X272770995Y-193499814D02*
X272699567Y-193214100D01*
X272699567Y-193214100D02*
X272699567Y-192856957D01*
X272699567Y-192856957D02*
X272770995Y-192571242D01*
X272770995Y-192571242D02*
X272842424Y-192428385D01*
X272842424Y-192428385D02*
X272913853Y-192356957D01*
X272913853Y-192356957D02*
X273056710Y-192285528D01*
D10*
D11*
X178386598Y-193721900D02*
X178600884Y-193793328D01*
X178600884Y-193793328D02*
X178958026Y-193793328D01*
X178958026Y-193793328D02*
X179100884Y-193721900D01*
X179100884Y-193721900D02*
X179172312Y-193650471D01*
X179172312Y-193650471D02*
X179243741Y-193507614D01*
X179243741Y-193507614D02*
X179243741Y-193364757D01*
X179243741Y-193364757D02*
X179172312Y-193221900D01*
X179172312Y-193221900D02*
X179100884Y-193150471D01*
X179100884Y-193150471D02*
X178958026Y-193079042D01*
X178958026Y-193079042D02*
X178672312Y-193007614D01*
X178672312Y-193007614D02*
X178529455Y-192936185D01*
X178529455Y-192936185D02*
X178458026Y-192864757D01*
X178458026Y-192864757D02*
X178386598Y-192721900D01*
X178386598Y-192721900D02*
X178386598Y-192579042D01*
X178386598Y-192579042D02*
X178458026Y-192436185D01*
X178458026Y-192436185D02*
X178529455Y-192364757D01*
X178529455Y-192364757D02*
X178672312Y-192293328D01*
X178672312Y-192293328D02*
X179029455Y-192293328D01*
X179029455Y-192293328D02*
X179243741Y-192364757D01*
X179886597Y-193793328D02*
X179886597Y-192793328D01*
X179886597Y-192293328D02*
X179815169Y-192364757D01*
X179815169Y-192364757D02*
X179886597Y-192436185D01*
X179886597Y-192436185D02*
X179958026Y-192364757D01*
X179958026Y-192364757D02*
X179886597Y-192293328D01*
X179886597Y-192293328D02*
X179886597Y-192436185D01*
X180458026Y-192793328D02*
X181243741Y-192793328D01*
X181243741Y-192793328D02*
X180458026Y-193793328D01*
X180458026Y-193793328D02*
X181243741Y-193793328D01*
X182386598Y-193721900D02*
X182243741Y-193793328D01*
X182243741Y-193793328D02*
X181958027Y-193793328D01*
X181958027Y-193793328D02*
X181815169Y-193721900D01*
X181815169Y-193721900D02*
X181743741Y-193579042D01*
X181743741Y-193579042D02*
X181743741Y-193007614D01*
X181743741Y-193007614D02*
X181815169Y-192864757D01*
X181815169Y-192864757D02*
X181958027Y-192793328D01*
X181958027Y-192793328D02*
X182243741Y-192793328D01*
X182243741Y-192793328D02*
X182386598Y-192864757D01*
X182386598Y-192864757D02*
X182458027Y-193007614D01*
X182458027Y-193007614D02*
X182458027Y-193150471D01*
X182458027Y-193150471D02*
X181743741Y-193293328D01*
X183100883Y-193650471D02*
X183172312Y-193721900D01*
X183172312Y-193721900D02*
X183100883Y-193793328D01*
X183100883Y-193793328D02*
X183029455Y-193721900D01*
X183029455Y-193721900D02*
X183100883Y-193650471D01*
X183100883Y-193650471D02*
X183100883Y-193793328D01*
X183100883Y-192864757D02*
X183172312Y-192936185D01*
X183172312Y-192936185D02*
X183100883Y-193007614D01*
X183100883Y-193007614D02*
X183029455Y-192936185D01*
X183029455Y-192936185D02*
X183100883Y-192864757D01*
X183100883Y-192864757D02*
X183100883Y-193007614D01*
X184886598Y-193364757D02*
X185600884Y-193364757D01*
X184743741Y-193793328D02*
X185243741Y-192293328D01*
X185243741Y-192293328D02*
X185743741Y-193793328D01*
X186886598Y-192793328D02*
X186886598Y-193793328D01*
X186529455Y-192221900D02*
X186172312Y-193293328D01*
X186172312Y-193293328D02*
X187100883Y-193293328D01*
D10*
D11*
X263458026Y-196593328D02*
X263458026Y-195093328D01*
X264815170Y-196593328D02*
X264815170Y-195093328D01*
X264815170Y-196521900D02*
X264672312Y-196593328D01*
X264672312Y-196593328D02*
X264386598Y-196593328D01*
X264386598Y-196593328D02*
X264243741Y-196521900D01*
X264243741Y-196521900D02*
X264172312Y-196450471D01*
X264172312Y-196450471D02*
X264100884Y-196307614D01*
X264100884Y-196307614D02*
X264100884Y-195879042D01*
X264100884Y-195879042D02*
X264172312Y-195736185D01*
X264172312Y-195736185D02*
X264243741Y-195664757D01*
X264243741Y-195664757D02*
X264386598Y-195593328D01*
X264386598Y-195593328D02*
X264672312Y-195593328D01*
X264672312Y-195593328D02*
X264815170Y-195664757D01*
X265529455Y-196450471D02*
X265600884Y-196521900D01*
X265600884Y-196521900D02*
X265529455Y-196593328D01*
X265529455Y-196593328D02*
X265458027Y-196521900D01*
X265458027Y-196521900D02*
X265529455Y-196450471D01*
X265529455Y-196450471D02*
X265529455Y-196593328D01*
X265529455Y-195664757D02*
X265600884Y-195736185D01*
X265600884Y-195736185D02*
X265529455Y-195807614D01*
X265529455Y-195807614D02*
X265458027Y-195736185D01*
X265458027Y-195736185D02*
X265529455Y-195664757D01*
X265529455Y-195664757D02*
X265529455Y-195807614D01*
X267600884Y-195736185D02*
X267458027Y-195664757D01*
X267458027Y-195664757D02*
X267386598Y-195593328D01*
X267386598Y-195593328D02*
X267315170Y-195450471D01*
X267315170Y-195450471D02*
X267315170Y-195379042D01*
X267315170Y-195379042D02*
X267386598Y-195236185D01*
X267386598Y-195236185D02*
X267458027Y-195164757D01*
X267458027Y-195164757D02*
X267600884Y-195093328D01*
X267600884Y-195093328D02*
X267886598Y-195093328D01*
X267886598Y-195093328D02*
X268029456Y-195164757D01*
X268029456Y-195164757D02*
X268100884Y-195236185D01*
X268100884Y-195236185D02*
X268172313Y-195379042D01*
X268172313Y-195379042D02*
X268172313Y-195450471D01*
X268172313Y-195450471D02*
X268100884Y-195593328D01*
X268100884Y-195593328D02*
X268029456Y-195664757D01*
X268029456Y-195664757D02*
X267886598Y-195736185D01*
X267886598Y-195736185D02*
X267600884Y-195736185D01*
X267600884Y-195736185D02*
X267458027Y-195807614D01*
X267458027Y-195807614D02*
X267386598Y-195879042D01*
X267386598Y-195879042D02*
X267315170Y-196021900D01*
X267315170Y-196021900D02*
X267315170Y-196307614D01*
X267315170Y-196307614D02*
X267386598Y-196450471D01*
X267386598Y-196450471D02*
X267458027Y-196521900D01*
X267458027Y-196521900D02*
X267600884Y-196593328D01*
X267600884Y-196593328D02*
X267886598Y-196593328D01*
X267886598Y-196593328D02*
X268029456Y-196521900D01*
X268029456Y-196521900D02*
X268100884Y-196450471D01*
X268100884Y-196450471D02*
X268172313Y-196307614D01*
X268172313Y-196307614D02*
X268172313Y-196021900D01*
X268172313Y-196021900D02*
X268100884Y-195879042D01*
X268100884Y-195879042D02*
X268029456Y-195807614D01*
X268029456Y-195807614D02*
X267886598Y-195736185D01*
X269886598Y-195021900D02*
X268600884Y-196950471D01*
X271172313Y-196593328D02*
X270315170Y-196593328D01*
X270743741Y-196593328D02*
X270743741Y-195093328D01*
X270743741Y-195093328D02*
X270600884Y-195307614D01*
X270600884Y-195307614D02*
X270458027Y-195450471D01*
X270458027Y-195450471D02*
X270315170Y-195521900D01*
X271743741Y-195236185D02*
X271815169Y-195164757D01*
X271815169Y-195164757D02*
X271958027Y-195093328D01*
X271958027Y-195093328D02*
X272315169Y-195093328D01*
X272315169Y-195093328D02*
X272458027Y-195164757D01*
X272458027Y-195164757D02*
X272529455Y-195236185D01*
X272529455Y-195236185D02*
X272600884Y-195379042D01*
X272600884Y-195379042D02*
X272600884Y-195521900D01*
X272600884Y-195521900D02*
X272529455Y-195736185D01*
X272529455Y-195736185D02*
X271672312Y-196593328D01*
X271672312Y-196593328D02*
X272600884Y-196593328D01*
D10*
D11*
X177002200Y-187507200D02*
X285002200Y-187507200D01*
D10*
D13*
X178693928Y-188211638D02*
X179836785Y-188211638D01*
X179015357Y-190211638D02*
X179265357Y-188211638D01*
X180253452Y-190211638D02*
X180420119Y-188878304D01*
X180503452Y-188211638D02*
X180396309Y-188306876D01*
X180396309Y-188306876D02*
X180479643Y-188402114D01*
X180479643Y-188402114D02*
X180586786Y-188306876D01*
X180586786Y-188306876D02*
X180503452Y-188211638D01*
X180503452Y-188211638D02*
X180479643Y-188402114D01*
X181086786Y-188878304D02*
X181848690Y-188878304D01*
X181455833Y-188211638D02*
X181241548Y-189925923D01*
X181241548Y-189925923D02*
X181312976Y-190116400D01*
X181312976Y-190116400D02*
X181491548Y-190211638D01*
X181491548Y-190211638D02*
X181682024Y-190211638D01*
X182634405Y-190211638D02*
X182455833Y-190116400D01*
X182455833Y-190116400D02*
X182384405Y-189925923D01*
X182384405Y-189925923D02*
X182598690Y-188211638D01*
X184170119Y-190116400D02*
X183967738Y-190211638D01*
X183967738Y-190211638D02*
X183586785Y-190211638D01*
X183586785Y-190211638D02*
X183408214Y-190116400D01*
X183408214Y-190116400D02*
X183336785Y-189925923D01*
X183336785Y-189925923D02*
X183432024Y-189164019D01*
X183432024Y-189164019D02*
X183551071Y-188973542D01*
X183551071Y-188973542D02*
X183753452Y-188878304D01*
X183753452Y-188878304D02*
X184134404Y-188878304D01*
X184134404Y-188878304D02*
X184312976Y-188973542D01*
X184312976Y-188973542D02*
X184384404Y-189164019D01*
X184384404Y-189164019D02*
X184360595Y-189354495D01*
X184360595Y-189354495D02*
X183384404Y-189544971D01*
X185134405Y-190021161D02*
X185217738Y-190116400D01*
X185217738Y-190116400D02*
X185110595Y-190211638D01*
X185110595Y-190211638D02*
X185027262Y-190116400D01*
X185027262Y-190116400D02*
X185134405Y-190021161D01*
X185134405Y-190021161D02*
X185110595Y-190211638D01*
X185265357Y-188973542D02*
X185348690Y-189068780D01*
X185348690Y-189068780D02*
X185241548Y-189164019D01*
X185241548Y-189164019D02*
X185158214Y-189068780D01*
X185158214Y-189068780D02*
X185265357Y-188973542D01*
X185265357Y-188973542D02*
X185241548Y-189164019D01*
X188384405Y-189164019D02*
X187717739Y-189164019D01*
X187586786Y-190211638D02*
X187836786Y-188211638D01*
X187836786Y-188211638D02*
X188789167Y-188211638D01*
X190074882Y-190116400D02*
X189872501Y-190211638D01*
X189872501Y-190211638D02*
X189491548Y-190211638D01*
X189491548Y-190211638D02*
X189312977Y-190116400D01*
X189312977Y-190116400D02*
X189241548Y-189925923D01*
X189241548Y-189925923D02*
X189336787Y-189164019D01*
X189336787Y-189164019D02*
X189455834Y-188973542D01*
X189455834Y-188973542D02*
X189658215Y-188878304D01*
X189658215Y-188878304D02*
X190039167Y-188878304D01*
X190039167Y-188878304D02*
X190217739Y-188973542D01*
X190217739Y-188973542D02*
X190289167Y-189164019D01*
X190289167Y-189164019D02*
X190265358Y-189354495D01*
X190265358Y-189354495D02*
X189289167Y-189544971D01*
X190932025Y-190116400D02*
X191110596Y-190211638D01*
X191110596Y-190211638D02*
X191491549Y-190211638D01*
X191491549Y-190211638D02*
X191693930Y-190116400D01*
X191693930Y-190116400D02*
X191812977Y-189925923D01*
X191812977Y-189925923D02*
X191824882Y-189830685D01*
X191824882Y-189830685D02*
X191753453Y-189640209D01*
X191753453Y-189640209D02*
X191574882Y-189544971D01*
X191574882Y-189544971D02*
X191289168Y-189544971D01*
X191289168Y-189544971D02*
X191110596Y-189449733D01*
X191110596Y-189449733D02*
X191039168Y-189259257D01*
X191039168Y-189259257D02*
X191051073Y-189164019D01*
X191051073Y-189164019D02*
X191170120Y-188973542D01*
X191170120Y-188973542D02*
X191372501Y-188878304D01*
X191372501Y-188878304D02*
X191658215Y-188878304D01*
X191658215Y-188878304D02*
X191836787Y-188973542D01*
X192515359Y-188878304D02*
X193277263Y-188878304D01*
X192884406Y-188211638D02*
X192670121Y-189925923D01*
X192670121Y-189925923D02*
X192741549Y-190116400D01*
X192741549Y-190116400D02*
X192920121Y-190211638D01*
X192920121Y-190211638D02*
X193110597Y-190211638D01*
X193777263Y-190211638D02*
X193943930Y-188878304D01*
X194027263Y-188211638D02*
X193920120Y-188306876D01*
X193920120Y-188306876D02*
X194003454Y-188402114D01*
X194003454Y-188402114D02*
X194110597Y-188306876D01*
X194110597Y-188306876D02*
X194027263Y-188211638D01*
X194027263Y-188211638D02*
X194003454Y-188402114D01*
X194705835Y-188878304D02*
X194920120Y-190211638D01*
X194920120Y-190211638D02*
X195420120Y-189259257D01*
X195420120Y-189259257D02*
X195682025Y-190211638D01*
X195682025Y-190211638D02*
X196229644Y-188878304D01*
X197682025Y-190211638D02*
X197812977Y-189164019D01*
X197812977Y-189164019D02*
X197741549Y-188973542D01*
X197741549Y-188973542D02*
X197562977Y-188878304D01*
X197562977Y-188878304D02*
X197182025Y-188878304D01*
X197182025Y-188878304D02*
X196979644Y-188973542D01*
X197693930Y-190116400D02*
X197491549Y-190211638D01*
X197491549Y-190211638D02*
X197015358Y-190211638D01*
X197015358Y-190211638D02*
X196836787Y-190116400D01*
X196836787Y-190116400D02*
X196765358Y-189925923D01*
X196765358Y-189925923D02*
X196789168Y-189735447D01*
X196789168Y-189735447D02*
X196908216Y-189544971D01*
X196908216Y-189544971D02*
X197110597Y-189449733D01*
X197110597Y-189449733D02*
X197586787Y-189449733D01*
X197586787Y-189449733D02*
X197789168Y-189354495D01*
X198920121Y-190211638D02*
X198741549Y-190116400D01*
X198741549Y-190116400D02*
X198670121Y-189925923D01*
X198670121Y-189925923D02*
X198884406Y-188211638D01*
X201122502Y-190116400D02*
X201396311Y-190211638D01*
X201396311Y-190211638D02*
X201872502Y-190211638D01*
X201872502Y-190211638D02*
X202074883Y-190116400D01*
X202074883Y-190116400D02*
X202182026Y-190021161D01*
X202182026Y-190021161D02*
X202301073Y-189830685D01*
X202301073Y-189830685D02*
X202324883Y-189640209D01*
X202324883Y-189640209D02*
X202253454Y-189449733D01*
X202253454Y-189449733D02*
X202170121Y-189354495D01*
X202170121Y-189354495D02*
X201991550Y-189259257D01*
X201991550Y-189259257D02*
X201622502Y-189164019D01*
X201622502Y-189164019D02*
X201443930Y-189068780D01*
X201443930Y-189068780D02*
X201360597Y-188973542D01*
X201360597Y-188973542D02*
X201289169Y-188783066D01*
X201289169Y-188783066D02*
X201312978Y-188592590D01*
X201312978Y-188592590D02*
X201432026Y-188402114D01*
X201432026Y-188402114D02*
X201539169Y-188306876D01*
X201539169Y-188306876D02*
X201741550Y-188211638D01*
X201741550Y-188211638D02*
X202217740Y-188211638D01*
X202217740Y-188211638D02*
X202491550Y-188306876D01*
X203086788Y-188878304D02*
X203301073Y-190211638D01*
X203301073Y-190211638D02*
X203801073Y-189259257D01*
X203801073Y-189259257D02*
X204062978Y-190211638D01*
X204062978Y-190211638D02*
X204610597Y-188878304D01*
X205205835Y-190211638D02*
X205372502Y-188878304D01*
X205455835Y-188211638D02*
X205348692Y-188306876D01*
X205348692Y-188306876D02*
X205432026Y-188402114D01*
X205432026Y-188402114D02*
X205539169Y-188306876D01*
X205539169Y-188306876D02*
X205455835Y-188211638D01*
X205455835Y-188211638D02*
X205432026Y-188402114D01*
X207015359Y-190211638D02*
X207146311Y-189164019D01*
X207146311Y-189164019D02*
X207074883Y-188973542D01*
X207074883Y-188973542D02*
X206896311Y-188878304D01*
X206896311Y-188878304D02*
X206515359Y-188878304D01*
X206515359Y-188878304D02*
X206312978Y-188973542D01*
X207027264Y-190116400D02*
X206824883Y-190211638D01*
X206824883Y-190211638D02*
X206348692Y-190211638D01*
X206348692Y-190211638D02*
X206170121Y-190116400D01*
X206170121Y-190116400D02*
X206098692Y-189925923D01*
X206098692Y-189925923D02*
X206122502Y-189735447D01*
X206122502Y-189735447D02*
X206241550Y-189544971D01*
X206241550Y-189544971D02*
X206443931Y-189449733D01*
X206443931Y-189449733D02*
X206920121Y-189449733D01*
X206920121Y-189449733D02*
X207122502Y-189354495D01*
X207848693Y-188878304D02*
X208610597Y-188878304D01*
X208217740Y-188211638D02*
X208003455Y-189925923D01*
X208003455Y-189925923D02*
X208074883Y-190116400D01*
X208074883Y-190116400D02*
X208253455Y-190211638D01*
X208253455Y-190211638D02*
X208443931Y-190211638D01*
X209396312Y-190211638D02*
X209217740Y-190116400D01*
X209217740Y-190116400D02*
X209146312Y-189925923D01*
X209146312Y-189925923D02*
X209360597Y-188211638D01*
X211015359Y-190211638D02*
X211146311Y-189164019D01*
X211146311Y-189164019D02*
X211074883Y-188973542D01*
X211074883Y-188973542D02*
X210896311Y-188878304D01*
X210896311Y-188878304D02*
X210515359Y-188878304D01*
X210515359Y-188878304D02*
X210312978Y-188973542D01*
X211027264Y-190116400D02*
X210824883Y-190211638D01*
X210824883Y-190211638D02*
X210348692Y-190211638D01*
X210348692Y-190211638D02*
X210170121Y-190116400D01*
X210170121Y-190116400D02*
X210098692Y-189925923D01*
X210098692Y-189925923D02*
X210122502Y-189735447D01*
X210122502Y-189735447D02*
X210241550Y-189544971D01*
X210241550Y-189544971D02*
X210443931Y-189449733D01*
X210443931Y-189449733D02*
X210920121Y-189449733D01*
X210920121Y-189449733D02*
X211122502Y-189354495D01*
D10*
D11*
X178958026Y-185607614D02*
X178458026Y-185607614D01*
X178458026Y-186393328D02*
X178458026Y-184893328D01*
X178458026Y-184893328D02*
X179172312Y-184893328D01*
X179743740Y-186393328D02*
X179743740Y-185393328D01*
X179743740Y-184893328D02*
X179672312Y-184964757D01*
X179672312Y-184964757D02*
X179743740Y-185036185D01*
X179743740Y-185036185D02*
X179815169Y-184964757D01*
X179815169Y-184964757D02*
X179743740Y-184893328D01*
X179743740Y-184893328D02*
X179743740Y-185036185D01*
X180672312Y-186393328D02*
X180529455Y-186321900D01*
X180529455Y-186321900D02*
X180458026Y-186179042D01*
X180458026Y-186179042D02*
X180458026Y-184893328D01*
X181815169Y-186321900D02*
X181672312Y-186393328D01*
X181672312Y-186393328D02*
X181386598Y-186393328D01*
X181386598Y-186393328D02*
X181243740Y-186321900D01*
X181243740Y-186321900D02*
X181172312Y-186179042D01*
X181172312Y-186179042D02*
X181172312Y-185607614D01*
X181172312Y-185607614D02*
X181243740Y-185464757D01*
X181243740Y-185464757D02*
X181386598Y-185393328D01*
X181386598Y-185393328D02*
X181672312Y-185393328D01*
X181672312Y-185393328D02*
X181815169Y-185464757D01*
X181815169Y-185464757D02*
X181886598Y-185607614D01*
X181886598Y-185607614D02*
X181886598Y-185750471D01*
X181886598Y-185750471D02*
X181172312Y-185893328D01*
X182529454Y-186250471D02*
X182600883Y-186321900D01*
X182600883Y-186321900D02*
X182529454Y-186393328D01*
X182529454Y-186393328D02*
X182458026Y-186321900D01*
X182458026Y-186321900D02*
X182529454Y-186250471D01*
X182529454Y-186250471D02*
X182529454Y-186393328D01*
X182529454Y-185464757D02*
X182600883Y-185536185D01*
X182600883Y-185536185D02*
X182529454Y-185607614D01*
X182529454Y-185607614D02*
X182458026Y-185536185D01*
X182458026Y-185536185D02*
X182529454Y-185464757D01*
X182529454Y-185464757D02*
X182529454Y-185607614D01*
X184386597Y-186393328D02*
X184386597Y-184893328D01*
X185958026Y-186250471D02*
X185886598Y-186321900D01*
X185886598Y-186321900D02*
X185672312Y-186393328D01*
X185672312Y-186393328D02*
X185529455Y-186393328D01*
X185529455Y-186393328D02*
X185315169Y-186321900D01*
X185315169Y-186321900D02*
X185172312Y-186179042D01*
X185172312Y-186179042D02*
X185100883Y-186036185D01*
X185100883Y-186036185D02*
X185029455Y-185750471D01*
X185029455Y-185750471D02*
X185029455Y-185536185D01*
X185029455Y-185536185D02*
X185100883Y-185250471D01*
X185100883Y-185250471D02*
X185172312Y-185107614D01*
X185172312Y-185107614D02*
X185315169Y-184964757D01*
X185315169Y-184964757D02*
X185529455Y-184893328D01*
X185529455Y-184893328D02*
X185672312Y-184893328D01*
X185672312Y-184893328D02*
X185886598Y-184964757D01*
X185886598Y-184964757D02*
X185958026Y-185036185D01*
X186600883Y-184893328D02*
X186600883Y-186107614D01*
X186600883Y-186107614D02*
X186672312Y-186250471D01*
X186672312Y-186250471D02*
X186743741Y-186321900D01*
X186743741Y-186321900D02*
X186886598Y-186393328D01*
X186886598Y-186393328D02*
X187172312Y-186393328D01*
X187172312Y-186393328D02*
X187315169Y-186321900D01*
X187315169Y-186321900D02*
X187386598Y-186250471D01*
X187386598Y-186250471D02*
X187458026Y-186107614D01*
X187458026Y-186107614D02*
X187458026Y-184893328D01*
X187815170Y-186536185D02*
X188958027Y-186536185D01*
X189100884Y-185393328D02*
X189672312Y-185393328D01*
X189315169Y-186393328D02*
X189315169Y-185107614D01*
X189315169Y-185107614D02*
X189386598Y-184964757D01*
X189386598Y-184964757D02*
X189529455Y-184893328D01*
X189529455Y-184893328D02*
X189672312Y-184893328D01*
X190743741Y-186321900D02*
X190600884Y-186393328D01*
X190600884Y-186393328D02*
X190315170Y-186393328D01*
X190315170Y-186393328D02*
X190172312Y-186321900D01*
X190172312Y-186321900D02*
X190100884Y-186179042D01*
X190100884Y-186179042D02*
X190100884Y-185607614D01*
X190100884Y-185607614D02*
X190172312Y-185464757D01*
X190172312Y-185464757D02*
X190315170Y-185393328D01*
X190315170Y-185393328D02*
X190600884Y-185393328D01*
X190600884Y-185393328D02*
X190743741Y-185464757D01*
X190743741Y-185464757D02*
X190815170Y-185607614D01*
X190815170Y-185607614D02*
X190815170Y-185750471D01*
X190815170Y-185750471D02*
X190100884Y-185893328D01*
X191386598Y-186321900D02*
X191529455Y-186393328D01*
X191529455Y-186393328D02*
X191815169Y-186393328D01*
X191815169Y-186393328D02*
X191958026Y-186321900D01*
X191958026Y-186321900D02*
X192029455Y-186179042D01*
X192029455Y-186179042D02*
X192029455Y-186107614D01*
X192029455Y-186107614D02*
X191958026Y-185964757D01*
X191958026Y-185964757D02*
X191815169Y-185893328D01*
X191815169Y-185893328D02*
X191600884Y-185893328D01*
X191600884Y-185893328D02*
X191458026Y-185821900D01*
X191458026Y-185821900D02*
X191386598Y-185679042D01*
X191386598Y-185679042D02*
X191386598Y-185607614D01*
X191386598Y-185607614D02*
X191458026Y-185464757D01*
X191458026Y-185464757D02*
X191600884Y-185393328D01*
X191600884Y-185393328D02*
X191815169Y-185393328D01*
X191815169Y-185393328D02*
X191958026Y-185464757D01*
X192458027Y-185393328D02*
X193029455Y-185393328D01*
X192672312Y-184893328D02*
X192672312Y-186179042D01*
X192672312Y-186179042D02*
X192743741Y-186321900D01*
X192743741Y-186321900D02*
X192886598Y-186393328D01*
X192886598Y-186393328D02*
X193029455Y-186393328D01*
X193529455Y-186393328D02*
X193529455Y-185393328D01*
X193529455Y-184893328D02*
X193458027Y-184964757D01*
X193458027Y-184964757D02*
X193529455Y-185036185D01*
X193529455Y-185036185D02*
X193600884Y-184964757D01*
X193600884Y-184964757D02*
X193529455Y-184893328D01*
X193529455Y-184893328D02*
X193529455Y-185036185D01*
X194100884Y-185393328D02*
X194386599Y-186393328D01*
X194386599Y-186393328D02*
X194672313Y-185679042D01*
X194672313Y-185679042D02*
X194958027Y-186393328D01*
X194958027Y-186393328D02*
X195243741Y-185393328D01*
X196458028Y-186393328D02*
X196458028Y-185607614D01*
X196458028Y-185607614D02*
X196386599Y-185464757D01*
X196386599Y-185464757D02*
X196243742Y-185393328D01*
X196243742Y-185393328D02*
X195958028Y-185393328D01*
X195958028Y-185393328D02*
X195815170Y-185464757D01*
X196458028Y-186321900D02*
X196315170Y-186393328D01*
X196315170Y-186393328D02*
X195958028Y-186393328D01*
X195958028Y-186393328D02*
X195815170Y-186321900D01*
X195815170Y-186321900D02*
X195743742Y-186179042D01*
X195743742Y-186179042D02*
X195743742Y-186036185D01*
X195743742Y-186036185D02*
X195815170Y-185893328D01*
X195815170Y-185893328D02*
X195958028Y-185821900D01*
X195958028Y-185821900D02*
X196315170Y-185821900D01*
X196315170Y-185821900D02*
X196458028Y-185750471D01*
X197386599Y-186393328D02*
X197243742Y-186321900D01*
X197243742Y-186321900D02*
X197172313Y-186179042D01*
X197172313Y-186179042D02*
X197172313Y-184893328D01*
X197958027Y-186250471D02*
X198029456Y-186321900D01*
X198029456Y-186321900D02*
X197958027Y-186393328D01*
X197958027Y-186393328D02*
X197886599Y-186321900D01*
X197886599Y-186321900D02*
X197958027Y-186250471D01*
X197958027Y-186250471D02*
X197958027Y-186393328D01*
X198672313Y-186393328D02*
X198672313Y-184893328D01*
X198815171Y-185821900D02*
X199243742Y-186393328D01*
X199243742Y-185393328D02*
X198672313Y-185964757D01*
X199886599Y-186393328D02*
X199886599Y-185393328D01*
X199886599Y-184893328D02*
X199815171Y-184964757D01*
X199815171Y-184964757D02*
X199886599Y-185036185D01*
X199886599Y-185036185D02*
X199958028Y-184964757D01*
X199958028Y-184964757D02*
X199886599Y-184893328D01*
X199886599Y-184893328D02*
X199886599Y-185036185D01*
X201243743Y-186321900D02*
X201100885Y-186393328D01*
X201100885Y-186393328D02*
X200815171Y-186393328D01*
X200815171Y-186393328D02*
X200672314Y-186321900D01*
X200672314Y-186321900D02*
X200600885Y-186250471D01*
X200600885Y-186250471D02*
X200529457Y-186107614D01*
X200529457Y-186107614D02*
X200529457Y-185679042D01*
X200529457Y-185679042D02*
X200600885Y-185536185D01*
X200600885Y-185536185D02*
X200672314Y-185464757D01*
X200672314Y-185464757D02*
X200815171Y-185393328D01*
X200815171Y-185393328D02*
X201100885Y-185393328D01*
X201100885Y-185393328D02*
X201243743Y-185464757D01*
X202529457Y-186393328D02*
X202529457Y-185607614D01*
X202529457Y-185607614D02*
X202458028Y-185464757D01*
X202458028Y-185464757D02*
X202315171Y-185393328D01*
X202315171Y-185393328D02*
X202029457Y-185393328D01*
X202029457Y-185393328D02*
X201886599Y-185464757D01*
X202529457Y-186321900D02*
X202386599Y-186393328D01*
X202386599Y-186393328D02*
X202029457Y-186393328D01*
X202029457Y-186393328D02*
X201886599Y-186321900D01*
X201886599Y-186321900D02*
X201815171Y-186179042D01*
X201815171Y-186179042D02*
X201815171Y-186036185D01*
X201815171Y-186036185D02*
X201886599Y-185893328D01*
X201886599Y-185893328D02*
X202029457Y-185821900D01*
X202029457Y-185821900D02*
X202386599Y-185821900D01*
X202386599Y-185821900D02*
X202529457Y-185750471D01*
X203886600Y-186393328D02*
X203886600Y-184893328D01*
X203886600Y-186321900D02*
X203743742Y-186393328D01*
X203743742Y-186393328D02*
X203458028Y-186393328D01*
X203458028Y-186393328D02*
X203315171Y-186321900D01*
X203315171Y-186321900D02*
X203243742Y-186250471D01*
X203243742Y-186250471D02*
X203172314Y-186107614D01*
X203172314Y-186107614D02*
X203172314Y-185679042D01*
X203172314Y-185679042D02*
X203243742Y-185536185D01*
X203243742Y-185536185D02*
X203315171Y-185464757D01*
X203315171Y-185464757D02*
X203458028Y-185393328D01*
X203458028Y-185393328D02*
X203743742Y-185393328D01*
X203743742Y-185393328D02*
X203886600Y-185464757D01*
X204243743Y-186536185D02*
X205386600Y-186536185D01*
X205743742Y-185393328D02*
X205743742Y-186893328D01*
X205743742Y-185464757D02*
X205886600Y-185393328D01*
X205886600Y-185393328D02*
X206172314Y-185393328D01*
X206172314Y-185393328D02*
X206315171Y-185464757D01*
X206315171Y-185464757D02*
X206386600Y-185536185D01*
X206386600Y-185536185D02*
X206458028Y-185679042D01*
X206458028Y-185679042D02*
X206458028Y-186107614D01*
X206458028Y-186107614D02*
X206386600Y-186250471D01*
X206386600Y-186250471D02*
X206315171Y-186321900D01*
X206315171Y-186321900D02*
X206172314Y-186393328D01*
X206172314Y-186393328D02*
X205886600Y-186393328D01*
X205886600Y-186393328D02*
X205743742Y-186321900D01*
X207743743Y-186321900D02*
X207600885Y-186393328D01*
X207600885Y-186393328D02*
X207315171Y-186393328D01*
X207315171Y-186393328D02*
X207172314Y-186321900D01*
X207172314Y-186321900D02*
X207100885Y-186250471D01*
X207100885Y-186250471D02*
X207029457Y-186107614D01*
X207029457Y-186107614D02*
X207029457Y-185679042D01*
X207029457Y-185679042D02*
X207100885Y-185536185D01*
X207100885Y-185536185D02*
X207172314Y-185464757D01*
X207172314Y-185464757D02*
X207315171Y-185393328D01*
X207315171Y-185393328D02*
X207600885Y-185393328D01*
X207600885Y-185393328D02*
X207743743Y-185464757D01*
X208386599Y-186393328D02*
X208386599Y-184893328D01*
X208386599Y-185464757D02*
X208529457Y-185393328D01*
X208529457Y-185393328D02*
X208815171Y-185393328D01*
X208815171Y-185393328D02*
X208958028Y-185464757D01*
X208958028Y-185464757D02*
X209029457Y-185536185D01*
X209029457Y-185536185D02*
X209100885Y-185679042D01*
X209100885Y-185679042D02*
X209100885Y-186107614D01*
X209100885Y-186107614D02*
X209029457Y-186250471D01*
X209029457Y-186250471D02*
X208958028Y-186321900D01*
X208958028Y-186321900D02*
X208815171Y-186393328D01*
X208815171Y-186393328D02*
X208529457Y-186393328D01*
X208529457Y-186393328D02*
X208386599Y-186321900D01*
D10*
D11*
X177002200Y-181507200D02*
X285002200Y-181507200D01*
D10*
D11*
X178386598Y-183621900D02*
X178600884Y-183693328D01*
X178600884Y-183693328D02*
X178958026Y-183693328D01*
X178958026Y-183693328D02*
X179100884Y-183621900D01*
X179100884Y-183621900D02*
X179172312Y-183550471D01*
X179172312Y-183550471D02*
X179243741Y-183407614D01*
X179243741Y-183407614D02*
X179243741Y-183264757D01*
X179243741Y-183264757D02*
X179172312Y-183121900D01*
X179172312Y-183121900D02*
X179100884Y-183050471D01*
X179100884Y-183050471D02*
X178958026Y-182979042D01*
X178958026Y-182979042D02*
X178672312Y-182907614D01*
X178672312Y-182907614D02*
X178529455Y-182836185D01*
X178529455Y-182836185D02*
X178458026Y-182764757D01*
X178458026Y-182764757D02*
X178386598Y-182621900D01*
X178386598Y-182621900D02*
X178386598Y-182479042D01*
X178386598Y-182479042D02*
X178458026Y-182336185D01*
X178458026Y-182336185D02*
X178529455Y-182264757D01*
X178529455Y-182264757D02*
X178672312Y-182193328D01*
X178672312Y-182193328D02*
X179029455Y-182193328D01*
X179029455Y-182193328D02*
X179243741Y-182264757D01*
X179886597Y-183693328D02*
X179886597Y-182193328D01*
X180529455Y-183693328D02*
X180529455Y-182907614D01*
X180529455Y-182907614D02*
X180458026Y-182764757D01*
X180458026Y-182764757D02*
X180315169Y-182693328D01*
X180315169Y-182693328D02*
X180100883Y-182693328D01*
X180100883Y-182693328D02*
X179958026Y-182764757D01*
X179958026Y-182764757D02*
X179886597Y-182836185D01*
X181815169Y-183621900D02*
X181672312Y-183693328D01*
X181672312Y-183693328D02*
X181386598Y-183693328D01*
X181386598Y-183693328D02*
X181243740Y-183621900D01*
X181243740Y-183621900D02*
X181172312Y-183479042D01*
X181172312Y-183479042D02*
X181172312Y-182907614D01*
X181172312Y-182907614D02*
X181243740Y-182764757D01*
X181243740Y-182764757D02*
X181386598Y-182693328D01*
X181386598Y-182693328D02*
X181672312Y-182693328D01*
X181672312Y-182693328D02*
X181815169Y-182764757D01*
X181815169Y-182764757D02*
X181886598Y-182907614D01*
X181886598Y-182907614D02*
X181886598Y-183050471D01*
X181886598Y-183050471D02*
X181172312Y-183193328D01*
X183100883Y-183621900D02*
X182958026Y-183693328D01*
X182958026Y-183693328D02*
X182672312Y-183693328D01*
X182672312Y-183693328D02*
X182529454Y-183621900D01*
X182529454Y-183621900D02*
X182458026Y-183479042D01*
X182458026Y-183479042D02*
X182458026Y-182907614D01*
X182458026Y-182907614D02*
X182529454Y-182764757D01*
X182529454Y-182764757D02*
X182672312Y-182693328D01*
X182672312Y-182693328D02*
X182958026Y-182693328D01*
X182958026Y-182693328D02*
X183100883Y-182764757D01*
X183100883Y-182764757D02*
X183172312Y-182907614D01*
X183172312Y-182907614D02*
X183172312Y-183050471D01*
X183172312Y-183050471D02*
X182458026Y-183193328D01*
X183600883Y-182693328D02*
X184172311Y-182693328D01*
X183815168Y-182193328D02*
X183815168Y-183479042D01*
X183815168Y-183479042D02*
X183886597Y-183621900D01*
X183886597Y-183621900D02*
X184029454Y-183693328D01*
X184029454Y-183693328D02*
X184172311Y-183693328D01*
X184672311Y-183550471D02*
X184743740Y-183621900D01*
X184743740Y-183621900D02*
X184672311Y-183693328D01*
X184672311Y-183693328D02*
X184600883Y-183621900D01*
X184600883Y-183621900D02*
X184672311Y-183550471D01*
X184672311Y-183550471D02*
X184672311Y-183693328D01*
X184672311Y-182764757D02*
X184743740Y-182836185D01*
X184743740Y-182836185D02*
X184672311Y-182907614D01*
X184672311Y-182907614D02*
X184600883Y-182836185D01*
X184600883Y-182836185D02*
X184672311Y-182764757D01*
X184672311Y-182764757D02*
X184672311Y-182907614D01*
D10*
D11*
X178672312Y-176193328D02*
X178672312Y-176550471D01*
X178315169Y-176407614D02*
X178672312Y-176550471D01*
X178672312Y-176550471D02*
X179029455Y-176407614D01*
X178458026Y-176836185D02*
X178672312Y-176550471D01*
X178672312Y-176550471D02*
X178886598Y-176836185D01*
X179815169Y-176193328D02*
X179815169Y-176550471D01*
X179458026Y-176407614D02*
X179815169Y-176550471D01*
X179815169Y-176550471D02*
X180172312Y-176407614D01*
X179600883Y-176836185D02*
X179815169Y-176550471D01*
X179815169Y-176550471D02*
X180029455Y-176836185D01*
X180743740Y-177693328D02*
X180743740Y-176193328D01*
X180743740Y-176193328D02*
X181315169Y-176193328D01*
X181315169Y-176193328D02*
X181458026Y-176264757D01*
X181458026Y-176264757D02*
X181529455Y-176336185D01*
X181529455Y-176336185D02*
X181600883Y-176479042D01*
X181600883Y-176479042D02*
X181600883Y-176693328D01*
X181600883Y-176693328D02*
X181529455Y-176836185D01*
X181529455Y-176836185D02*
X181458026Y-176907614D01*
X181458026Y-176907614D02*
X181315169Y-176979042D01*
X181315169Y-176979042D02*
X180743740Y-176979042D01*
X183100883Y-177550471D02*
X183029455Y-177621900D01*
X183029455Y-177621900D02*
X182815169Y-177693328D01*
X182815169Y-177693328D02*
X182672312Y-177693328D01*
X182672312Y-177693328D02*
X182458026Y-177621900D01*
X182458026Y-177621900D02*
X182315169Y-177479042D01*
X182315169Y-177479042D02*
X182243740Y-177336185D01*
X182243740Y-177336185D02*
X182172312Y-177050471D01*
X182172312Y-177050471D02*
X182172312Y-176836185D01*
X182172312Y-176836185D02*
X182243740Y-176550471D01*
X182243740Y-176550471D02*
X182315169Y-176407614D01*
X182315169Y-176407614D02*
X182458026Y-176264757D01*
X182458026Y-176264757D02*
X182672312Y-176193328D01*
X182672312Y-176193328D02*
X182815169Y-176193328D01*
X182815169Y-176193328D02*
X183029455Y-176264757D01*
X183029455Y-176264757D02*
X183100883Y-176336185D01*
X184243740Y-176907614D02*
X184458026Y-176979042D01*
X184458026Y-176979042D02*
X184529455Y-177050471D01*
X184529455Y-177050471D02*
X184600883Y-177193328D01*
X184600883Y-177193328D02*
X184600883Y-177407614D01*
X184600883Y-177407614D02*
X184529455Y-177550471D01*
X184529455Y-177550471D02*
X184458026Y-177621900D01*
X184458026Y-177621900D02*
X184315169Y-177693328D01*
X184315169Y-177693328D02*
X183743740Y-177693328D01*
X183743740Y-177693328D02*
X183743740Y-176193328D01*
X183743740Y-176193328D02*
X184243740Y-176193328D01*
X184243740Y-176193328D02*
X184386598Y-176264757D01*
X184386598Y-176264757D02*
X184458026Y-176336185D01*
X184458026Y-176336185D02*
X184529455Y-176479042D01*
X184529455Y-176479042D02*
X184529455Y-176621900D01*
X184529455Y-176621900D02*
X184458026Y-176764757D01*
X184458026Y-176764757D02*
X184386598Y-176836185D01*
X184386598Y-176836185D02*
X184243740Y-176907614D01*
X184243740Y-176907614D02*
X183743740Y-176907614D01*
X186386597Y-177693328D02*
X186386597Y-176193328D01*
X186386597Y-176193328D02*
X187243740Y-177693328D01*
X187243740Y-177693328D02*
X187243740Y-176193328D01*
X188600884Y-177693328D02*
X188600884Y-176907614D01*
X188600884Y-176907614D02*
X188529455Y-176764757D01*
X188529455Y-176764757D02*
X188386598Y-176693328D01*
X188386598Y-176693328D02*
X188100884Y-176693328D01*
X188100884Y-176693328D02*
X187958026Y-176764757D01*
X188600884Y-177621900D02*
X188458026Y-177693328D01*
X188458026Y-177693328D02*
X188100884Y-177693328D01*
X188100884Y-177693328D02*
X187958026Y-177621900D01*
X187958026Y-177621900D02*
X187886598Y-177479042D01*
X187886598Y-177479042D02*
X187886598Y-177336185D01*
X187886598Y-177336185D02*
X187958026Y-177193328D01*
X187958026Y-177193328D02*
X188100884Y-177121900D01*
X188100884Y-177121900D02*
X188458026Y-177121900D01*
X188458026Y-177121900D02*
X188600884Y-177050471D01*
X189315169Y-177693328D02*
X189315169Y-176693328D01*
X189315169Y-176836185D02*
X189386598Y-176764757D01*
X189386598Y-176764757D02*
X189529455Y-176693328D01*
X189529455Y-176693328D02*
X189743741Y-176693328D01*
X189743741Y-176693328D02*
X189886598Y-176764757D01*
X189886598Y-176764757D02*
X189958027Y-176907614D01*
X189958027Y-176907614D02*
X189958027Y-177693328D01*
X189958027Y-176907614D02*
X190029455Y-176764757D01*
X190029455Y-176764757D02*
X190172312Y-176693328D01*
X190172312Y-176693328D02*
X190386598Y-176693328D01*
X190386598Y-176693328D02*
X190529455Y-176764757D01*
X190529455Y-176764757D02*
X190600884Y-176907614D01*
X190600884Y-176907614D02*
X190600884Y-177693328D01*
X191886598Y-177621900D02*
X191743741Y-177693328D01*
X191743741Y-177693328D02*
X191458027Y-177693328D01*
X191458027Y-177693328D02*
X191315169Y-177621900D01*
X191315169Y-177621900D02*
X191243741Y-177479042D01*
X191243741Y-177479042D02*
X191243741Y-176907614D01*
X191243741Y-176907614D02*
X191315169Y-176764757D01*
X191315169Y-176764757D02*
X191458027Y-176693328D01*
X191458027Y-176693328D02*
X191743741Y-176693328D01*
X191743741Y-176693328D02*
X191886598Y-176764757D01*
X191886598Y-176764757D02*
X191958027Y-176907614D01*
X191958027Y-176907614D02*
X191958027Y-177050471D01*
X191958027Y-177050471D02*
X191243741Y-177193328D01*
X192815169Y-176193328D02*
X192815169Y-176550471D01*
X192458026Y-176407614D02*
X192815169Y-176550471D01*
X192815169Y-176550471D02*
X193172312Y-176407614D01*
X192600883Y-176836185D02*
X192815169Y-176550471D01*
X192815169Y-176550471D02*
X193029455Y-176836185D01*
X193958026Y-176193328D02*
X193958026Y-176550471D01*
X193600883Y-176407614D02*
X193958026Y-176550471D01*
X193958026Y-176550471D02*
X194315169Y-176407614D01*
X193743740Y-176836185D02*
X193958026Y-176550471D01*
X193958026Y-176550471D02*
X194172312Y-176836185D01*
D10*
D11*
X178672312Y-173193328D02*
X178672312Y-173550471D01*
X178315169Y-173407614D02*
X178672312Y-173550471D01*
X178672312Y-173550471D02*
X179029455Y-173407614D01*
X178458026Y-173836185D02*
X178672312Y-173550471D01*
X178672312Y-173550471D02*
X178886598Y-173836185D01*
X179815169Y-173193328D02*
X179815169Y-173550471D01*
X179458026Y-173407614D02*
X179815169Y-173550471D01*
X179815169Y-173550471D02*
X180172312Y-173407614D01*
X179600883Y-173836185D02*
X179815169Y-173550471D01*
X179815169Y-173550471D02*
X180029455Y-173836185D01*
X180672312Y-174264757D02*
X181386598Y-174264757D01*
X180529455Y-174693328D02*
X181029455Y-173193328D01*
X181029455Y-173193328D02*
X181529455Y-174693328D01*
X182672312Y-173693328D02*
X182672312Y-174693328D01*
X182029454Y-173693328D02*
X182029454Y-174479042D01*
X182029454Y-174479042D02*
X182100883Y-174621900D01*
X182100883Y-174621900D02*
X182243740Y-174693328D01*
X182243740Y-174693328D02*
X182458026Y-174693328D01*
X182458026Y-174693328D02*
X182600883Y-174621900D01*
X182600883Y-174621900D02*
X182672312Y-174550471D01*
X183172312Y-173693328D02*
X183743740Y-173693328D01*
X183386597Y-173193328D02*
X183386597Y-174479042D01*
X183386597Y-174479042D02*
X183458026Y-174621900D01*
X183458026Y-174621900D02*
X183600883Y-174693328D01*
X183600883Y-174693328D02*
X183743740Y-174693328D01*
X184243740Y-174693328D02*
X184243740Y-173193328D01*
X184886598Y-174693328D02*
X184886598Y-173907614D01*
X184886598Y-173907614D02*
X184815169Y-173764757D01*
X184815169Y-173764757D02*
X184672312Y-173693328D01*
X184672312Y-173693328D02*
X184458026Y-173693328D01*
X184458026Y-173693328D02*
X184315169Y-173764757D01*
X184315169Y-173764757D02*
X184243740Y-173836185D01*
X185815169Y-174693328D02*
X185672312Y-174621900D01*
X185672312Y-174621900D02*
X185600883Y-174550471D01*
X185600883Y-174550471D02*
X185529455Y-174407614D01*
X185529455Y-174407614D02*
X185529455Y-173979042D01*
X185529455Y-173979042D02*
X185600883Y-173836185D01*
X185600883Y-173836185D02*
X185672312Y-173764757D01*
X185672312Y-173764757D02*
X185815169Y-173693328D01*
X185815169Y-173693328D02*
X186029455Y-173693328D01*
X186029455Y-173693328D02*
X186172312Y-173764757D01*
X186172312Y-173764757D02*
X186243741Y-173836185D01*
X186243741Y-173836185D02*
X186315169Y-173979042D01*
X186315169Y-173979042D02*
X186315169Y-174407614D01*
X186315169Y-174407614D02*
X186243741Y-174550471D01*
X186243741Y-174550471D02*
X186172312Y-174621900D01*
X186172312Y-174621900D02*
X186029455Y-174693328D01*
X186029455Y-174693328D02*
X185815169Y-174693328D01*
X186958026Y-174693328D02*
X186958026Y-173693328D01*
X186958026Y-173979042D02*
X187029455Y-173836185D01*
X187029455Y-173836185D02*
X187100884Y-173764757D01*
X187100884Y-173764757D02*
X187243741Y-173693328D01*
X187243741Y-173693328D02*
X187386598Y-173693328D01*
X188100883Y-173193328D02*
X188100883Y-173550471D01*
X187743740Y-173407614D02*
X188100883Y-173550471D01*
X188100883Y-173550471D02*
X188458026Y-173407614D01*
X187886597Y-173836185D02*
X188100883Y-173550471D01*
X188100883Y-173550471D02*
X188315169Y-173836185D01*
X189243740Y-173193328D02*
X189243740Y-173550471D01*
X188886597Y-173407614D02*
X189243740Y-173550471D01*
X189243740Y-173550471D02*
X189600883Y-173407614D01*
X189029454Y-173836185D02*
X189243740Y-173550471D01*
X189243740Y-173550471D02*
X189458026Y-173836185D01*
D10*
D11*
X197002200Y-191507200D02*
X197002200Y-194507200D01*
D10*
D11*
X261002200Y-191507200D02*
X261002200Y-198007200D01*
D14*
%TO.C,R8*%
X61560000Y-81737500D03*
X66640000Y-81737500D03*
%TD*%
%TO.C,R5*%
X61560000Y-71040000D03*
X66640000Y-71040000D03*
%TD*%
D15*
%TO.C,J21*%
X77500000Y-112420000D03*
D16*
X77500000Y-114960000D03*
X77500000Y-117500000D03*
X77500000Y-120040000D03*
X77500000Y-122580000D03*
%TD*%
D17*
%TO.C,J33*%
X158000000Y-109500000D03*
D18*
X158000000Y-106000000D03*
%TD*%
D15*
%TO.C,J17*%
X69700000Y-112365000D03*
D16*
X69700000Y-114905000D03*
X69700000Y-117445000D03*
X69700000Y-119985000D03*
X69700000Y-122525000D03*
%TD*%
D15*
%TO.C,J20*%
X184500000Y-113380000D03*
D16*
X184500000Y-115920000D03*
X184500000Y-118460000D03*
X184500000Y-121000000D03*
%TD*%
D15*
%TO.C,J30*%
X144100000Y-64900000D03*
%TD*%
D14*
%TO.C,R18*%
X137300000Y-114260000D03*
X137300000Y-119340000D03*
%TD*%
%TO.C,R12*%
X129540000Y-107500000D03*
X129540000Y-112580000D03*
%TD*%
D19*
%TO.C,U1*%
X104297500Y-50300000D03*
D20*
X104297500Y-52840000D03*
X104297500Y-55380000D03*
X104297500Y-57920000D03*
X104297500Y-60460000D03*
X104297500Y-63000000D03*
X104297500Y-65540000D03*
X104297500Y-68080000D03*
X104297500Y-70620000D03*
X104297500Y-73160000D03*
X104297500Y-75700000D03*
X104297500Y-78240000D03*
X104297500Y-80780000D03*
X104297500Y-83320000D03*
X104297500Y-85860000D03*
X104297500Y-88400000D03*
X104297500Y-90940000D03*
X104297500Y-93480000D03*
X104297500Y-96020000D03*
X129697500Y-96020000D03*
X129697500Y-93480000D03*
X129697500Y-90940000D03*
X129697500Y-88400000D03*
X129697500Y-85860000D03*
X129697500Y-83320000D03*
X129697500Y-80780000D03*
X129697500Y-78240000D03*
X129697500Y-75700000D03*
X129697500Y-73160000D03*
X129697500Y-70620000D03*
X129697500Y-68080000D03*
X129697500Y-65540000D03*
X129697500Y-63000000D03*
X129697500Y-60460000D03*
X129697500Y-57920000D03*
X129697500Y-55380000D03*
X129697500Y-52840000D03*
X129697500Y-50300000D03*
%TD*%
D21*
%TO.C,J8*%
X89600000Y-127727500D03*
D22*
X92100000Y-127727500D03*
X94600000Y-127727500D03*
X97100000Y-127727500D03*
%TD*%
D23*
%TO.C,C11*%
X157200000Y-74300000D03*
D24*
X157200000Y-71800000D03*
%TD*%
D14*
%TO.C,R15*%
X139500000Y-114260000D03*
X139500000Y-119340000D03*
%TD*%
D15*
%TO.C,J25*%
X103490000Y-110480000D03*
D16*
X103490000Y-113020000D03*
X103490000Y-115560000D03*
X103490000Y-118100000D03*
X103490000Y-120640000D03*
%TD*%
D15*
%TO.C,J53*%
X70625000Y-40475000D03*
D16*
X73165000Y-40475000D03*
X75705000Y-40475000D03*
X78245000Y-40475000D03*
X80785000Y-40475000D03*
X83325000Y-40475000D03*
X85865000Y-40475000D03*
X88405000Y-40475000D03*
%TD*%
D15*
%TO.C,J35*%
X148900000Y-83300000D03*
%TD*%
%TO.C,J32*%
X142700000Y-83100000D03*
%TD*%
%TO.C,J42*%
X166494135Y-84420000D03*
D16*
X166494135Y-86960000D03*
X166494135Y-89500000D03*
%TD*%
D25*
%TO.C,Q5*%
X139700000Y-127800000D03*
D26*
X138430000Y-127800000D03*
X137160000Y-127800000D03*
%TD*%
D25*
%TO.C,Q3*%
X151188000Y-127800000D03*
D26*
X149918000Y-127800000D03*
X148648000Y-127800000D03*
%TD*%
D27*
%TO.C,REF\u002A\u002A*%
X190750000Y-156100000D03*
%TD*%
D21*
%TO.C,J16*%
X106850000Y-127727500D03*
D22*
X109350000Y-127727500D03*
X111850000Y-127727500D03*
X114350000Y-127727500D03*
%TD*%
D28*
%TO.C,SW3*%
X71380000Y-79197500D03*
D24*
X71380000Y-81737500D03*
X71380000Y-84277500D03*
X71380000Y-86817500D03*
X79000000Y-86817500D03*
X79000000Y-84277500D03*
X79000000Y-81737500D03*
X79000000Y-79197500D03*
%TD*%
D14*
%TO.C,R7*%
X61560000Y-79197500D03*
X66640000Y-79197500D03*
%TD*%
D15*
%TO.C,J29*%
X90500000Y-76500000D03*
%TD*%
D29*
%TO.C,J51*%
X56900000Y-136000000D03*
D18*
X60400000Y-136000000D03*
X63900000Y-136000000D03*
%TD*%
D30*
%TO.C,Q7*%
X166200000Y-122740000D03*
D31*
X166200000Y-125280000D03*
X166200000Y-127820000D03*
%TD*%
D14*
%TO.C,R21*%
X59560000Y-40500000D03*
X64640000Y-40500000D03*
%TD*%
%TO.C,R4*%
X61560000Y-68500000D03*
X66640000Y-68500000D03*
%TD*%
D21*
%TO.C,J48*%
X71800000Y-127975000D03*
D22*
X74300000Y-127975000D03*
X76800000Y-127975000D03*
%TD*%
D15*
%TO.C,J27*%
X108080000Y-110480000D03*
D16*
X108080000Y-113020000D03*
X108080000Y-115560000D03*
X108080000Y-118100000D03*
X108080000Y-120640000D03*
%TD*%
D27*
%TO.C,REF\u002A\u002A*%
X190750000Y-40950000D03*
%TD*%
D15*
%TO.C,J26*%
X117260000Y-110480000D03*
D16*
X117260000Y-113020000D03*
X117260000Y-115560000D03*
X117260000Y-118100000D03*
X117260000Y-120640000D03*
%TD*%
D32*
%TO.C,J6*%
X180250000Y-134800000D03*
D33*
X186050000Y-134800000D03*
D34*
X183250000Y-130000000D03*
%TD*%
D15*
%TO.C,J39*%
X87500000Y-57900000D03*
%TD*%
D14*
%TO.C,R3*%
X61560000Y-65960000D03*
X66640000Y-65960000D03*
%TD*%
D27*
%TO.C,REF\u002A\u002A*%
X48250000Y-156100000D03*
%TD*%
D15*
%TO.C,J13*%
X66100000Y-112365000D03*
D16*
X66100000Y-114905000D03*
X66100000Y-117445000D03*
X66100000Y-119985000D03*
X66100000Y-122525000D03*
%TD*%
D15*
%TO.C,J19*%
X73900000Y-112420000D03*
D16*
X73900000Y-114960000D03*
X73900000Y-117500000D03*
X73900000Y-120040000D03*
X73900000Y-122580000D03*
%TD*%
D35*
%TO.C,C8*%
X179700000Y-117000000D03*
D24*
X179700000Y-119500000D03*
%TD*%
D14*
%TO.C,R13*%
X162500000Y-114460000D03*
X162500000Y-119540000D03*
%TD*%
D17*
%TO.C,J34*%
X181000000Y-108000000D03*
D18*
X181000000Y-104500000D03*
%TD*%
D14*
%TO.C,R1*%
X61560000Y-57800000D03*
X66640000Y-57800000D03*
%TD*%
D36*
%TO.C,J46*%
X50960000Y-64840000D03*
D16*
X53500000Y-64840000D03*
X50960000Y-67380000D03*
X53500000Y-67380000D03*
X50960000Y-69920000D03*
X53500000Y-69920000D03*
X50960000Y-72460000D03*
X53500000Y-72460000D03*
X50960000Y-75000000D03*
X53500000Y-75000000D03*
X50960000Y-77540000D03*
X53500000Y-77540000D03*
X50960000Y-80080000D03*
X53500000Y-80080000D03*
X50960000Y-82620000D03*
X53500000Y-82620000D03*
%TD*%
D15*
%TO.C,J23*%
X98900000Y-110480000D03*
D16*
X98900000Y-113020000D03*
X98900000Y-115560000D03*
X98900000Y-118100000D03*
X98900000Y-120640000D03*
%TD*%
D15*
%TO.C,J37*%
X88300000Y-64500000D03*
%TD*%
D35*
%TO.C,C10*%
X159994135Y-84249888D03*
D24*
X159994135Y-86749888D03*
%TD*%
D15*
%TO.C,J12*%
X48400000Y-112380000D03*
D16*
X48400000Y-114920000D03*
X48400000Y-117460000D03*
X48400000Y-120000000D03*
X48400000Y-122540000D03*
%TD*%
D35*
%TO.C,C6*%
X175650000Y-141900000D03*
D24*
X175650000Y-144400000D03*
%TD*%
D30*
%TO.C,Q8*%
X154700000Y-122720000D03*
D31*
X154700000Y-125260000D03*
X154700000Y-127800000D03*
%TD*%
D14*
%TO.C,R19*%
X143040000Y-107000000D03*
X137960000Y-107000000D03*
%TD*%
D21*
%TO.C,J50*%
X57800000Y-127975000D03*
D22*
X60300000Y-127975000D03*
X62800000Y-127975000D03*
%TD*%
D37*
%TO.C,D1*%
X134000000Y-101225000D03*
D38*
X134000000Y-103765000D03*
%TD*%
D15*
%TO.C,J36*%
X90500000Y-72600673D03*
%TD*%
%TO.C,J40*%
X144100000Y-54894806D03*
%TD*%
%TO.C,J24*%
X112670000Y-110480000D03*
D16*
X112670000Y-113020000D03*
X112670000Y-115560000D03*
X112670000Y-118100000D03*
X112670000Y-120640000D03*
%TD*%
D39*
%TO.C,SW5*%
X145850000Y-94250000D03*
X152350000Y-94250000D03*
X145850000Y-98750000D03*
X152350000Y-98750000D03*
%TD*%
D14*
%TO.C,R20*%
X143040000Y-98764728D03*
X137960000Y-98764728D03*
%TD*%
D29*
%TO.C,J9*%
X125950000Y-136000000D03*
D18*
X129450000Y-136000000D03*
%TD*%
D15*
%TO.C,J1*%
X99400000Y-50300000D03*
D16*
X99400000Y-52840000D03*
X99400000Y-55380000D03*
X99400000Y-57920000D03*
X99400000Y-60460000D03*
X99400000Y-63000000D03*
X99400000Y-65540000D03*
X99400000Y-68080000D03*
X99400000Y-70620000D03*
X99400000Y-73160000D03*
X99400000Y-75700000D03*
X99400000Y-78240000D03*
X99400000Y-80780000D03*
X99400000Y-83320000D03*
X99400000Y-85860000D03*
X99400000Y-88400000D03*
X99400000Y-90940000D03*
X99400000Y-93480000D03*
X99400000Y-96020000D03*
%TD*%
D15*
%TO.C,J11*%
X62500000Y-112365000D03*
D16*
X62500000Y-114905000D03*
X62500000Y-117445000D03*
X62500000Y-119985000D03*
X62500000Y-122525000D03*
%TD*%
D28*
%TO.C,C4*%
X174189888Y-137400000D03*
D24*
X176689888Y-137400000D03*
%TD*%
D14*
%TO.C,R2*%
X61560000Y-60340000D03*
X66640000Y-60340000D03*
%TD*%
D15*
%TO.C,J14*%
X52000000Y-112380000D03*
D16*
X52000000Y-114920000D03*
X52000000Y-117460000D03*
X52000000Y-120000000D03*
X52000000Y-122540000D03*
%TD*%
D29*
%TO.C,J15*%
X105250000Y-136000000D03*
D18*
X108750000Y-136000000D03*
X112250000Y-136000000D03*
X115750000Y-136000000D03*
%TD*%
D35*
%TO.C,C1*%
X151500000Y-58800000D03*
D24*
X151500000Y-61300000D03*
%TD*%
D15*
%TO.C,J47*%
X160690000Y-53090000D03*
D16*
X158150000Y-53090000D03*
X160690000Y-55630000D03*
X158150000Y-55630000D03*
X160690000Y-58170000D03*
X158150000Y-58170000D03*
X160690000Y-60710000D03*
X158150000Y-60710000D03*
X160690000Y-63250000D03*
X158150000Y-63250000D03*
%TD*%
D29*
%TO.C,J4*%
X150300000Y-135972500D03*
D18*
X153800000Y-135972500D03*
%TD*%
D27*
%TO.C,REF\u002A\u002A*%
X48250000Y-40900000D03*
%TD*%
D30*
%TO.C,Q9*%
X143200000Y-122720000D03*
D31*
X143200000Y-125260000D03*
X143200000Y-127800000D03*
%TD*%
D23*
%TO.C,C2*%
X151500000Y-55510112D03*
D24*
X151500000Y-53010112D03*
%TD*%
D14*
%TO.C,R14*%
X151000000Y-114200000D03*
X151000000Y-119280000D03*
%TD*%
%TO.C,R6*%
X61560000Y-73580000D03*
X66640000Y-73580000D03*
%TD*%
%TO.C,R9*%
X61560000Y-84277500D03*
X66640000Y-84277500D03*
%TD*%
D15*
%TO.C,J44*%
X166590000Y-69220000D03*
D16*
X166590000Y-71760000D03*
X166590000Y-74300000D03*
X166590000Y-76840000D03*
%TD*%
D29*
%TO.C,J5*%
X160750000Y-135972500D03*
D18*
X164250000Y-135972500D03*
%TD*%
D14*
%TO.C,R10*%
X61560000Y-86817500D03*
X66640000Y-86817500D03*
%TD*%
D15*
%TO.C,J22*%
X81100000Y-112420000D03*
D16*
X81100000Y-114960000D03*
X81100000Y-117500000D03*
X81100000Y-120040000D03*
X81100000Y-122580000D03*
%TD*%
D15*
%TO.C,J18*%
X55600000Y-112380000D03*
D16*
X55600000Y-114920000D03*
X55600000Y-117460000D03*
X55600000Y-120000000D03*
X55600000Y-122540000D03*
%TD*%
D23*
%TO.C,C12*%
X151400000Y-74300000D03*
D24*
X151400000Y-71800000D03*
%TD*%
D29*
%TO.C,J49*%
X70800000Y-136000000D03*
D18*
X74300000Y-136000000D03*
X77800000Y-136000000D03*
%TD*%
D25*
%TO.C,Q6*%
X139700000Y-122950000D03*
D26*
X138430000Y-122950000D03*
X137160000Y-122950000D03*
%TD*%
D25*
%TO.C,Q1*%
X162676000Y-127800000D03*
D26*
X161406000Y-127800000D03*
X160136000Y-127800000D03*
%TD*%
D39*
%TO.C,SW4*%
X152250000Y-109250000D03*
X145750000Y-109250000D03*
X152250000Y-104750000D03*
X145750000Y-104750000D03*
%TD*%
D35*
%TO.C,C9*%
X173700000Y-117000000D03*
D24*
X173700000Y-119500000D03*
%TD*%
D37*
%TO.C,D2*%
X134000000Y-110275000D03*
D38*
X134000000Y-107735000D03*
%TD*%
D14*
%TO.C,R11*%
X129540000Y-100460000D03*
X129540000Y-105540000D03*
%TD*%
D25*
%TO.C,Q4*%
X151188000Y-122840000D03*
D26*
X149918000Y-122840000D03*
X148648000Y-122840000D03*
%TD*%
D15*
%TO.C,J31*%
X144100000Y-61300000D03*
%TD*%
D21*
%TO.C,J10*%
X123950000Y-127727500D03*
D22*
X126450000Y-127727500D03*
X128950000Y-127727500D03*
X131450000Y-127727500D03*
%TD*%
D28*
%TO.C,SW1*%
X71400000Y-57800000D03*
D24*
X71400000Y-60340000D03*
X79020000Y-60340000D03*
X79020000Y-57800000D03*
%TD*%
D15*
%TO.C,J38*%
X88300000Y-67300000D03*
%TD*%
D25*
%TO.C,Q2*%
X162676000Y-122870000D03*
D26*
X161406000Y-122870000D03*
X160136000Y-122870000D03*
%TD*%
D15*
%TO.C,J43*%
X82025000Y-93175000D03*
D16*
X82025000Y-95715000D03*
X82025000Y-98255000D03*
X82025000Y-100795000D03*
X82025000Y-103335000D03*
X82025000Y-105875000D03*
%TD*%
D14*
%TO.C,R17*%
X148800000Y-114200000D03*
X148800000Y-119280000D03*
%TD*%
D15*
%TO.C,J52*%
X178100000Y-127100000D03*
D16*
X175560000Y-127100000D03*
X173020000Y-127100000D03*
%TD*%
D17*
%TO.C,J41*%
X158000000Y-98750000D03*
D18*
X158000000Y-95250000D03*
%TD*%
D29*
%TO.C,J3*%
X139850000Y-135972500D03*
D18*
X143350000Y-135972500D03*
%TD*%
D28*
%TO.C,SW2*%
X71380000Y-65960000D03*
D24*
X71380000Y-68500000D03*
X71380000Y-71040000D03*
X71380000Y-73580000D03*
X79000000Y-73580000D03*
X79000000Y-71040000D03*
X79000000Y-68500000D03*
X79000000Y-65960000D03*
%TD*%
D40*
%TO.C,C5*%
X171010113Y-137400000D03*
D24*
X168510113Y-137400000D03*
%TD*%
D29*
%TO.C,J7*%
X88300000Y-136000000D03*
D18*
X91800000Y-136000000D03*
X95300000Y-136000000D03*
X98800000Y-136000000D03*
%TD*%
D14*
%TO.C,R16*%
X160300000Y-114460000D03*
X160300000Y-119540000D03*
%TD*%
D15*
%TO.C,J2*%
X134100000Y-50300000D03*
D16*
X134100000Y-52840000D03*
X134100000Y-55380000D03*
X134100000Y-57920000D03*
X134100000Y-60460000D03*
X134100000Y-63000000D03*
X134100000Y-65540000D03*
X134100000Y-68080000D03*
X134100000Y-70620000D03*
X134100000Y-73160000D03*
X134100000Y-75700000D03*
X134100000Y-78240000D03*
X134100000Y-80780000D03*
X134100000Y-83320000D03*
X134100000Y-85860000D03*
X134100000Y-88400000D03*
X134100000Y-90940000D03*
X134100000Y-93480000D03*
X134100000Y-96020000D03*
%TD*%
D15*
%TO.C,J28*%
X121850000Y-110480000D03*
D16*
X121850000Y-113020000D03*
X121850000Y-115560000D03*
X121850000Y-118100000D03*
X121850000Y-120640000D03*
%TD*%
D35*
%TO.C,C7*%
X169400000Y-141900000D03*
D24*
X169400000Y-144400000D03*
%TD*%
D23*
%TO.C,C3*%
X174100000Y-132900000D03*
D24*
X174100000Y-130400000D03*
%TD*%
D15*
%TO.C,J45*%
X164700000Y-53090000D03*
D16*
X167240000Y-53090000D03*
X164700000Y-55630000D03*
X167240000Y-55630000D03*
X164700000Y-58170000D03*
X167240000Y-58170000D03*
X164700000Y-60710000D03*
X167240000Y-60710000D03*
X164700000Y-63250000D03*
X167240000Y-63250000D03*
%TD*%
D41*
X44500000Y-40500000D02*
G75*
G02*
X48500000Y-36500000I4000000J0D01*
G01*
X194500000Y-156500000D02*
G75*
G02*
X190500000Y-160500000I-4000000J0D01*
G01*
X194500000Y-40500000D02*
X194500000Y-156500000D01*
X48500000Y-36500000D02*
X190500000Y-36500000D01*
X190500000Y-160500000D02*
X48500000Y-160500000D01*
X44500000Y-156500000D02*
X44500000Y-40500000D01*
X48500000Y-160500000D02*
G75*
G02*
X44500000Y-156500000I0J4000000D01*
G01*
X190500000Y-36500000D02*
G75*
G02*
X194500000Y-40500000I0J-4000000D01*
G01*
M02*
