%TF.GenerationSoftware,KiCad,Pcbnew,9.0.4*%
%TF.CreationDate,2025-08-27T10:42:51+02:00*%
%TF.ProjectId,ICU_festiwal,4943555f-6665-4737-9469-77616c2e6b69,V1.0*%
%TF.SameCoordinates,Original*%
%TF.FileFunction,Plated,1,2,PTH,Mixed*%
%TF.FilePolarity,Positive*%
%FSLAX46Y46*%
G04 Gerber Fmt 4.6, Leading zero omitted, Abs format (unit mm)*
G04 Created by KiCad (PCBNEW 9.0.4) date 2025-08-27 10:42:51*
%MOMM*%
%LPD*%
G01*
G04 APERTURE LIST*
%TA.AperFunction,ViaDrill*%
%ADD10C,0.300000*%
%TD*%
%TA.AperFunction,ComponentDrill*%
%ADD11C,0.700000*%
%TD*%
%TA.AperFunction,ComponentDrill*%
%ADD12C,0.750000*%
%TD*%
%TA.AperFunction,ComponentDrill*%
%ADD13C,0.800000*%
%TD*%
G04 aperture for slot hole*
%TA.AperFunction,ComponentDrill*%
%ADD14C,0.800000*%
%TD*%
%TA.AperFunction,ComponentDrill*%
%ADD15C,0.900000*%
%TD*%
%TA.AperFunction,ComponentDrill*%
%ADD16C,0.950000*%
%TD*%
%TA.AperFunction,ComponentDrill*%
%ADD17C,1.000000*%
%TD*%
%TA.AperFunction,ComponentDrill*%
%ADD18C,1.020000*%
%TD*%
%TA.AperFunction,ComponentDrill*%
%ADD19C,1.100000*%
%TD*%
%TA.AperFunction,ComponentDrill*%
%ADD20C,1.200000*%
%TD*%
G04 APERTURE END LIST*
D10*
X45250000Y-41750000D03*
X45250000Y-44250000D03*
X45250000Y-47250000D03*
X45250000Y-50250000D03*
X45250000Y-53000000D03*
X45250000Y-55250000D03*
X45250000Y-57000000D03*
X45250000Y-59500000D03*
X45250000Y-65250000D03*
X45250000Y-69250000D03*
X45250000Y-72500000D03*
X45250000Y-75250000D03*
X45250000Y-77750000D03*
X45250000Y-81250000D03*
X45250000Y-84250000D03*
X45250000Y-87250000D03*
X45250000Y-90250000D03*
X45250000Y-93250000D03*
X45250000Y-96750000D03*
X45250000Y-99750000D03*
X45250000Y-103000000D03*
X45250000Y-106750000D03*
X45250000Y-110750000D03*
X45250000Y-115250000D03*
X45250000Y-119500000D03*
X45250000Y-124250000D03*
X45250000Y-128250000D03*
X45250000Y-133250000D03*
X45250000Y-137000000D03*
X45250000Y-141750000D03*
X45250000Y-145500000D03*
X45250000Y-150250000D03*
X45250000Y-155000000D03*
X45750000Y-158000000D03*
X46000000Y-39000000D03*
X46500000Y-64250000D03*
X47000000Y-66750000D03*
X47500000Y-37500000D03*
X48000000Y-50000000D03*
X48000000Y-68750000D03*
X48000000Y-87500000D03*
X48000000Y-146000000D03*
X48250000Y-61250000D03*
X48250000Y-99750000D03*
X48250000Y-159750000D03*
X48500000Y-66250000D03*
X48500000Y-73750000D03*
X48750000Y-58500000D03*
X48750000Y-126250000D03*
X49000000Y-76250000D03*
X49250000Y-48250000D03*
X49250000Y-79000000D03*
X49500000Y-90500000D03*
X49750000Y-107500000D03*
X50000000Y-37500000D03*
X50000000Y-127000000D03*
X50250000Y-44000000D03*
X50250000Y-56750000D03*
X50250000Y-104250000D03*
X50250000Y-142000000D03*
X50500000Y-151000000D03*
X51000000Y-49750000D03*
X51250000Y-46500000D03*
X51250000Y-101250000D03*
X51250000Y-147000000D03*
X51500000Y-91000000D03*
X51750000Y-63000000D03*
X51750000Y-154250000D03*
X52000000Y-94000000D03*
X52000000Y-159250000D03*
X52500000Y-37500000D03*
X52750000Y-156250000D03*
X53000000Y-40000000D03*
X53250000Y-129250000D03*
X53500000Y-97000000D03*
X53750000Y-127000000D03*
X53750000Y-145000000D03*
X54250000Y-150000000D03*
X54500000Y-37500000D03*
X54500000Y-43000000D03*
X54500000Y-125500000D03*
X54750000Y-132750000D03*
X55000000Y-56750000D03*
X55250000Y-107000000D03*
X55500000Y-44750000D03*
X55500000Y-93500000D03*
X55500000Y-95500000D03*
X55500000Y-159500000D03*
X56500000Y-37500000D03*
X56500000Y-151750000D03*
X56750000Y-47000000D03*
X56750000Y-50500000D03*
X56750000Y-99500000D03*
X57000000Y-101750000D03*
X57250000Y-157500000D03*
X57750000Y-148250000D03*
X58000000Y-40500000D03*
X58400000Y-44250000D03*
X58500000Y-37500000D03*
X58500000Y-49750000D03*
X58500000Y-139250000D03*
X58500000Y-145500000D03*
X58500000Y-154750000D03*
X58750000Y-102250000D03*
X59250000Y-100000000D03*
X59250000Y-104500000D03*
X59500000Y-95500000D03*
X59750000Y-53000000D03*
X60250000Y-102000000D03*
X60500000Y-37500000D03*
X60500000Y-93500000D03*
X60887818Y-40272182D03*
X61000000Y-105000000D03*
X61000000Y-152500000D03*
X61500000Y-159500000D03*
X62000000Y-97000000D03*
X62000000Y-139000000D03*
X62250000Y-102250000D03*
X62250000Y-156500000D03*
X62500000Y-37500000D03*
X62500000Y-107750000D03*
X63000000Y-99750000D03*
X63000000Y-133000000D03*
X63254185Y-46464055D03*
X63309937Y-43598162D03*
X63500000Y-92750000D03*
X63500000Y-130000000D03*
X63750000Y-41500000D03*
X64000000Y-104750000D03*
X64500000Y-37500000D03*
X64500000Y-95000000D03*
X64750000Y-50250000D03*
X64839101Y-57264523D03*
X65000000Y-102500000D03*
X65250000Y-128250000D03*
X65614575Y-41425000D03*
X65674440Y-56929540D03*
X65825000Y-55725000D03*
X66000000Y-126500000D03*
X66250000Y-107500000D03*
X66500000Y-37500000D03*
X66500000Y-145750000D03*
X67100000Y-45300000D03*
X67500000Y-43000000D03*
X67500000Y-159500000D03*
X67750000Y-149750000D03*
X68000000Y-96500000D03*
X68000000Y-104750000D03*
X68100000Y-58951000D03*
X68250000Y-99000000D03*
X68250000Y-107250000D03*
X68500000Y-37500000D03*
X68500000Y-93000000D03*
X69250000Y-132500000D03*
X69250000Y-145750000D03*
X69500000Y-129750000D03*
X70500000Y-37500000D03*
X70750000Y-145750000D03*
X71500000Y-51500000D03*
X71586088Y-105875998D03*
X71645666Y-103339225D03*
X71708380Y-100814994D03*
X71711516Y-98253642D03*
X72000000Y-45000000D03*
X72000000Y-48750000D03*
X72000000Y-95500000D03*
X72500000Y-37500000D03*
X72500000Y-159500000D03*
X72750000Y-133000000D03*
X73000000Y-93500000D03*
X73000000Y-126500000D03*
X73250000Y-96250000D03*
X73250000Y-130000000D03*
X73750000Y-104500000D03*
X74000000Y-99500000D03*
X74250000Y-101750000D03*
X74424674Y-58327434D03*
X74500000Y-37500000D03*
X74500000Y-42250000D03*
X74500000Y-44250000D03*
X74500000Y-47750000D03*
X74500000Y-51500000D03*
X74500000Y-97000000D03*
X74750000Y-94500000D03*
X74750000Y-149250000D03*
X75000000Y-93500000D03*
X76128893Y-57441270D03*
X76250000Y-130500000D03*
X76250000Y-132500000D03*
X76250000Y-139000000D03*
X76500000Y-37500000D03*
X76500000Y-78000000D03*
X76500000Y-80500000D03*
X76500000Y-83000000D03*
X76500000Y-85500000D03*
X76500000Y-88000000D03*
X76750000Y-99750000D03*
X76750000Y-102250000D03*
X76750000Y-147750000D03*
X77000000Y-41500000D03*
X77000000Y-43750000D03*
X77000000Y-49000000D03*
X77000000Y-51725000D03*
X77000000Y-58250000D03*
X77000000Y-90000000D03*
X77000000Y-97500000D03*
X77250000Y-46000000D03*
X77250000Y-104500000D03*
X77250000Y-107000000D03*
X77500000Y-126500000D03*
X77500000Y-159500000D03*
X77750000Y-91500000D03*
X78000000Y-85500000D03*
X78275000Y-55000000D03*
X78500000Y-37500000D03*
X78500000Y-131250000D03*
X79000000Y-91500000D03*
X79000000Y-97000000D03*
X79000000Y-143500000D03*
X79250000Y-107500000D03*
X79500000Y-42250000D03*
X79500000Y-46250000D03*
X79500000Y-89000000D03*
X79750000Y-49250000D03*
X79750000Y-159750000D03*
X80000000Y-50750000D03*
X80000000Y-74500000D03*
X80000000Y-94500000D03*
X80250000Y-99250000D03*
X80250000Y-102250000D03*
X80250000Y-128500000D03*
X80250000Y-134500000D03*
X80500000Y-37500000D03*
X80500000Y-80500000D03*
X80500000Y-83000000D03*
X80500000Y-105000000D03*
X80900000Y-57700000D03*
X81000000Y-132250000D03*
X81450000Y-77750000D03*
X81750000Y-46500000D03*
X81750000Y-150750000D03*
X82000000Y-42750000D03*
X82000000Y-75500000D03*
X82000000Y-85500000D03*
X82250000Y-49000000D03*
X82250000Y-149000000D03*
X82500000Y-37500000D03*
X82500000Y-67500000D03*
X82500000Y-78000000D03*
X82500000Y-81000000D03*
X82500000Y-88000000D03*
X82500000Y-91000000D03*
X82500000Y-133500000D03*
X82750000Y-127250000D03*
X82750000Y-137250000D03*
X82900000Y-64300000D03*
X83000000Y-83000000D03*
X83000000Y-86000000D03*
X83500000Y-159500000D03*
X83700000Y-58500000D03*
X84000000Y-93500000D03*
X84000000Y-99750000D03*
X84250000Y-45750000D03*
X84250000Y-101750000D03*
X84500000Y-37500000D03*
X84500000Y-49500000D03*
X84500000Y-69500000D03*
X84500000Y-105000000D03*
X84500000Y-139000000D03*
X85000000Y-97000000D03*
X85000000Y-132250000D03*
X85000000Y-154500000D03*
X85249998Y-90000000D03*
X85250000Y-106250000D03*
X85250000Y-143500000D03*
X85500000Y-47750000D03*
X85500000Y-94500000D03*
X85750000Y-99500000D03*
X86000000Y-43500000D03*
X86000000Y-45250000D03*
X86000000Y-75500000D03*
X86000000Y-78500000D03*
X86000000Y-80500000D03*
X86000000Y-148250000D03*
X86250000Y-128750000D03*
X86500000Y-37500000D03*
X86500000Y-50500000D03*
X86500000Y-72000000D03*
X86500000Y-73500000D03*
X86500000Y-77000000D03*
X86500000Y-83000000D03*
X86500000Y-85500000D03*
X86500000Y-88000000D03*
X86500000Y-90000000D03*
X86500000Y-103500000D03*
X86750000Y-99000000D03*
X87000000Y-93000000D03*
X87000000Y-94500000D03*
X87000000Y-96500000D03*
X87000000Y-151000000D03*
X87500000Y-90855001D03*
X88000000Y-80500000D03*
X88000000Y-88000000D03*
X88250000Y-150750000D03*
X88500000Y-37500000D03*
X88500000Y-78000000D03*
X88500000Y-90000000D03*
X89000000Y-75500000D03*
X89250000Y-91750000D03*
X89500000Y-83000000D03*
X89500000Y-90500000D03*
X89500000Y-159500000D03*
X90000000Y-80500000D03*
X90000000Y-85500000D03*
X90000000Y-88000000D03*
X90250000Y-99750000D03*
X90250000Y-103250000D03*
X90250000Y-109750000D03*
X90313226Y-115701402D03*
X90500000Y-37500000D03*
X90500000Y-47500000D03*
X90700000Y-58100000D03*
X91000000Y-79250000D03*
X91000000Y-91500000D03*
X91250000Y-120500000D03*
X91500000Y-43750000D03*
X91500000Y-49750000D03*
X91500000Y-64300000D03*
X91500000Y-66500000D03*
X91894669Y-120355331D03*
X92000000Y-77500000D03*
X92000000Y-81737500D03*
X92000000Y-90500000D03*
X92000000Y-139000000D03*
X92250000Y-39250000D03*
X92300000Y-73500000D03*
X92500000Y-37500000D03*
X92500000Y-72000000D03*
X92500000Y-75500000D03*
X92500000Y-80500000D03*
X93000000Y-84250000D03*
X93000000Y-89500000D03*
X93000000Y-142750000D03*
X93394669Y-121855331D03*
X93500000Y-47500000D03*
X93500000Y-50500000D03*
X94000000Y-86817500D03*
X94000000Y-89500000D03*
X94250000Y-45250000D03*
X94500000Y-37500000D03*
X94748965Y-153921591D03*
X94750000Y-102750000D03*
X94750000Y-106500000D03*
X95000000Y-79500000D03*
X95000000Y-94750000D03*
X95000000Y-97000000D03*
X95019669Y-123480331D03*
X95500000Y-69500000D03*
X95500000Y-149500000D03*
X96000000Y-73500000D03*
X96100000Y-64300000D03*
X96250000Y-49250000D03*
X96500000Y-37500000D03*
X96500000Y-66500000D03*
X96500000Y-159500000D03*
X96644669Y-125105331D03*
X96700000Y-58300000D03*
X96750000Y-138750000D03*
X97000000Y-92000000D03*
X97000000Y-95250000D03*
X97500000Y-44750000D03*
X97500000Y-72000000D03*
X97500000Y-104000000D03*
X97500000Y-109750000D03*
X97894669Y-126355331D03*
X98000000Y-77000000D03*
X98000000Y-100500000D03*
X98500000Y-37500000D03*
X98769669Y-127230331D03*
X98900000Y-108500000D03*
X99500000Y-148500000D03*
X99644669Y-128105331D03*
X100000000Y-143750000D03*
X100500000Y-37500000D03*
X100700000Y-106500000D03*
X100750000Y-101000000D03*
X100750000Y-112750000D03*
X101250000Y-46500000D03*
X101500000Y-98000000D03*
X101500000Y-129750000D03*
X101500000Y-159500000D03*
X101955619Y-105250000D03*
X102000000Y-94500000D03*
X102500000Y-37500000D03*
X102500000Y-74500000D03*
X102500000Y-76500000D03*
X102500000Y-79500000D03*
X102500000Y-82500000D03*
X102500000Y-92250000D03*
X102500000Y-150500000D03*
X103000000Y-128500000D03*
X103500000Y-143500000D03*
X103750000Y-101500000D03*
X104500000Y-37500000D03*
X104500000Y-45500000D03*
X105500000Y-147500000D03*
X105750000Y-98500000D03*
X106000000Y-87750000D03*
X106000000Y-89000000D03*
X106000000Y-90750000D03*
X106250000Y-109000000D03*
X106500000Y-37500000D03*
X106500000Y-39500000D03*
X106500000Y-41500000D03*
X106500000Y-43500000D03*
X106500000Y-45500000D03*
X106500000Y-47500000D03*
X106500000Y-48500000D03*
X106500000Y-49500000D03*
X106500000Y-50500000D03*
X106500000Y-66500000D03*
X106500000Y-68500000D03*
X106500000Y-70500000D03*
X106500000Y-72500000D03*
X106500000Y-74500000D03*
X106500000Y-77500000D03*
X106500000Y-82500000D03*
X106500000Y-159500000D03*
X106750000Y-93250000D03*
X107500000Y-80500000D03*
X107500000Y-107000000D03*
X107599054Y-59783123D03*
X107750000Y-97250000D03*
X108500000Y-79500000D03*
X109500000Y-77500000D03*
X109500000Y-138750000D03*
X109500000Y-151500000D03*
X110000000Y-115250000D03*
X110250000Y-103750000D03*
X110500000Y-111500000D03*
X110750000Y-85250000D03*
X111250000Y-90750000D03*
X111250000Y-95250000D03*
X111250000Y-106500000D03*
X111500000Y-143500000D03*
X111500000Y-155500000D03*
X111750000Y-123250000D03*
X112500000Y-83500000D03*
X112500000Y-86500000D03*
X112500000Y-159500000D03*
X112750000Y-88500000D03*
X113000000Y-81750000D03*
X113000000Y-99750000D03*
X113000000Y-106500000D03*
X113500000Y-79500000D03*
X113500000Y-92500000D03*
X114000000Y-114500000D03*
X114500000Y-125750000D03*
X115500000Y-151500000D03*
X116000000Y-122500000D03*
X116250000Y-139500000D03*
X116500000Y-155500000D03*
X116750000Y-94250000D03*
X116750000Y-97750000D03*
X116789000Y-89789000D03*
X117250000Y-87750000D03*
X117300000Y-103100000D03*
X117500000Y-80750000D03*
X117500000Y-159500000D03*
X117569669Y-108430331D03*
X118500000Y-128500000D03*
X118500000Y-143500000D03*
X119000000Y-81250000D03*
X119000000Y-93250000D03*
X119250000Y-135750000D03*
X119500000Y-74400000D03*
X119500000Y-99500000D03*
X119500000Y-148500000D03*
X119944669Y-110805331D03*
X120000000Y-123250000D03*
X120500000Y-105900000D03*
X120500000Y-137250000D03*
X120750000Y-85500000D03*
X121000000Y-82000000D03*
X121000000Y-95750000D03*
X121500000Y-144500000D03*
X121700000Y-107700000D03*
X122000000Y-71920000D03*
X122230331Y-103769669D03*
X122250000Y-100750000D03*
X122500000Y-142500000D03*
X122660000Y-73160000D03*
X122978306Y-79455000D03*
X123250000Y-81500000D03*
X123444669Y-114305331D03*
X123500000Y-159500000D03*
X124300000Y-110300000D03*
X124364203Y-115224864D03*
X124500000Y-89500000D03*
X124500000Y-132500000D03*
X124750000Y-98750000D03*
X124750000Y-101000000D03*
X125500000Y-125500000D03*
X125500000Y-129500000D03*
X126000000Y-104750000D03*
X126000000Y-122500000D03*
X126430000Y-120000000D03*
X126500000Y-39500000D03*
X126500000Y-42500000D03*
X126500000Y-46500000D03*
X126500000Y-50500000D03*
X126500000Y-54500000D03*
X126500000Y-59500000D03*
X126500000Y-62500000D03*
X126500000Y-86500000D03*
X126500000Y-139500000D03*
X126500000Y-150500000D03*
X127000000Y-97750000D03*
X127000000Y-106250000D03*
X127094193Y-111081650D03*
X127180000Y-109250000D03*
X127180000Y-112750000D03*
X127180000Y-117500000D03*
X127300000Y-69400000D03*
X127500000Y-37500000D03*
X127500000Y-65500000D03*
X127500000Y-130500000D03*
X127500000Y-133500000D03*
X127500000Y-142500000D03*
X127500000Y-149500000D03*
X128000000Y-111500000D03*
X128500000Y-117500000D03*
X128500000Y-121500000D03*
X128500000Y-138500000D03*
X129500000Y-116500000D03*
X129500000Y-125500000D03*
X129500000Y-159500000D03*
X130500000Y-46500000D03*
X130500000Y-123500000D03*
X130500000Y-129500000D03*
X131500000Y-37500000D03*
X131500000Y-82500000D03*
X131500000Y-84500000D03*
X131500000Y-87500000D03*
X131500000Y-89500000D03*
X131500000Y-132500000D03*
X132500000Y-42500000D03*
X132500000Y-114500000D03*
X132500000Y-135500000D03*
X132500000Y-148500000D03*
X133500000Y-40500000D03*
X133500000Y-46500000D03*
X133500000Y-120500000D03*
X133500000Y-142500000D03*
X134500000Y-139500000D03*
X135500000Y-67500000D03*
X135500000Y-92500000D03*
X135500000Y-114500000D03*
X135500000Y-117500000D03*
X135500000Y-131500000D03*
X135500000Y-138500000D03*
X135500000Y-142500000D03*
X135500000Y-159500000D03*
X136500000Y-37500000D03*
X136500000Y-51500000D03*
X136500000Y-70500000D03*
X136500000Y-73500000D03*
X136500000Y-78500000D03*
X136500000Y-80500000D03*
X136500000Y-134500000D03*
X137500000Y-46500000D03*
X137500000Y-95500000D03*
X137500000Y-152500000D03*
X137500000Y-155500000D03*
X138500000Y-111500000D03*
X138500000Y-144500000D03*
X139500000Y-81500000D03*
X139500000Y-116500000D03*
X139500000Y-159500000D03*
X139950000Y-70850000D03*
X140500000Y-112500000D03*
X140500000Y-125500000D03*
X140500000Y-153500000D03*
X141500000Y-49500000D03*
X141500000Y-55500000D03*
X141500000Y-59500000D03*
X141500000Y-131500000D03*
X141500000Y-149500000D03*
X142200000Y-70600000D03*
X142500000Y-37500000D03*
X142500000Y-43500000D03*
X142500000Y-53500000D03*
X142500000Y-63500000D03*
X142500000Y-63500000D03*
X142500000Y-78500000D03*
X142500000Y-101500000D03*
X142500000Y-108500000D03*
X142500000Y-150500000D03*
X143300000Y-59900000D03*
X143500000Y-68500000D03*
X143500000Y-75500000D03*
X143500000Y-104500000D03*
X143500000Y-110500000D03*
X143500000Y-116500000D03*
X143500000Y-155500000D03*
X144500000Y-41500000D03*
X144500000Y-78500000D03*
X144500000Y-86500000D03*
X144500000Y-97500000D03*
X144500000Y-147500000D03*
X144500000Y-159500000D03*
X145500000Y-66755000D03*
X145500000Y-83500000D03*
X145500000Y-96500000D03*
X145500000Y-102500000D03*
X145500000Y-106500000D03*
X145500000Y-118500000D03*
X145500000Y-142500000D03*
X146500000Y-46500000D03*
X146500000Y-53500000D03*
X146500000Y-55500000D03*
X146500000Y-59500000D03*
X146500000Y-60500000D03*
X146500000Y-65500000D03*
X146500000Y-78500000D03*
X146500000Y-92500000D03*
X146500000Y-100500000D03*
X146500000Y-116500000D03*
X146500000Y-124500000D03*
X146500000Y-127500000D03*
X146500000Y-138500000D03*
X147500000Y-37500000D03*
X147500000Y-62500000D03*
X147500000Y-72500000D03*
X147500000Y-83500000D03*
X147500000Y-132500000D03*
X148500000Y-38500000D03*
X148500000Y-70500000D03*
X148500000Y-74500000D03*
X148500000Y-107500000D03*
X148500000Y-130500000D03*
X148500000Y-144500000D03*
X149500000Y-49500000D03*
X149500000Y-90500000D03*
X149500000Y-108500000D03*
X149500000Y-159500000D03*
X150500000Y-97500000D03*
X150500000Y-100500000D03*
X150500000Y-103500000D03*
X150500000Y-106500000D03*
X150500000Y-148500000D03*
X152500000Y-88500000D03*
X152500000Y-102500000D03*
X152500000Y-112500000D03*
X152500000Y-125500000D03*
X152500000Y-132500000D03*
X152500000Y-138500000D03*
X153500000Y-37500000D03*
X153500000Y-47500000D03*
X153500000Y-75500000D03*
X154500000Y-44500000D03*
X154500000Y-54500000D03*
X154500000Y-70500000D03*
X154500000Y-87500000D03*
X154500000Y-107500000D03*
X155500000Y-42500000D03*
X155500000Y-52500000D03*
X155500000Y-91500000D03*
X155500000Y-102500000D03*
X155500000Y-109500000D03*
X155500000Y-113500000D03*
X155500000Y-144500000D03*
X156500000Y-43500000D03*
X156500000Y-68500000D03*
X156500000Y-82500000D03*
X156500000Y-93500000D03*
X156500000Y-135500000D03*
X156500000Y-142500000D03*
X156500000Y-159500000D03*
X157500000Y-114500000D03*
X157500000Y-121500000D03*
X157500000Y-137500000D03*
X157500000Y-142500000D03*
X157500000Y-147500000D03*
X157500000Y-149500000D03*
X158500000Y-48500000D03*
X158500000Y-117500000D03*
X158500000Y-144500000D03*
X158500000Y-158500000D03*
X159500000Y-75500000D03*
X159500000Y-131500000D03*
X159500000Y-156500000D03*
X160500000Y-103500000D03*
X160500000Y-107500000D03*
X160500000Y-149500000D03*
X160500000Y-152500000D03*
X161500000Y-37500000D03*
X161500000Y-46500000D03*
X161500000Y-90500000D03*
X162500000Y-92500000D03*
X162500000Y-153500000D03*
X162500000Y-159500000D03*
X163500000Y-48500000D03*
X163500000Y-67500000D03*
X163500000Y-70500000D03*
X163500000Y-72500000D03*
X163500000Y-75500000D03*
X163500000Y-124500000D03*
X163500000Y-150500000D03*
X164500000Y-46500000D03*
X164500000Y-81500000D03*
X164500000Y-103500000D03*
X164500000Y-138500000D03*
X165500000Y-37500000D03*
X165500000Y-144500000D03*
X165500000Y-148500000D03*
X166500000Y-91500000D03*
X166500000Y-110500000D03*
X166500000Y-115500000D03*
X166500000Y-131500000D03*
X167500000Y-37500000D03*
X167500000Y-40500000D03*
X167500000Y-44500000D03*
X167500000Y-94500000D03*
X168500000Y-98500000D03*
X168500000Y-121500000D03*
X168500000Y-129500000D03*
X168500000Y-132500000D03*
X168500000Y-156500000D03*
X169500000Y-79500000D03*
X169500000Y-86500000D03*
X169500000Y-114500000D03*
X169500000Y-150500000D03*
X169500000Y-159500000D03*
X170500000Y-43500000D03*
X170500000Y-48500000D03*
X170500000Y-104500000D03*
X171500000Y-45500000D03*
X171500000Y-65500000D03*
X171500000Y-94500000D03*
X171500000Y-109500000D03*
X172500000Y-37500000D03*
X172500000Y-92500000D03*
X172500000Y-139500000D03*
X172500000Y-144500000D03*
X173500000Y-40500000D03*
X173500000Y-121500000D03*
X173500000Y-123500000D03*
X174500000Y-80500000D03*
X174500000Y-83500000D03*
X174500000Y-101500000D03*
X174500000Y-149500000D03*
X175500000Y-68500000D03*
X175500000Y-93500000D03*
X175500000Y-110500000D03*
X175500000Y-112500000D03*
X176500000Y-49500000D03*
X176500000Y-78500000D03*
X176500000Y-120500000D03*
X176500000Y-123500000D03*
X176500000Y-159500000D03*
X177500000Y-67500000D03*
X177500000Y-97500000D03*
X177500000Y-102500000D03*
X177500000Y-115500000D03*
X177500000Y-156500000D03*
X178500000Y-45500000D03*
X178500000Y-88500000D03*
X178500000Y-113500000D03*
X178500000Y-144500000D03*
X179500000Y-37500000D03*
X179500000Y-55500000D03*
X179500000Y-60500000D03*
X179500000Y-70500000D03*
X179500000Y-73500000D03*
X179500000Y-151500000D03*
X180500000Y-44500000D03*
X180500000Y-49500000D03*
X180500000Y-80500000D03*
X180500000Y-124500000D03*
X181500000Y-64500000D03*
X181500000Y-70500000D03*
X181500000Y-139500000D03*
X181500000Y-141500000D03*
X181500000Y-148500000D03*
X182500000Y-40500000D03*
X182500000Y-51500000D03*
X182500000Y-82500000D03*
X182500000Y-91500000D03*
X182500000Y-95500000D03*
X182500000Y-121500000D03*
X183500000Y-59500000D03*
X183500000Y-100500000D03*
X183500000Y-135500000D03*
X183500000Y-147500000D03*
X183500000Y-154500000D03*
X183500000Y-159500000D03*
X184500000Y-44500000D03*
X184500000Y-58500000D03*
X184500000Y-64500000D03*
X184500000Y-76500000D03*
X184500000Y-132500000D03*
X184500000Y-143500000D03*
X184500000Y-152500000D03*
X185500000Y-37500000D03*
X185500000Y-53500000D03*
X185500000Y-66500000D03*
X185500000Y-125500000D03*
X186500000Y-89500000D03*
X186500000Y-148500000D03*
X187500000Y-45500000D03*
X187500000Y-83500000D03*
X187500000Y-95500000D03*
X187500000Y-98500000D03*
X187500000Y-101500000D03*
X187500000Y-129500000D03*
X187500000Y-145500000D03*
X188500000Y-52500000D03*
X188500000Y-70500000D03*
X188500000Y-90500000D03*
X188500000Y-111500000D03*
X188500000Y-140500000D03*
X188500000Y-148500000D03*
X189500000Y-37500000D03*
X189500000Y-48500000D03*
X189500000Y-57500000D03*
X189500000Y-82500000D03*
X189500000Y-102500000D03*
X189500000Y-159500000D03*
X190500000Y-62500000D03*
X190500000Y-66500000D03*
X190500000Y-84500000D03*
X190500000Y-96500000D03*
X190500000Y-106500000D03*
X190500000Y-134500000D03*
X190500000Y-137500000D03*
X190500000Y-146500000D03*
X191500000Y-99500000D03*
X191500000Y-116500000D03*
X191500000Y-142500000D03*
X191500000Y-151500000D03*
X192500000Y-38500000D03*
X192500000Y-58500000D03*
X192500000Y-90500000D03*
X192500000Y-124500000D03*
X192500000Y-128500000D03*
X192500000Y-158500000D03*
X193500000Y-40500000D03*
X193500000Y-44500000D03*
X193500000Y-48500000D03*
X193500000Y-52500000D03*
X193500000Y-55500000D03*
X193500000Y-61500000D03*
X193500000Y-63500000D03*
X193500000Y-70500000D03*
X193500000Y-75500000D03*
X193500000Y-80500000D03*
X193500000Y-85500000D03*
X193500000Y-94500000D03*
X193500000Y-97500000D03*
X193500000Y-101500000D03*
X193500000Y-103500000D03*
X193500000Y-110500000D03*
X193500000Y-114500000D03*
X193500000Y-119500000D03*
X193500000Y-123500000D03*
X193500000Y-127500000D03*
X193500000Y-131500000D03*
X193500000Y-134500000D03*
X193500000Y-137500000D03*
X193500000Y-140500000D03*
X193500000Y-142500000D03*
X193500000Y-147500000D03*
X193500000Y-150500000D03*
X193500000Y-153500000D03*
X193500000Y-156500000D03*
D11*
%TO.C,R21*%
X59560000Y-40500000D03*
%TO.C,R1*%
X61560000Y-57800000D03*
%TO.C,R2*%
X61560000Y-60340000D03*
%TO.C,R3*%
X61560000Y-65960000D03*
%TO.C,R4*%
X61560000Y-68500000D03*
%TO.C,R5*%
X61560000Y-71040000D03*
%TO.C,R6*%
X61560000Y-73580000D03*
%TO.C,R7*%
X61560000Y-79197500D03*
%TO.C,R8*%
X61560000Y-81737500D03*
%TO.C,R9*%
X61560000Y-84277500D03*
%TO.C,R10*%
X61560000Y-86817500D03*
%TO.C,R21*%
X64640000Y-40500000D03*
%TO.C,R1*%
X66640000Y-57800000D03*
%TO.C,R2*%
X66640000Y-60340000D03*
%TO.C,R3*%
X66640000Y-65960000D03*
%TO.C,R4*%
X66640000Y-68500000D03*
%TO.C,R5*%
X66640000Y-71040000D03*
%TO.C,R6*%
X66640000Y-73580000D03*
%TO.C,R7*%
X66640000Y-79197500D03*
%TO.C,R8*%
X66640000Y-81737500D03*
%TO.C,R9*%
X66640000Y-84277500D03*
%TO.C,R10*%
X66640000Y-86817500D03*
%TO.C,R11*%
X129540000Y-100460000D03*
X129540000Y-105540000D03*
%TO.C,R12*%
X129540000Y-107500000D03*
X129540000Y-112580000D03*
%TO.C,R18*%
X137300000Y-114260000D03*
X137300000Y-119340000D03*
%TO.C,R20*%
X137960000Y-98764728D03*
%TO.C,R19*%
X137960000Y-107000000D03*
%TO.C,R15*%
X139500000Y-114260000D03*
X139500000Y-119340000D03*
%TO.C,R20*%
X143040000Y-98764728D03*
%TO.C,R19*%
X143040000Y-107000000D03*
%TO.C,R17*%
X148800000Y-114200000D03*
X148800000Y-119280000D03*
%TO.C,R14*%
X151000000Y-114200000D03*
X151000000Y-119280000D03*
%TO.C,R16*%
X160300000Y-114460000D03*
X160300000Y-119540000D03*
%TO.C,R13*%
X162500000Y-114460000D03*
X162500000Y-119540000D03*
D12*
%TO.C,Q6*%
X137160000Y-122950000D03*
%TO.C,Q5*%
X137160000Y-127800000D03*
%TO.C,Q6*%
X138430000Y-122950000D03*
%TO.C,Q5*%
X138430000Y-127800000D03*
%TO.C,Q6*%
X139700000Y-122950000D03*
%TO.C,Q5*%
X139700000Y-127800000D03*
%TO.C,Q4*%
X148648000Y-122840000D03*
%TO.C,Q3*%
X148648000Y-127800000D03*
%TO.C,Q4*%
X149918000Y-122840000D03*
%TO.C,Q3*%
X149918000Y-127800000D03*
%TO.C,Q4*%
X151188000Y-122840000D03*
%TO.C,Q3*%
X151188000Y-127800000D03*
%TO.C,Q2*%
X160136000Y-122870000D03*
%TO.C,Q1*%
X160136000Y-127800000D03*
%TO.C,Q2*%
X161406000Y-122870000D03*
%TO.C,Q1*%
X161406000Y-127800000D03*
%TO.C,Q2*%
X162676000Y-122870000D03*
%TO.C,Q1*%
X162676000Y-127800000D03*
D13*
%TO.C,SW2*%
X71380000Y-65960000D03*
X71380000Y-68500000D03*
X71380000Y-71040000D03*
X71380000Y-73580000D03*
%TO.C,SW3*%
X71380000Y-79197500D03*
X71380000Y-81737500D03*
X71380000Y-84277500D03*
X71380000Y-86817500D03*
%TO.C,SW1*%
X71400000Y-57800000D03*
X71400000Y-60340000D03*
%TO.C,SW2*%
X79000000Y-65960000D03*
X79000000Y-68500000D03*
X79000000Y-71040000D03*
X79000000Y-73580000D03*
%TO.C,SW3*%
X79000000Y-79197500D03*
X79000000Y-81737500D03*
X79000000Y-84277500D03*
X79000000Y-86817500D03*
%TO.C,SW1*%
X79020000Y-57800000D03*
X79020000Y-60340000D03*
%TO.C,C12*%
X151400000Y-71800000D03*
X151400000Y-74300000D03*
%TO.C,C2*%
X151500000Y-53010112D03*
X151500000Y-55510112D03*
%TO.C,C1*%
X151500000Y-58800000D03*
X151500000Y-61300000D03*
%TO.C,C11*%
X157200000Y-71800000D03*
X157200000Y-74300000D03*
%TO.C,C10*%
X159994135Y-84249888D03*
X159994135Y-86749888D03*
%TO.C,C5*%
X168510113Y-137400000D03*
%TO.C,C7*%
X169400000Y-141900000D03*
X169400000Y-144400000D03*
%TO.C,C5*%
X171010113Y-137400000D03*
%TO.C,C9*%
X173700000Y-117000000D03*
X173700000Y-119500000D03*
%TO.C,C3*%
X174100000Y-130400000D03*
X174100000Y-132900000D03*
%TO.C,C4*%
X174189888Y-137400000D03*
%TO.C,C6*%
X175650000Y-141900000D03*
X175650000Y-144400000D03*
%TO.C,C4*%
X176689888Y-137400000D03*
%TO.C,C8*%
X179700000Y-117000000D03*
X179700000Y-119500000D03*
D14*
%TO.C,J6*%
X180250000Y-133500000D02*
X180250000Y-136100000D01*
X182150000Y-130000000D02*
X184350000Y-130000000D01*
X186050000Y-133700000D02*
X186050000Y-135900000D01*
D15*
%TO.C,D1*%
X134000000Y-101225000D03*
X134000000Y-103765000D03*
%TO.C,D2*%
X134000000Y-107735000D03*
X134000000Y-110275000D03*
D16*
%TO.C,J50*%
X57800000Y-127975000D03*
X60300000Y-127975000D03*
X62800000Y-127975000D03*
%TO.C,J48*%
X71800000Y-127975000D03*
X74300000Y-127975000D03*
X76800000Y-127975000D03*
%TO.C,J8*%
X89600000Y-127727500D03*
X92100000Y-127727500D03*
X94600000Y-127727500D03*
X97100000Y-127727500D03*
%TO.C,J16*%
X106850000Y-127727500D03*
X109350000Y-127727500D03*
X111850000Y-127727500D03*
X114350000Y-127727500D03*
%TO.C,J10*%
X123950000Y-127727500D03*
X126450000Y-127727500D03*
X128950000Y-127727500D03*
X131450000Y-127727500D03*
D17*
%TO.C,J12*%
X48400000Y-112380000D03*
X48400000Y-114920000D03*
X48400000Y-117460000D03*
X48400000Y-120000000D03*
X48400000Y-122540000D03*
%TO.C,J46*%
X50960000Y-64840000D03*
X50960000Y-67380000D03*
X50960000Y-69920000D03*
X50960000Y-72460000D03*
X50960000Y-75000000D03*
X50960000Y-77540000D03*
X50960000Y-80080000D03*
X50960000Y-82620000D03*
%TO.C,J14*%
X52000000Y-112380000D03*
X52000000Y-114920000D03*
X52000000Y-117460000D03*
X52000000Y-120000000D03*
X52000000Y-122540000D03*
%TO.C,J46*%
X53500000Y-64840000D03*
X53500000Y-67380000D03*
X53500000Y-69920000D03*
X53500000Y-72460000D03*
X53500000Y-75000000D03*
X53500000Y-77540000D03*
X53500000Y-80080000D03*
X53500000Y-82620000D03*
%TO.C,J18*%
X55600000Y-112380000D03*
X55600000Y-114920000D03*
X55600000Y-117460000D03*
X55600000Y-120000000D03*
X55600000Y-122540000D03*
%TO.C,J11*%
X62500000Y-112365000D03*
X62500000Y-114905000D03*
X62500000Y-117445000D03*
X62500000Y-119985000D03*
X62500000Y-122525000D03*
%TO.C,J13*%
X66100000Y-112365000D03*
X66100000Y-114905000D03*
X66100000Y-117445000D03*
X66100000Y-119985000D03*
X66100000Y-122525000D03*
%TO.C,J17*%
X69700000Y-112365000D03*
X69700000Y-114905000D03*
X69700000Y-117445000D03*
X69700000Y-119985000D03*
X69700000Y-122525000D03*
%TO.C,J53*%
X70625000Y-40475000D03*
X73165000Y-40475000D03*
%TO.C,J19*%
X73900000Y-112420000D03*
X73900000Y-114960000D03*
X73900000Y-117500000D03*
X73900000Y-120040000D03*
X73900000Y-122580000D03*
%TO.C,J53*%
X75705000Y-40475000D03*
%TO.C,J21*%
X77500000Y-112420000D03*
X77500000Y-114960000D03*
X77500000Y-117500000D03*
X77500000Y-120040000D03*
X77500000Y-122580000D03*
%TO.C,J53*%
X78245000Y-40475000D03*
X80785000Y-40475000D03*
%TO.C,J22*%
X81100000Y-112420000D03*
X81100000Y-114960000D03*
X81100000Y-117500000D03*
X81100000Y-120040000D03*
X81100000Y-122580000D03*
%TO.C,J43*%
X82025000Y-93175000D03*
X82025000Y-95715000D03*
X82025000Y-98255000D03*
X82025000Y-100795000D03*
X82025000Y-103335000D03*
X82025000Y-105875000D03*
%TO.C,J53*%
X83325000Y-40475000D03*
X85865000Y-40475000D03*
%TO.C,J39*%
X87500000Y-57900000D03*
%TO.C,J37*%
X88300000Y-64500000D03*
%TO.C,J38*%
X88300000Y-67300000D03*
%TO.C,J53*%
X88405000Y-40475000D03*
%TO.C,J36*%
X90500000Y-72600673D03*
%TO.C,J29*%
X90500000Y-76500000D03*
%TO.C,J23*%
X98900000Y-110480000D03*
X98900000Y-113020000D03*
X98900000Y-115560000D03*
X98900000Y-118100000D03*
X98900000Y-120640000D03*
%TO.C,J1*%
X99400000Y-50300000D03*
X99400000Y-52840000D03*
X99400000Y-55380000D03*
X99400000Y-57920000D03*
X99400000Y-60460000D03*
X99400000Y-63000000D03*
X99400000Y-65540000D03*
X99400000Y-68080000D03*
X99400000Y-70620000D03*
X99400000Y-73160000D03*
X99400000Y-75700000D03*
X99400000Y-78240000D03*
X99400000Y-80780000D03*
X99400000Y-83320000D03*
X99400000Y-85860000D03*
X99400000Y-88400000D03*
X99400000Y-90940000D03*
X99400000Y-93480000D03*
X99400000Y-96020000D03*
%TO.C,J25*%
X103490000Y-110480000D03*
X103490000Y-113020000D03*
X103490000Y-115560000D03*
X103490000Y-118100000D03*
X103490000Y-120640000D03*
%TO.C,J27*%
X108080000Y-110480000D03*
X108080000Y-113020000D03*
X108080000Y-115560000D03*
X108080000Y-118100000D03*
X108080000Y-120640000D03*
%TO.C,J24*%
X112670000Y-110480000D03*
X112670000Y-113020000D03*
X112670000Y-115560000D03*
X112670000Y-118100000D03*
X112670000Y-120640000D03*
%TO.C,J26*%
X117260000Y-110480000D03*
X117260000Y-113020000D03*
X117260000Y-115560000D03*
X117260000Y-118100000D03*
X117260000Y-120640000D03*
%TO.C,J28*%
X121850000Y-110480000D03*
X121850000Y-113020000D03*
X121850000Y-115560000D03*
X121850000Y-118100000D03*
X121850000Y-120640000D03*
%TO.C,J2*%
X134100000Y-50300000D03*
X134100000Y-52840000D03*
X134100000Y-55380000D03*
X134100000Y-57920000D03*
X134100000Y-60460000D03*
X134100000Y-63000000D03*
X134100000Y-65540000D03*
X134100000Y-68080000D03*
X134100000Y-70620000D03*
X134100000Y-73160000D03*
X134100000Y-75700000D03*
X134100000Y-78240000D03*
X134100000Y-80780000D03*
X134100000Y-83320000D03*
X134100000Y-85860000D03*
X134100000Y-88400000D03*
X134100000Y-90940000D03*
X134100000Y-93480000D03*
X134100000Y-96020000D03*
%TO.C,J32*%
X142700000Y-83100000D03*
%TO.C,J40*%
X144100000Y-54894806D03*
%TO.C,J31*%
X144100000Y-61300000D03*
%TO.C,J30*%
X144100000Y-64900000D03*
%TO.C,J35*%
X148900000Y-83300000D03*
%TO.C,J47*%
X158150000Y-53090000D03*
X158150000Y-55630000D03*
X158150000Y-58170000D03*
X158150000Y-60710000D03*
X158150000Y-63250000D03*
X160690000Y-53090000D03*
X160690000Y-55630000D03*
X160690000Y-58170000D03*
X160690000Y-60710000D03*
X160690000Y-63250000D03*
%TO.C,J45*%
X164700000Y-53090000D03*
X164700000Y-55630000D03*
X164700000Y-58170000D03*
X164700000Y-60710000D03*
X164700000Y-63250000D03*
%TO.C,J42*%
X166494135Y-84420000D03*
X166494135Y-86960000D03*
X166494135Y-89500000D03*
%TO.C,J44*%
X166590000Y-69220000D03*
X166590000Y-71760000D03*
X166590000Y-74300000D03*
X166590000Y-76840000D03*
%TO.C,J45*%
X167240000Y-53090000D03*
X167240000Y-55630000D03*
X167240000Y-58170000D03*
X167240000Y-60710000D03*
X167240000Y-63250000D03*
%TO.C,J52*%
X173020000Y-127100000D03*
X175560000Y-127100000D03*
X178100000Y-127100000D03*
%TO.C,J20*%
X184500000Y-113380000D03*
X184500000Y-115920000D03*
X184500000Y-118460000D03*
X184500000Y-121000000D03*
D18*
%TO.C,U1*%
X104297500Y-50300000D03*
X104297500Y-52840000D03*
X104297500Y-55380000D03*
X104297500Y-57920000D03*
X104297500Y-60460000D03*
X104297500Y-63000000D03*
X104297500Y-65540000D03*
X104297500Y-68080000D03*
X104297500Y-70620000D03*
X104297500Y-73160000D03*
X104297500Y-75700000D03*
X104297500Y-78240000D03*
X104297500Y-80780000D03*
X104297500Y-83320000D03*
X104297500Y-85860000D03*
X104297500Y-88400000D03*
X104297500Y-90940000D03*
X104297500Y-93480000D03*
X104297500Y-96020000D03*
X129697500Y-50300000D03*
X129697500Y-52840000D03*
X129697500Y-55380000D03*
X129697500Y-57920000D03*
X129697500Y-60460000D03*
X129697500Y-63000000D03*
X129697500Y-65540000D03*
X129697500Y-68080000D03*
X129697500Y-70620000D03*
X129697500Y-73160000D03*
X129697500Y-75700000D03*
X129697500Y-78240000D03*
X129697500Y-80780000D03*
X129697500Y-83320000D03*
X129697500Y-85860000D03*
X129697500Y-88400000D03*
X129697500Y-90940000D03*
X129697500Y-93480000D03*
X129697500Y-96020000D03*
D19*
%TO.C,Q9*%
X143200000Y-122720000D03*
X143200000Y-125260000D03*
X143200000Y-127800000D03*
%TO.C,SW4*%
X145750000Y-104750000D03*
X145750000Y-109250000D03*
%TO.C,SW5*%
X145850000Y-94250000D03*
X145850000Y-98750000D03*
%TO.C,SW4*%
X152250000Y-104750000D03*
X152250000Y-109250000D03*
%TO.C,SW5*%
X152350000Y-94250000D03*
X152350000Y-98750000D03*
%TO.C,Q8*%
X154700000Y-122720000D03*
X154700000Y-125260000D03*
X154700000Y-127800000D03*
%TO.C,Q7*%
X166200000Y-122740000D03*
X166200000Y-125280000D03*
X166200000Y-127820000D03*
D20*
%TO.C,J51*%
X56900000Y-136000000D03*
X60400000Y-136000000D03*
X63900000Y-136000000D03*
%TO.C,J49*%
X70800000Y-136000000D03*
X74300000Y-136000000D03*
X77800000Y-136000000D03*
%TO.C,J7*%
X88300000Y-136000000D03*
X91800000Y-136000000D03*
X95300000Y-136000000D03*
X98800000Y-136000000D03*
%TO.C,J15*%
X105250000Y-136000000D03*
X108750000Y-136000000D03*
X112250000Y-136000000D03*
X115750000Y-136000000D03*
%TO.C,J9*%
X125950000Y-136000000D03*
X129450000Y-136000000D03*
%TO.C,J3*%
X139850000Y-135972500D03*
X143350000Y-135972500D03*
%TO.C,J4*%
X150300000Y-135972500D03*
X153800000Y-135972500D03*
%TO.C,J41*%
X158000000Y-95250000D03*
X158000000Y-98750000D03*
%TO.C,J33*%
X158000000Y-106000000D03*
X158000000Y-109500000D03*
%TO.C,J5*%
X160750000Y-135972500D03*
X164250000Y-135972500D03*
%TO.C,J34*%
X181000000Y-104500000D03*
X181000000Y-108000000D03*
M02*
